<svg id="Capa_1" enable-background="new 0 0 512 512" viewBox="0 0 512 512" xmlns="http://www.w3.org/2000/svg"><g><g fill="#af66da"><path d="m358.583 293.165c-8.447-2.262-16.994-1.645-24.611 1.231l-16.023-24.931c-2.241-3.486-6.884-4.493-10.364-2.255-3.484 2.24-4.494 6.88-2.255 10.365l15.824 24.621c-5.596 5.034-9.855 11.677-11.944 19.474-1.072 4.001 1.302 8.114 5.303 9.186.65.174 1.304.257 1.946.257 3.312 0 6.342-2.21 7.239-5.561 1.082-4.038 3.093-7.583 5.734-10.477l2.902 4.516c1.434 2.229 3.85 3.446 6.316 3.446 1.389 0 2.794-.385 4.048-1.192 3.484-2.239 4.494-6.879 2.255-10.364l-2.583-4.018c3.938-.93 8.154-.93 12.33.191 4.004 1.07 8.113-1.303 9.186-5.304s-1.303-8.113-5.303-9.185z"/><path d="m405.132 225.747c-8.104 2.172-14.969 6.682-20.069 12.607l-28.307-16.343c-3.59-2.071-8.175-.842-10.245 2.745-2.071 3.587-.842 8.174 2.745 10.245l28.291 16.334c-2.613 7.406-3.102 15.643-.92 23.784.897 3.351 3.928 5.561 7.239 5.561.643 0 1.296-.083 1.946-.257 4.001-1.072 6.375-5.185 5.303-9.186-1.106-4.128-1.116-8.294-.217-12.194l4.403 2.542c1.182.682 2.471 1.006 3.743 1.006 2.592 0 5.113-1.346 6.502-3.751 2.071-3.587.842-8.174-2.745-10.245l-4.373-2.525c2.913-2.691 6.497-4.739 10.587-5.835 4.001-1.072 6.375-5.185 5.303-9.186-1.071-4-5.185-6.373-9.186-5.302z"/><path d="m428.643 172.538c0-4.142-3.357-7.5-7.5-7.5h-5.049c1.178-3.788 3.257-7.353 6.252-10.347 2.929-2.929 2.929-7.678 0-10.606-2.93-2.929-7.678-2.929-10.607 0-5.933 5.933-9.623 13.271-11.077 20.953h-31.753c-4.143 0-7.5 3.358-7.5 7.5s3.357 7.5 7.5 7.5h31.735c1.44 7.72 5.135 15.098 11.095 21.058 1.465 1.464 3.385 2.197 5.304 2.197s3.839-.732 5.304-2.197c2.929-2.929 2.929-7.678 0-10.606-3.022-3.022-5.114-6.625-6.285-10.452h5.083c4.141 0 7.498-3.358 7.498-7.5z"/><path d="m349.046 110.18c-3.587 2.071-4.816 6.658-2.745 10.245 1.389 2.406 3.91 3.751 6.502 3.751 1.272 0 2.562-.324 3.743-1.006l28.449-16.425c5.107 5.965 11.996 10.508 20.137 12.69.65.174 1.304.257 1.946.257 3.312 0 6.342-2.21 7.239-5.561 1.072-4.001-1.302-8.114-5.303-9.186-4.128-1.106-7.741-3.18-10.669-5.909l4.402-2.542c3.587-2.071 4.816-6.658 2.745-10.245-2.07-3.587-6.659-4.816-10.245-2.745l-4.373 2.525c-.874-3.869-.856-7.996.24-12.086 1.072-4.001-1.302-8.114-5.303-9.186-4.001-1.071-8.113 1.303-9.186 5.303-2.172 8.105-1.699 16.305.883 23.685z"/><path d="m309.629 79.688c1.182.682 2.471 1.006 3.743 1.006 2.592 0 5.113-1.346 6.502-3.751l14.915-25.833c4.287 1.516 8.769 2.296 13.293 2.296 3.501 0 7.027-.46 10.5-1.391 4.001-1.072 6.375-5.185 5.303-9.186s-5.182-6.374-9.186-5.304c-4.128 1.106-8.294 1.116-12.194.217l2.541-4.402c2.071-3.587.842-8.174-2.745-10.245-3.589-2.073-8.175-.842-10.245 2.745l-2.524 4.372c-2.691-2.913-4.739-6.497-5.835-10.586-1.071-4.001-5.185-6.374-9.186-5.304-4.001 1.072-6.375 5.185-5.303 9.186 2.124 7.926 6.507 14.854 12.596 20.088l-14.922 25.845c-2.069 3.589-.84 8.176 2.747 10.247z"/><path d="m204.416 267.21c-3.485-2.238-8.124-1.231-10.364 2.255l-16.008 24.908c-7.834-2.965-16.373-3.418-24.625-1.208-4.001 1.072-6.375 5.185-5.303 9.186 1.071 4 5.185 6.373 9.186 5.303 4.102-1.099 8.318-1.153 12.337-.204l-2.591 4.031c-2.239 3.484-1.229 8.125 2.255 10.364 1.255.807 2.659 1.192 4.048 1.192 2.467 0 4.883-1.216 6.316-3.446l2.911-4.53c2.693 2.951 4.662 6.521 5.726 10.491.897 3.351 3.928 5.561 7.239 5.561.643 0 1.296-.083 1.946-.257 4.001-1.072 6.375-5.185 5.303-9.186-2.045-7.632-6.188-14.338-11.93-19.498l15.808-24.597c2.24-3.485 1.23-8.125-2.254-10.365z"/><path d="m162.744 235.001c3.587-2.071 4.816-6.658 2.745-10.245-2.071-3.588-6.66-4.816-10.245-2.745l-28.289 16.332c-5.234-6.09-12.162-10.473-20.087-12.597-4.003-1.071-8.114 1.303-9.186 5.304s1.302 8.113 5.303 9.186c4.09 1.096 7.674 3.143 10.587 5.834l-4.373 2.525c-3.587 2.071-4.816 6.658-2.745 10.245 1.389 2.406 3.91 3.751 6.502 3.751 1.272 0 2.562-.324 3.743-1.006l4.403-2.542c.899 3.9.889 8.066-.217 12.194-1.072 4.001 1.302 8.113 5.303 9.186.65.174 1.304.257 1.946.257 3.312 0 6.342-2.21 7.239-5.561 2.133-7.96 1.787-16.19-.902-23.795z"/><path d="m111.357 180.038h31.736c4.143 0 7.5-3.358 7.5-7.5s-3.357-7.5-7.5-7.5h-31.754c-1.454-7.682-5.144-15.02-11.077-20.953-2.93-2.929-7.678-2.929-10.607 0s-2.929 7.678 0 10.606c2.994 2.994 5.074 6.559 6.252 10.347h-5.049c-4.143 0-7.5 3.358-7.5 7.5s3.357 7.5 7.5 7.5h5.083c-1.172 3.827-3.263 7.43-6.285 10.452-2.929 2.929-2.929 7.678 0 10.606 1.465 1.464 3.385 2.197 5.304 2.197s3.839-.732 5.304-2.197c5.958-5.96 9.653-13.338 11.093-21.058z"/><path d="m104.921 119.692c.643 0 1.296-.083 1.946-.257 7.96-2.133 14.914-6.547 20.156-12.679l28.43 16.414c1.182.682 2.471 1.006 3.743 1.006 2.592 0 5.113-1.346 6.502-3.751 2.071-3.587.842-8.174-2.745-10.245l-28.446-16.423c2.657-7.577 2.989-15.77.865-23.695-1.071-4-5.184-6.374-9.186-5.303-4.001 1.072-6.375 5.185-5.303 9.186 1.077 4.02 1.147 8.148.256 12.095l-4.389-2.534c-3.589-2.072-8.175-.842-10.245 2.745-2.071 3.587-.842 8.174 2.745 10.245l4.419 2.551c-2.988 2.783-6.63 4.812-10.686 5.899-4.001 1.072-6.375 5.185-5.303 9.186.9 3.35 3.93 5.56 7.241 5.56z"/><path d="m153.418 52.016c3.474.931 6.998 1.391 10.5 1.391 4.523 0 9.006-.781 13.293-2.297l14.914 25.832c1.389 2.406 3.91 3.751 6.502 3.751 1.272 0 2.562-.324 3.743-1.006 3.587-2.071 4.816-6.658 2.745-10.245l-14.921-25.845c6.09-5.234 10.473-12.162 12.597-20.088 1.072-4.001-1.302-8.113-5.303-9.186-4.001-1.07-8.113 1.303-9.186 5.304-1.077 4.02-3.081 7.631-5.826 10.603l-2.534-4.39c-2.07-3.587-6.659-4.817-10.245-2.745-3.587 2.071-4.816 6.658-2.745 10.245l2.551 4.419c-3.979.916-8.147.852-12.203-.234-4.001-1.07-8.114 1.303-9.186 5.303-1.071 4.003 1.303 8.115 5.304 9.188z"/><path d="m273.952 6.298c-3.021 3.022-6.624 5.113-10.451 6.285v-5.083c0-4.142-3.357-7.5-7.5-7.5s-7.5 3.358-7.5 7.5v5.05c-3.788-1.177-7.353-3.257-10.347-6.251-2.93-2.929-7.678-2.929-10.607 0s-2.929 7.678 0 10.606c5.934 5.934 13.272 9.624 20.954 11.077v31.268c0 4.142 3.357 7.5 7.5 7.5s7.5-3.358 7.5-7.5v-31.25c7.72-1.44 15.098-5.135 21.059-11.095 2.929-2.929 2.929-7.678 0-10.606-2.931-2.929-7.679-2.929-10.608-.001z"/></g><g><path d="m142.411 443.456c44.509 44.509 119.844 52.554 119.844 52.554s-8.046-75.335-52.554-119.844c-32.511-32.511-81.469-45.567-105.501-50.244-7.151-1.392-13.424 4.881-12.032 12.032 4.676 24.033 17.732 72.991 50.243 105.502z" fill="#a2e62e"/><path d="m189.429 403.75c0 22.71-8.588 43.411-22.686 59.047 43.197 27.621 95.512 33.214 95.512 33.214s-8.046-75.335-52.554-119.844c-11.92-11.92-26.053-21.216-40.356-28.452 12.547 15.237 20.084 34.756 20.084 56.035z" fill="#97d729"/><g><g><path d="m262.512 512h-12.813c-5.523 0-10-4.477-10-10v-215.589h32.813v215.589c0 5.523-4.477 10-10 10z" fill="#bbec6c"/></g></g><path d="m239.699 324.499c5.374.575 10.829.877 16.353.877 5.561 0 11.051-.307 16.46-.889v-38.077h-32.813z" fill="#a2e62e"/><path d="m153.444 242.36 3.542 3.846 16.461 13.139 30.09 11.638 43.548 2.536 59.315-7.792 30.146-24.817 28.043-68.268-11.793-55.968-8.478-26.674-18.496-20.018c-19.881-13.544-43.899-21.466-69.769-21.466-68.524 0-124.074 55.55-124.074 124.074 0 25.871 7.921 49.889 21.465 69.77z" fill="#cb97e7"/><path d="m325.822 69.982c13.544 19.881 21.466 43.899 21.466 69.769 0 68.524-55.55 124.074-124.074 124.074-25.87 0-49.888-7.922-69.769-21.466 22.331 32.779 59.954 54.305 102.608 54.305 68.524 0 124.074-55.55 124.074-124.074 0-42.654-21.527-80.277-54.305-102.608z" fill="#bd80e1"/></g><g fill="#af66da"><path d="m283.94 189.797c1.834-2.971 3.201-6.258 4.014-9.758h23.051c1.299 5.23 3.985 10.182 8.064 14.262 1.465 1.465 3.384 2.197 5.304 2.197 1.919 0 3.839-.732 5.303-2.197 2.93-2.929 2.93-7.677.001-10.606-1.107-1.107-2.007-2.343-2.714-3.656h2.92c4.143 0 7.5-3.358 7.5-7.5s-3.357-7.5-7.5-7.5h-2.858c.698-1.273 1.575-2.474 2.652-3.551 2.929-2.929 2.929-7.678-.001-10.606-2.928-2.93-7.677-2.929-10.606 0-4.052 4.053-6.728 8.966-8.036 14.157h-23.104c-.824-3.497-2.204-6.779-4.048-9.744l13.73-13.73c2.929-2.929 2.929-7.678 0-10.606-2.93-2.929-7.678-2.929-10.607 0l-13.734 13.734c-2.966-1.84-6.247-3.216-9.743-4.037v-23.03c5.21-1.304 10.143-3.985 14.209-8.051 2.93-2.929 2.93-7.677.001-10.606s-7.678-2.929-10.606 0c-1.092 1.092-2.311 1.981-3.604 2.683v-2.889c0-4.142-3.357-7.5-7.5-7.5s-7.5 3.358-7.5 7.5v2.889c-1.293-.703-2.512-1.591-3.604-2.683-2.928-2.93-7.677-2.929-10.606 0s-2.929 7.678.001 10.606c4.066 4.066 9 6.747 14.21 8.051v23.018c-3.527.822-6.835 2.208-9.823 4.066l-13.677-13.677c-2.929-2.929-7.677-2.93-10.607 0-2.929 2.929-2.929 7.678 0 10.606l13.682 13.682c-1.854 2.988-3.236 6.297-4.055 9.823h-22.945c-1.299-5.23-3.985-10.182-8.064-14.262-2.929-2.929-7.678-2.929-10.606 0-2.93 2.929-2.93 7.677-.001 10.606 1.107 1.107 2.007 2.343 2.714 3.656h-2.92c-4.143 0-7.5 3.358-7.5 7.5s3.357 7.5 7.5 7.5h2.858c-.698 1.273-1.575 2.474-2.652 3.551-2.929 2.929-2.929 7.678.001 10.606 1.464 1.465 3.384 2.197 5.303 2.197s3.839-.732 5.304-2.197c4.052-4.053 6.728-8.966 8.036-14.157h22.998c.83 3.523 2.225 6.826 4.089 9.808l-13.666 13.665c-2.929 2.929-2.929 7.677 0 10.606 1.465 1.465 3.384 2.197 5.304 2.197 1.919 0 3.839-.732 5.304-2.197l13.693-13.693c2.971 1.834 6.258 3.201 9.759 4.014v22.976c-5.353 1.328-10.263 4.087-14.263 8.087-2.929 2.929-2.929 7.678.001 10.606 2.928 2.93 7.677 2.929 10.606 0 1.096-1.097 2.328-2.009 3.655-2.726v2.932c0 4.142 3.357 7.5 7.5 7.5s7.5-3.358 7.5-7.5v-2.869c1.286.708 2.483 1.595 3.55 2.662 1.465 1.465 3.384 2.197 5.304 2.197 1.919 0 3.839-.732 5.303-2.197 2.93-2.929 2.93-7.677.001-10.606-3.974-3.974-8.845-6.723-14.157-8.061v-23.025c3.522-.83 6.825-2.225 9.808-4.089l13.718 13.718c1.465 1.464 3.385 2.197 5.304 2.197s3.839-.732 5.304-2.197c2.929-2.929 2.929-7.678 0-10.606z"/><path d="m330.426 124.175c4.143 0 7.5-3.358 7.5-7.5s-3.357-7.5-7.5-7.5c-6.042 0-10.958-4.916-10.958-10.958 0-4.142-3.357-7.5-7.5-7.5s-7.5 3.358-7.5 7.5c0 14.313 11.645 25.958 25.958 25.958z"/><path d="m181.679 124.175c14.313 0 25.958-11.645 25.958-25.958 0-4.142-3.357-7.5-7.5-7.5s-7.5 3.358-7.5 7.5c0 6.042-4.916 10.958-10.958 10.958-4.143 0-7.5 3.358-7.5 7.5s3.358 7.5 7.5 7.5z"/><path d="m181.679 221.006c-4.143 0-7.5 3.358-7.5 7.5s3.357 7.5 7.5 7.5c6.042 0 10.958 4.916 10.958 10.958 0 4.142 3.357 7.5 7.5 7.5s7.5-3.358 7.5-7.5c0-14.313-11.644-25.958-25.958-25.958z"/><path d="m330.426 221.006c-14.313 0-25.958 11.645-25.958 25.958 0 4.142 3.357 7.5 7.5 7.5s7.5-3.358 7.5-7.5c0-6.042 4.916-10.958 10.958-10.958 4.143 0 7.5-3.358 7.5-7.5s-3.357-7.5-7.5-7.5z"/></g></g><g/><g/><g/><g/><g/><g/><g/><g/><g/><g/><g/><g/><g/><g/><g/></svg>