<svg xmlns="http://www.w3.org/2000/svg" viewBox="0 0 100 100" width="100" height="100">
<line x1="50" y1="80" x2="50" y2="122" stroke="#4a7c3f" stroke-width="2" stroke-linecap="round"/><ellipse cx="50.00" cy="37.25" rx="1.71" ry="2.25" transform="rotate(0.0 50.00 37.25)" fill="#b060e0" stroke="#7020c0" stroke-width="0.6" opacity="0.85" /><ellipse cx="54.11" cy="39.62" rx="1.71" ry="2.25" transform="rotate(60.0 54.11 39.62)" fill="#b060e0" stroke="#7020c0" stroke-width="0.6" opacity="0.85" /><ellipse cx="54.11" cy="44.38" rx="1.71" ry="2.25" transform="rotate(120.0 54.11 44.38)" fill="#b060e0" stroke="#7020c0" stroke-width="0.6" opacity="0.85" /><ellipse cx="50.00" cy="46.75" rx="1.71" ry="2.25" transform="rotate(180.0 50.00 46.75)" fill="#b060e0" stroke="#7020c0" stroke-width="0.6" opacity="0.85" /><ellipse cx="45.89" cy="44.38" rx="1.71" ry="2.25" transform="rotate(240.0 45.89 44.38)" fill="#b060e0" stroke="#7020c0" stroke-width="0.6" opacity="0.85" /><ellipse cx="45.89" cy="39.62" rx="1.71" ry="2.25" transform="rotate(300.0 45.89 39.62)" fill="#b060e0" stroke="#7020c0" stroke-width="0.6" opacity="0.85" /><ellipse cx="50.00" cy="29.65" rx="4.45" ry="5.85" transform="rotate(0.0 50.00 29.65)" fill="#b060e0" stroke="#7020c0" stroke-width="0.6" opacity="0.7999999999999999" /><ellipse cx="55.74" cy="31.06" rx="4.45" ry="5.85" transform="rotate(27.7 55.74 31.06)" fill="#b060e0" stroke="#7020c0" stroke-width="0.6" opacity="0.7999999999999999" /><ellipse cx="60.16" cy="34.98" rx="4.45" ry="5.85" transform="rotate(55.4 60.16 34.98)" fill="#b060e0" stroke="#7020c0" stroke-width="0.6" opacity="0.7999999999999999" /><ellipse cx="62.26" cy="40.51" rx="4.45" ry="5.85" transform="rotate(83.1 62.26 40.51)" fill="#b060e0" stroke="#7020c0" stroke-width="0.6" opacity="0.7999999999999999" /><ellipse cx="61.55" cy="46.38" rx="4.45" ry="5.85" transform="rotate(110.8 61.55 46.38)" fill="#b060e0" stroke="#7020c0" stroke-width="0.6" opacity="0.7999999999999999" /><ellipse cx="58.19" cy="51.24" rx="4.45" ry="5.85" transform="rotate(138.5 58.19 51.24)" fill="#b060e0" stroke="#7020c0" stroke-width="0.6" opacity="0.7999999999999999" /><ellipse cx="52.96" cy="53.99" rx="4.45" ry="5.85" transform="rotate(166.2 52.96 53.99)" fill="#b060e0" stroke="#7020c0" stroke-width="0.6" opacity="0.7999999999999999" /><ellipse cx="47.04" cy="53.99" rx="4.45" ry="5.85" transform="rotate(193.8 47.04 53.99)" fill="#b060e0" stroke="#7020c0" stroke-width="0.6" opacity="0.7999999999999999" /><ellipse cx="41.81" cy="51.24" rx="4.45" ry="5.85" transform="rotate(221.5 41.81 51.24)" fill="#b060e0" stroke="#7020c0" stroke-width="0.6" opacity="0.7999999999999999" /><ellipse cx="38.45" cy="46.38" rx="4.45" ry="5.85" transform="rotate(249.2 38.45 46.38)" fill="#b060e0" stroke="#7020c0" stroke-width="0.6" opacity="0.7999999999999999" /><ellipse cx="37.74" cy="40.51" rx="4.45" ry="5.85" transform="rotate(276.9 37.74 40.51)" fill="#b060e0" stroke="#7020c0" stroke-width="0.6" opacity="0.7999999999999999" /><ellipse cx="39.84" cy="34.98" rx="4.45" ry="5.85" transform="rotate(304.6 39.84 34.98)" fill="#b060e0" stroke="#7020c0" stroke-width="0.6" opacity="0.7999999999999999" /><ellipse cx="44.26" cy="31.06" rx="4.45" ry="5.85" transform="rotate(332.3 44.26 31.06)" fill="#b060e0" stroke="#7020c0" stroke-width="0.6" opacity="0.7999999999999999" /><ellipse cx="50.00" cy="22.05" rx="7.18" ry="9.45" transform="rotate(0.0 50.00 22.05)" fill="#b060e0" stroke="#7020c0" stroke-width="0.6" opacity="0.75" /><ellipse cx="56.16" cy="23.03" rx="7.18" ry="9.45" transform="rotate(18.0 56.16 23.03)" fill="#b060e0" stroke="#7020c0" stroke-width="0.6" opacity="0.75" /><ellipse cx="61.73" cy="25.86" rx="7.18" ry="9.45" transform="rotate(36.0 61.73 25.86)" fill="#b060e0" stroke="#7020c0" stroke-width="0.6" opacity="0.75" /><ellipse cx="66.14" cy="30.27" rx="7.18" ry="9.45" transform="rotate(54.0 66.14 30.27)" fill="#b060e0" stroke="#7020c0" stroke-width="0.6" opacity="0.75" /><ellipse cx="68.97" cy="35.84" rx="7.18" ry="9.45" transform="rotate(72.0 68.97 35.84)" fill="#b060e0" stroke="#7020c0" stroke-width="0.6" opacity="0.75" /><ellipse cx="69.95" cy="42.00" rx="7.18" ry="9.45" transform="rotate(90.0 69.95 42.00)" fill="#b060e0" stroke="#7020c0" stroke-width="0.6" opacity="0.75" /><ellipse cx="68.97" cy="48.16" rx="7.18" ry="9.45" transform="rotate(108.0 68.97 48.16)" fill="#b060e0" stroke="#7020c0" stroke-width="0.6" opacity="0.75" /><ellipse cx="66.14" cy="53.73" rx="7.18" ry="9.45" transform="rotate(126.0 66.14 53.73)" fill="#b060e0" stroke="#7020c0" stroke-width="0.6" opacity="0.75" /><ellipse cx="61.73" cy="58.14" rx="7.18" ry="9.45" transform="rotate(144.0 61.73 58.14)" fill="#b060e0" stroke="#7020c0" stroke-width="0.6" opacity="0.75" /><ellipse cx="56.16" cy="60.97" rx="7.18" ry="9.45" transform="rotate(162.0 56.16 60.97)" fill="#b060e0" stroke="#7020c0" stroke-width="0.6" opacity="0.75" /><ellipse cx="50.00" cy="61.95" rx="7.18" ry="9.45" transform="rotate(180.0 50.00 61.95)" fill="#b060e0" stroke="#7020c0" stroke-width="0.6" opacity="0.75" /><ellipse cx="43.84" cy="60.97" rx="7.18" ry="9.45" transform="rotate(198.0 43.84 60.97)" fill="#b060e0" stroke="#7020c0" stroke-width="0.6" opacity="0.75" /><ellipse cx="38.27" cy="58.14" rx="7.18" ry="9.45" transform="rotate(216.0 38.27 58.14)" fill="#b060e0" stroke="#7020c0" stroke-width="0.6" opacity="0.75" /><ellipse cx="33.86" cy="53.73" rx="7.18" ry="9.45" transform="rotate(234.0 33.86 53.73)" fill="#b060e0" stroke="#7020c0" stroke-width="0.6" opacity="0.75" /><ellipse cx="31.03" cy="48.16" rx="7.18" ry="9.45" transform="rotate(252.0 31.03 48.16)" fill="#b060e0" stroke="#7020c0" stroke-width="0.6" opacity="0.75" /><ellipse cx="30.05" cy="42.00" rx="7.18" ry="9.45" transform="rotate(270.0 30.05 42.00)" fill="#b060e0" stroke="#7020c0" stroke-width="0.6" opacity="0.75" /><ellipse cx="31.03" cy="35.84" rx="7.18" ry="9.45" transform="rotate(288.0 31.03 35.84)" fill="#b060e0" stroke="#7020c0" stroke-width="0.6" opacity="0.75" /><ellipse cx="33.86" cy="30.27" rx="7.18" ry="9.45" transform="rotate(306.0 33.86 30.27)" fill="#b060e0" stroke="#7020c0" stroke-width="0.6" opacity="0.75" /><ellipse cx="38.27" cy="25.86" rx="7.18" ry="9.45" transform="rotate(324.0 38.27 25.86)" fill="#b060e0" stroke="#7020c0" stroke-width="0.6" opacity="0.75" /><ellipse cx="43.84" cy="23.03" rx="7.18" ry="9.45" transform="rotate(342.0 43.84 23.03)" fill="#b060e0" stroke="#7020c0" stroke-width="0.6" opacity="0.75" /><ellipse cx="50.00" cy="14.45" rx="9.92" ry="13.05" transform="rotate(0.0 50.00 14.45)" fill="#b060e0" stroke="#7020c0" stroke-width="0.6" opacity="0.7" /><ellipse cx="56.35" cy="15.19" rx="9.92" ry="13.05" transform="rotate(13.3 56.35 15.19)" fill="#b060e0" stroke="#7020c0" stroke-width="0.6" opacity="0.7" /><ellipse cx="62.36" cy="17.38" rx="9.92" ry="13.05" transform="rotate(26.7 62.36 17.38)" fill="#b060e0" stroke="#7020c0" stroke-width="0.6" opacity="0.7" /><ellipse cx="67.71" cy="20.90" rx="9.92" ry="13.05" transform="rotate(40.0 67.71 20.90)" fill="#b060e0" stroke="#7020c0" stroke-width="0.6" opacity="0.7" /><ellipse cx="72.10" cy="25.55" rx="9.92" ry="13.05" transform="rotate(53.3 72.10 25.55)" fill="#b060e0" stroke="#7020c0" stroke-width="0.6" opacity="0.7" /><ellipse cx="75.30" cy="31.09" rx="9.92" ry="13.05" transform="rotate(66.7 75.30 31.09)" fill="#b060e0" stroke="#7020c0" stroke-width="0.6" opacity="0.7" /><ellipse cx="77.13" cy="37.22" rx="9.92" ry="13.05" transform="rotate(80.0 77.13 37.22)" fill="#b060e0" stroke="#7020c0" stroke-width="0.6" opacity="0.7" /><ellipse cx="77.50" cy="43.60" rx="9.92" ry="13.05" transform="rotate(93.3 77.50 43.60)" fill="#b060e0" stroke="#7020c0" stroke-width="0.6" opacity="0.7" /><ellipse cx="76.39" cy="49.90" rx="9.92" ry="13.05" transform="rotate(106.7 76.39 49.90)" fill="#b060e0" stroke="#7020c0" stroke-width="0.6" opacity="0.7" /><ellipse cx="73.86" cy="55.77" rx="9.92" ry="13.05" transform="rotate(120.0 73.86 55.77)" fill="#b060e0" stroke="#7020c0" stroke-width="0.6" opacity="0.7" /><ellipse cx="70.04" cy="60.91" rx="9.92" ry="13.05" transform="rotate(133.3 70.04 60.91)" fill="#b060e0" stroke="#7020c0" stroke-width="0.6" opacity="0.7" /><ellipse cx="65.14" cy="65.02" rx="9.92" ry="13.05" transform="rotate(146.7 65.14 65.02)" fill="#b060e0" stroke="#7020c0" stroke-width="0.6" opacity="0.7" /><ellipse cx="59.42" cy="67.89" rx="9.92" ry="13.05" transform="rotate(160.0 59.42 67.89)" fill="#b060e0" stroke="#7020c0" stroke-width="0.6" opacity="0.7" /><ellipse cx="53.20" cy="69.36" rx="9.92" ry="13.05" transform="rotate(173.3 53.20 69.36)" fill="#b060e0" stroke="#7020c0" stroke-width="0.6" opacity="0.7" /><ellipse cx="46.80" cy="69.36" rx="9.92" ry="13.05" transform="rotate(186.7 46.80 69.36)" fill="#b060e0" stroke="#7020c0" stroke-width="0.6" opacity="0.7" /><ellipse cx="40.58" cy="67.89" rx="9.92" ry="13.05" transform="rotate(200.0 40.58 67.89)" fill="#b060e0" stroke="#7020c0" stroke-width="0.6" opacity="0.7" /><ellipse cx="34.86" cy="65.02" rx="9.92" ry="13.05" transform="rotate(213.3 34.86 65.02)" fill="#b060e0" stroke="#7020c0" stroke-width="0.6" opacity="0.7" /><ellipse cx="29.96" cy="60.91" rx="9.92" ry="13.05" transform="rotate(226.7 29.96 60.91)" fill="#b060e0" stroke="#7020c0" stroke-width="0.6" opacity="0.7" /><ellipse cx="26.14" cy="55.77" rx="9.92" ry="13.05" transform="rotate(240.0 26.14 55.77)" fill="#b060e0" stroke="#7020c0" stroke-width="0.6" opacity="0.7" /><ellipse cx="23.61" cy="49.90" rx="9.92" ry="13.05" transform="rotate(253.3 23.61 49.90)" fill="#b060e0" stroke="#7020c0" stroke-width="0.6" opacity="0.7" /><ellipse cx="22.50" cy="43.60" rx="9.92" ry="13.05" transform="rotate(266.7 22.50 43.60)" fill="#b060e0" stroke="#7020c0" stroke-width="0.6" opacity="0.7" /><ellipse cx="22.87" cy="37.22" rx="9.92" ry="13.05" transform="rotate(280.0 22.87 37.22)" fill="#b060e0" stroke="#7020c0" stroke-width="0.6" opacity="0.7" /><ellipse cx="24.70" cy="31.09" rx="9.92" ry="13.05" transform="rotate(293.3 24.70 31.09)" fill="#b060e0" stroke="#7020c0" stroke-width="0.6" opacity="0.7" /><ellipse cx="27.90" cy="25.55" rx="9.92" ry="13.05" transform="rotate(306.7 27.90 25.55)" fill="#b060e0" stroke="#7020c0" stroke-width="0.6" opacity="0.7" /><ellipse cx="32.29" cy="20.90" rx="9.92" ry="13.05" transform="rotate(320.0 32.29 20.90)" fill="#b060e0" stroke="#7020c0" stroke-width="0.6" opacity="0.7" /><ellipse cx="37.64" cy="17.38" rx="9.92" ry="13.05" transform="rotate(333.3 37.64 17.38)" fill="#b060e0" stroke="#7020c0" stroke-width="0.6" opacity="0.7" /><ellipse cx="43.65" cy="15.19" rx="9.92" ry="13.05" transform="rotate(346.7 43.65 15.19)" fill="#b060e0" stroke="#7020c0" stroke-width="0.6" opacity="0.7" /><circle cx="50" cy="42" r="4" fill="#b060e0" stroke="#7020c0" stroke-width="0.5"/>
</svg>