<svg id="Capa_1" enable-background="new 0 0 512.007 512.007" height="512" viewBox="0 0 512.007 512.007" width="512" xmlns="http://www.w3.org/2000/svg"><g><g><path d="m237.312 79.186c-18.823-26.089-61.816-48.149-126.05-31.89-3.735.952-6.958 3.296-9.009 6.548-39.624 62.9-26.704 121.318 5.566 144.36l136.685 26.807z" fill="#6b77e8"/></g><path d="m86.052 217.98c-30.923 7.969-68.672 41.88-73.271 111.196-.249 3.853.981 7.646 3.442 10.605 31.201 37.427 66.812 52.368 96.357 52.368l110.64-127.017z" fill="#6b77e8"/><path d="m430.628 219.005-141.855 76.128 111.24 96.797c33.281 0 68.042-18.896 95.771-52.148 2.461-2.959 3.691-6.768 3.442-10.605-4.394-66.109-39.697-100.665-68.598-110.172z" fill="#615ad3"/><path d="m409.768 53.844c-2.065-3.252-5.288-5.596-9.023-6.548-40.137-10.137-77.256-6.138-104.502 11.309l-28.726 166.406 135.527-26.25c32.989-23.042 46.553-81.65 6.724-144.917z" fill="#615ad3"/><path d="m256.004 299.733-88.652 115.474c2.637 39.565 33.706 75.971 83.086 95.731 1.787.718 3.677 1.069 5.566 1.069s3.779-.352 5.566-1.069c59.927-23.965 82.441-66.83 83.54-98.017z" fill="#6b77e8"/><path d="m345.11 412.921-89.106-113.188v212.274c1.89 0 3.779-.352 5.566-1.069 59.927-23.965 82.441-66.83 83.54-98.017z" fill="#615ad3"/><path d="m426.863 342.462c-9.17-20.801-25.737-34.775-45.454-38.35-27.92-5.054-66.636-18.472-92.402-53.73l-50.215 33.003c27.144 35.83 28.14 77.827 24.199 106.758-2.622 19.321 5.947 39.917 22.91 55.078 30.397 27.16 75.146 29.542 114.844 19.497 3.735-.952 6.958-3.296 9.009-6.548 25.092-39.829 31.479-83.086 17.109-115.708z" fill="#6b77e8"/><path d="m495.784 172.248c-30.132-36.152-69.287-55.547-104.766-52.017-22.617 2.285-41.03 13.726-50.508 31.362v.015c-12.686 23.628-35.933 54.873-74.663 69.507l18.472 57.363c39.976-10.972 77.197.659 101.411 12.319 18.898 9.109 41.285 5.826 59.458-4.761 31.187-18.164 50.889-55.781 54.038-103.198.249-3.838-.981-7.631-3.442-10.59z" fill="#6b77e8"/><path d="m343.03 85.368c-7.646-35.288-37.339-66.64-81.46-84.291-1.787-.718-3.677-1.077-5.566-1.077s-3.779.359-5.566 1.077c-43.696 17.476-74.297 49.721-81.841 84.555-4.819 22.222.366 43.271 14.238 57.744 20.039 20.933 43.813 55.269 43.154 99.932l30.015-1.121 30-1.121c.176-43.652 23.569-77.212 43.184-97.69 13.476-14.078 18.661-35.772 13.842-58.008z" fill="#979fef"/><path d="m329.187 143.375c13.477-14.077 18.662-35.771 13.843-58.008-7.646-35.288-37.339-66.64-81.46-84.291-1.787-.717-3.677-1.076-5.566-1.076v242.187l30-1.121c.175-43.652 23.569-77.212 43.183-97.691z" fill="#6b77e8"/><path d="m273.172 283.473-50.566-32.549c-25.811 34.863-64.277 48.179-92.007 53.188-19.189 3.472-36.123 17.974-45.293 38.804-14.561 33.032-8.379 75.044 16.934 115.254 2.065 3.252 5.288 5.596 9.023 6.548 39.309 9.938 85.218 7.366 115.313-19.497 16.948-15.146 25.137-35.229 22.441-55.078-3.941-28.887-2.96-70.84 24.155-106.67z" fill="#979fef"/><path d="m171.497 151.593c-9.229-17.168-28.242-28.799-50.889-31.084-36.064-3.677-73.975 15.22-104.385 51.738-2.461 2.959-3.691 6.738-3.442 10.591 3.12 46.948 23.379 85.708 54.185 103.652 18.327 10.691 40.133 13.568 59.312 4.307 38.848-18.75 79.072-21.709 113.262-8.379l16.362-58.081c-44.181-12.509-70.284-46.464-84.405-72.744z" fill="#979fef"/><g><g><circle cx="256.004" cy="256.007" fill="#613d5c" r="75"/></g><g><path d="m331.004 256.007c0 41.4-33.6 75-75 75v-150c41.4 0 75 33.6 75 75z" fill="#4b2746"/></g><g><circle cx="256.004" cy="256.007" fill="#4b2746" r="45"/></g><g><path d="m301.004 256.007c0-24.853-20.147-45-45-45v90c24.853 0 45-20.147 45-45z" fill="#351b33"/></g></g></g></svg>