<svg xmlns="http://www.w3.org/2000/svg" viewBox="0 0 100 100" width="100" height="100">
<line x1="50" y1="84" x2="50" y2="124" stroke="#4a7c3f" stroke-width="1.8" stroke-linecap="round"/><ellipse cx="42.61" cy="96.54" rx="2.64" ry="5.76" transform="rotate(-38.0 42.61 96.54)" fill="#5a8a3a" opacity="0.9"/><ellipse cx="50.00" cy="21.00" rx="14.30" ry="13.00" transform="rotate(0.0 50.00 21.00)" fill="#9050d0" stroke="#5010b0" stroke-width="0.6" /><ellipse cx="73.38" cy="34.50" rx="14.30" ry="13.00" transform="rotate(60.0 73.38 34.50)" fill="#9050d0" stroke="#5010b0" stroke-width="0.6" /><ellipse cx="73.38" cy="61.50" rx="14.30" ry="13.00" transform="rotate(120.0 73.38 61.50)" fill="#9050d0" stroke="#5010b0" stroke-width="0.6" /><ellipse cx="50.00" cy="75.00" rx="14.30" ry="13.00" transform="rotate(180.0 50.00 75.00)" fill="#9050d0" stroke="#5010b0" stroke-width="0.6" /><ellipse cx="26.62" cy="61.50" rx="14.30" ry="13.00" transform="rotate(240.0 26.62 61.50)" fill="#9050d0" stroke="#5010b0" stroke-width="0.6" /><ellipse cx="26.62" cy="34.50" rx="14.30" ry="13.00" transform="rotate(300.0 26.62 34.50)" fill="#9050d0" stroke="#5010b0" stroke-width="0.6" /><circle cx="50" cy="48" r="11" fill="#1a1a2a" stroke="#000020" stroke-width="0.8"/><circle cx="57.0" cy="48.0" r="1.8" fill="#f8f8f4"/><circle cx="56.3" cy="51.0" r="1.8" fill="#f8f8f4"/><circle cx="54.5" cy="53.4" r="1.8" fill="#f8f8f4"/><circle cx="51.8" cy="54.8" r="1.8" fill="#f8f8f4"/><circle cx="48.8" cy="54.9" r="1.8" fill="#f8f8f4"/><circle cx="46.0" cy="53.7" r="1.8" fill="#f8f8f4"/><circle cx="43.9" cy="51.5" r="1.8" fill="#f8f8f4"/><circle cx="43.0" cy="48.6" r="1.8" fill="#f8f8f4"/><circle cx="43.4" cy="45.6" r="1.8" fill="#f8f8f4"/><circle cx="45.1" cy="43.1" r="1.8" fill="#f8f8f4"/><circle cx="47.6" cy="41.4" r="1.8" fill="#f8f8f4"/><circle cx="50.6" cy="41.0" r="1.8" fill="#f8f8f4"/><circle cx="53.5" cy="41.9" r="1.8" fill="#f8f8f4"/><circle cx="55.7" cy="44.0" r="1.8" fill="#f8f8f4"/><circle cx="56.9" cy="46.8" r="1.8" fill="#f8f8f4"/>
</svg>