<?xml version="1.0" encoding="UTF-8" standalone="no"?>
<!-- Created with Inkscape (http://www.inkscape.org/) -->

<svg
   version="1.1"
   id="svg93"
   xml:space="preserve"
   width="682.66669"
   height="682.66669"
   viewBox="0 0 682.66669 682.66669"
   xmlns="http://www.w3.org/2000/svg"
   xmlns:svg="http://www.w3.org/2000/svg"><defs
     id="defs97"><clipPath
       clipPathUnits="userSpaceOnUse"
       id="clipPath107"><path
         d="M 0,512 H 512 V 0 H 0 Z"
         id="path105" /></clipPath></defs><g
     id="g99"
     transform="matrix(1.3333333,0,0,-1.3333333,0,682.66667)"><g
       id="g101"><g
         id="g103"
         clip-path="url(#clipPath107)"><g
           id="g109"
           transform="translate(256,180)"><path
             d="m 0,0 -45,-90 45,-90 c 49.706,0 90,40.294 90,90 C 90,-40.294 49.706,0 0,0"
             style="fill:#ad2666;fill-opacity:1;fill-rule:nonzero;stroke:none"
             id="path111" /></g><g
           id="g113"
           transform="translate(166,90)"><path
             d="M 0,0 C 0,-49.706 40.294,-90 90,-90 V 90 C 40.294,90 0,49.706 0,0"
             style="fill:#ff1a69;fill-opacity:1;fill-rule:nonzero;stroke:none"
             id="path115" /></g><g
           id="g117"
           transform="translate(256,512)"><path
             d="m 0,0 -45,-90 45,-90 c 49.706,0 90,40.294 90,90 C 90,-40.294 49.706,0 0,0"
             style="fill:#ad2666;fill-opacity:1;fill-rule:nonzero;stroke:none"
             id="path119" /></g><g
           id="g121"
           transform="translate(166,422)"><path
             d="M 0,0 C 0,-49.706 40.294,-90 90,-90 V 90 C 40.294,90 0,49.706 0,0"
             style="fill:#ff1a69;fill-opacity:1;fill-rule:nonzero;stroke:none"
             id="path123" /></g><g
           id="g125"
           transform="translate(157.2373,416.9375)"><path
             d="M 0,0 C 43.046,-24.853 57.795,-79.896 32.942,-122.942 8.089,-165.989 -46.954,-180.737 -90,-155.884 c -43.046,24.852 -57.795,79.895 -32.942,122.942 C -98.09,10.104 -43.046,24.853 0,0"
             style="fill:#ff1a69;fill-opacity:1;fill-rule:nonzero;stroke:none"
             id="path127" /></g><g
           id="g129"
           transform="translate(67.2427,250.9375)"><path
             d="M 0,0 C 43.046,24.853 98.089,10.104 122.942,-32.942 147.795,-75.989 133.046,-131.032 90,-155.884 46.954,-180.737 -8.09,-165.989 -32.942,-122.942 -57.795,-79.896 -43.046,-24.853 0,0"
             style="fill:#ff1a69;fill-opacity:1;fill-rule:nonzero;stroke:none"
             id="path131" /></g><g
           id="g133"
           transform="translate(354.7627,95.0625)"><path
             d="M 0,0 C -43.046,24.853 -57.795,79.896 -32.942,122.942 -8.089,165.989 46.954,180.737 90,155.884 133.046,131.032 147.795,75.989 122.942,32.942 98.09,-10.104 43.046,-24.853 0,0"
             style="fill:#ad2666;fill-opacity:1;fill-rule:nonzero;stroke:none"
             id="path135" /></g><g
           id="g137"
           transform="translate(444.7573,261.0625)"><path
             d="M 0,0 C -43.046,-24.853 -98.089,-10.104 -122.942,32.942 -147.795,75.989 -133.046,131.032 -90,155.884 -46.954,180.737 8.09,165.989 32.942,122.942 57.795,79.896 43.046,24.853 0,0"
             style="fill:#ad2666;fill-opacity:1;fill-rule:nonzero;stroke:none"
             id="path139" /></g><g
           id="g141"
           transform="translate(405.3252,157.4648)"><path
             d="m 0,0 c -7.241,12.542 -17.372,22.364 -29.059,29.149 v 21.635 h -150.266 l 30,-91.071 c 0.033,-13.513 3.473,-27.197 10.715,-39.74 13.592,-23.543 37.344,-37.547 62.521,-39.712 15.441,-11.648 36.958,-13.659 54.764,-3.378 C -3.519,-112.837 5.498,-93.198 3.131,-74 13.844,-51.115 13.593,-23.543 0,0"
             style="fill:#ff1a69;fill-opacity:1;fill-rule:nonzero;stroke:none"
             id="path143" /></g><g
           id="g145"
           transform="translate(408.4561,428.6357)"><path
             d="m 0,0 c 2.367,19.197 -6.65,38.836 -24.456,49.117 -17.806,10.28 -39.323,8.27 -54.764,-3.379 -25.176,-2.165 -48.928,-16.169 -62.521,-39.712 -7.241,-12.542 -10.682,-26.226 -10.715,-39.74 l -30,-91.071 h 150.267 v 21.635 c 11.686,6.786 21.817,16.608 29.058,29.15 C 10.462,-50.457 10.713,-22.885 0,0"
             style="fill:#ff1a69;fill-opacity:1;fill-rule:nonzero;stroke:none"
             id="path147" /></g><g
           id="g149"
           transform="translate(245.2852,434.6621)"><path
             d="m 0,0 c -13.593,23.543 -37.345,37.547 -62.521,39.712 -15.441,11.648 -36.958,13.659 -54.764,3.378 -17.806,-10.28 -26.823,-29.919 -24.456,-49.116 -10.714,-22.886 -10.462,-50.457 3.131,-74.001 7.241,-12.542 17.372,-22.364 29.058,-29.149 v -21.635 H 10.715 V -39.74 C 10.682,-26.227 7.241,-12.542 0,0"
             style="fill:#ff4377;fill-opacity:1;fill-rule:nonzero;stroke:none"
             id="path151" /></g><g
           id="g153"
           transform="translate(256,208.249)"><path
             d="m 0,0 h -120.267 v -21.635 c -11.686,-6.785 -21.816,-16.607 -29.058,-29.149 -13.593,-23.544 -13.844,-51.115 -3.131,-74.001 -2.367,-19.197 6.65,-38.836 24.456,-49.116 17.806,-10.281 39.323,-8.27 54.765,3.378 25.175,2.165 48.927,16.169 62.52,39.712 7.241,12.542 10.682,26.227 10.715,39.74 z"
             style="fill:#ff4377;fill-opacity:1;fill-rule:nonzero;stroke:none"
             id="path155" /></g><g
           id="g157"
           transform="translate(481.6919,301.7881)"><path
             d="m 0,0 c -14.463,20.721 -38.466,34.289 -65.652,34.289 -14.483,0 -28.054,-3.863 -39.773,-10.591 L -142.898,2.063 v -95.602 l 37.473,-21.635 c 11.719,-6.728 25.29,-10.591 39.773,-10.591 27.186,0 51.189,13.568 65.652,34.289 17.809,7.549 30.308,25.177 30.308,45.738 C 30.308,-25.177 17.809,-7.548 0,0"
             style="fill:#ff4377;fill-opacity:1;fill-rule:nonzero;stroke:none"
             id="path159" /></g><g
           id="g161"
           transform="translate(135.7334,325.4863)"><path
             d="m 0,0 c -11.719,6.728 -25.291,10.59 -39.773,10.59 -27.186,0 -51.189,-13.568 -65.652,-34.288 -17.809,-7.549 -30.308,-25.177 -30.308,-45.738 0,-20.561 12.499,-38.189 30.308,-45.738 14.463,-20.721 38.466,-34.289 65.652,-34.289 14.482,0 28.054,3.863 39.773,10.591 l 37.473,21.635 v 95.602 z"
             style="fill:#ff6992;fill-opacity:1;fill-rule:nonzero;stroke:none"
             id="path163" /></g><g
           id="g165"
           transform="translate(256,361)"><path
             d="M 0,0 -52.5,-105 0,-210 c 57.99,0 105,47.01 105,105 C 105,-47.01 57.99,0 0,0"
             style="fill:#302c4c;fill-opacity:1;fill-rule:nonzero;stroke:none"
             id="path167" /></g><g
           id="g169"
           transform="translate(151,256)"><path
             d="M 0,0 C 0,-57.99 47.01,-105 105,-105 V 105 C 47.01,105 0,57.99 0,0"
             style="fill:#5b3364;fill-opacity:1;fill-rule:nonzero;stroke:none"
             id="path171" /></g><g
           id="g173"
           transform="translate(256,301)"><path
             d="M 0,0 -22.5,-45 0,-90 c 24.853,0 45,20.147 45,45 C 45,-20.147 24.853,0 0,0"
             style="fill:#052433;fill-opacity:1;fill-rule:nonzero;stroke:none"
             id="path175" /></g><g
           id="g177"
           transform="translate(211,256)"><path
             d="M 0,0 C 0,-24.853 20.147,-45 45,-45 V 45 C 20.147,45 0,24.853 0,0"
             style="fill:#302c4c;fill-opacity:1;fill-rule:nonzero;stroke:none"
             id="path179" /></g></g></g></g></svg>
