<svg xmlns="http://www.w3.org/2000/svg" viewBox="0 0 100 100" width="100" height="100">
<line x1="50" y1="76" x2="50" y2="95" stroke="#3a7828" stroke-width="2.5" stroke-linecap="round"/><path d="M50,75 Q25,60 22,38 Q20,18 42,15 Q60,12 68,28 Q80,48 70,68 Q62,80 50,75 Z" fill="#d82020" stroke="#900808" stroke-width="0.8"/><path d="M40,28 Q36,42 38,58" stroke="white" stroke-width="1.5" fill="none" opacity="0.3" stroke-linecap="round"/><path d="M50,74 Q48,58 46,38 Q45,25 48,18" stroke="#d4c020" stroke-width="3.5" fill="none" stroke-linecap="round"/><circle cx="48.0" cy="18.0" r="1.2" fill="#f8e030" opacity="0.7"/><circle cx="47.7" cy="23.0" r="1.2" fill="#f8e030" opacity="0.7"/><circle cx="47.0" cy="28.0" r="1.2" fill="#f8e030" opacity="0.7"/><circle cx="46.0" cy="33.0" r="1.2" fill="#f8e030" opacity="0.7"/><circle cx="45.0" cy="38.0" r="1.2" fill="#f8e030" opacity="0.7"/><circle cx="44.3" cy="43.0" r="1.2" fill="#f8e030" opacity="0.7"/><circle cx="44.0" cy="48.0" r="1.2" fill="#f8e030" opacity="0.7"/><circle cx="44.3" cy="53.0" r="1.2" fill="#f8e030" opacity="0.7"/><circle cx="45.0" cy="58.0" r="1.2" fill="#f8e030" opacity="0.7"/><circle cx="46.0" cy="63.0" r="1.2" fill="#f8e030" opacity="0.7"/><circle cx="47.0" cy="68.0" r="1.2" fill="#f8e030" opacity="0.7"/><circle cx="47.7" cy="73.0" r="1.2" fill="#f8e030" opacity="0.7"/>
</svg>