<svg xmlns="http://www.w3.org/2000/svg" viewBox="0 0 100 100" width="100" height="100">
<path d="M50,95 Q45,78 40,65 Q32,52 25,42" stroke="#6a8040" stroke-width="1.2" fill="none"/><path d="M50,95 Q50,78 50,65 Q50,52 50,38" stroke="#6a8040" stroke-width="1.2" fill="none"/><path d="M50,95 Q55,78 60,65 Q68,52 75,42" stroke="#6a8040" stroke-width="1.2" fill="none"/><ellipse cx="25.00" cy="36.50" rx="1.65" ry="1.50" transform="rotate(0.0 25.00 36.50)" fill="#f8f8f4" stroke="#d8d0c8" stroke-width="0.6" /><ellipse cx="28.33" cy="38.92" rx="1.65" ry="1.50" transform="rotate(72.0 28.33 38.92)" fill="#f8f8f4" stroke="#d8d0c8" stroke-width="0.6" /><ellipse cx="27.06" cy="42.83" rx="1.65" ry="1.50" transform="rotate(144.0 27.06 42.83)" fill="#f8f8f4" stroke="#d8d0c8" stroke-width="0.6" /><ellipse cx="22.94" cy="42.83" rx="1.65" ry="1.50" transform="rotate(216.0 22.94 42.83)" fill="#f8f8f4" stroke="#d8d0c8" stroke-width="0.6" /><ellipse cx="21.67" cy="38.92" rx="1.65" ry="1.50" transform="rotate(288.0 21.67 38.92)" fill="#f8f8f4" stroke="#d8d0c8" stroke-width="0.6" /><circle cx="25" cy="40" r="1.5" fill="#f8e8e8" stroke="#d8c8c0" stroke-width="0.3"/><ellipse cx="32.00" cy="24.50" rx="1.65" ry="1.50" transform="rotate(0.0 32.00 24.50)" fill="#f8f8f4" stroke="#d8d0c8" stroke-width="0.6" /><ellipse cx="35.33" cy="26.92" rx="1.65" ry="1.50" transform="rotate(72.0 35.33 26.92)" fill="#f8f8f4" stroke="#d8d0c8" stroke-width="0.6" /><ellipse cx="34.06" cy="30.83" rx="1.65" ry="1.50" transform="rotate(144.0 34.06 30.83)" fill="#f8f8f4" stroke="#d8d0c8" stroke-width="0.6" /><ellipse cx="29.94" cy="30.83" rx="1.65" ry="1.50" transform="rotate(216.0 29.94 30.83)" fill="#f8f8f4" stroke="#d8d0c8" stroke-width="0.6" /><ellipse cx="28.67" cy="26.92" rx="1.65" ry="1.50" transform="rotate(288.0 28.67 26.92)" fill="#f8f8f4" stroke="#d8d0c8" stroke-width="0.6" /><circle cx="32" cy="28" r="1.5" fill="#f8e8e8" stroke="#d8c8c0" stroke-width="0.3"/><ellipse cx="40.00" cy="18.50" rx="1.65" ry="1.50" transform="rotate(0.0 40.00 18.50)" fill="#f8f8f4" stroke="#d8d0c8" stroke-width="0.6" /><ellipse cx="43.33" cy="20.92" rx="1.65" ry="1.50" transform="rotate(72.0 43.33 20.92)" fill="#f8f8f4" stroke="#d8d0c8" stroke-width="0.6" /><ellipse cx="42.06" cy="24.83" rx="1.65" ry="1.50" transform="rotate(144.0 42.06 24.83)" fill="#f8f8f4" stroke="#d8d0c8" stroke-width="0.6" /><ellipse cx="37.94" cy="24.83" rx="1.65" ry="1.50" transform="rotate(216.0 37.94 24.83)" fill="#f8f8f4" stroke="#d8d0c8" stroke-width="0.6" /><ellipse cx="36.67" cy="20.92" rx="1.65" ry="1.50" transform="rotate(288.0 36.67 20.92)" fill="#f8f8f4" stroke="#d8d0c8" stroke-width="0.6" /><circle cx="40" cy="22" r="1.5" fill="#f8e8e8" stroke="#d8c8c0" stroke-width="0.3"/><ellipse cx="50.00" cy="32.50" rx="1.65" ry="1.50" transform="rotate(0.0 50.00 32.50)" fill="#f8f8f4" stroke="#d8d0c8" stroke-width="0.6" /><ellipse cx="53.33" cy="34.92" rx="1.65" ry="1.50" transform="rotate(72.0 53.33 34.92)" fill="#f8f8f4" stroke="#d8d0c8" stroke-width="0.6" /><ellipse cx="52.06" cy="38.83" rx="1.65" ry="1.50" transform="rotate(144.0 52.06 38.83)" fill="#f8f8f4" stroke="#d8d0c8" stroke-width="0.6" /><ellipse cx="47.94" cy="38.83" rx="1.65" ry="1.50" transform="rotate(216.0 47.94 38.83)" fill="#f8f8f4" stroke="#d8d0c8" stroke-width="0.6" /><ellipse cx="46.67" cy="34.92" rx="1.65" ry="1.50" transform="rotate(288.0 46.67 34.92)" fill="#f8f8f4" stroke="#d8d0c8" stroke-width="0.6" /><circle cx="50" cy="36" r="1.5" fill="#f8e8e8" stroke="#d8c8c0" stroke-width="0.3"/><ellipse cx="50.00" cy="16.50" rx="1.65" ry="1.50" transform="rotate(0.0 50.00 16.50)" fill="#f8f8f4" stroke="#d8d0c8" stroke-width="0.6" /><ellipse cx="53.33" cy="18.92" rx="1.65" ry="1.50" transform="rotate(72.0 53.33 18.92)" fill="#f8f8f4" stroke="#d8d0c8" stroke-width="0.6" /><ellipse cx="52.06" cy="22.83" rx="1.65" ry="1.50" transform="rotate(144.0 52.06 22.83)" fill="#f8f8f4" stroke="#d8d0c8" stroke-width="0.6" /><ellipse cx="47.94" cy="22.83" rx="1.65" ry="1.50" transform="rotate(216.0 47.94 22.83)" fill="#f8f8f4" stroke="#d8d0c8" stroke-width="0.6" /><ellipse cx="46.67" cy="18.92" rx="1.65" ry="1.50" transform="rotate(288.0 46.67 18.92)" fill="#f8f8f4" stroke="#d8d0c8" stroke-width="0.6" /><circle cx="50" cy="20" r="1.5" fill="#f8e8e8" stroke="#d8c8c0" stroke-width="0.3"/><ellipse cx="60.00" cy="24.50" rx="1.65" ry="1.50" transform="rotate(0.0 60.00 24.50)" fill="#f8f8f4" stroke="#d8d0c8" stroke-width="0.6" /><ellipse cx="63.33" cy="26.92" rx="1.65" ry="1.50" transform="rotate(72.0 63.33 26.92)" fill="#f8f8f4" stroke="#d8d0c8" stroke-width="0.6" /><ellipse cx="62.06" cy="30.83" rx="1.65" ry="1.50" transform="rotate(144.0 62.06 30.83)" fill="#f8f8f4" stroke="#d8d0c8" stroke-width="0.6" /><ellipse cx="57.94" cy="30.83" rx="1.65" ry="1.50" transform="rotate(216.0 57.94 30.83)" fill="#f8f8f4" stroke="#d8d0c8" stroke-width="0.6" /><ellipse cx="56.67" cy="26.92" rx="1.65" ry="1.50" transform="rotate(288.0 56.67 26.92)" fill="#f8f8f4" stroke="#d8d0c8" stroke-width="0.6" /><circle cx="60" cy="28" r="1.5" fill="#f8e8e8" stroke="#d8c8c0" stroke-width="0.3"/><ellipse cx="68.00" cy="18.50" rx="1.65" ry="1.50" transform="rotate(0.0 68.00 18.50)" fill="#f8f8f4" stroke="#d8d0c8" stroke-width="0.6" /><ellipse cx="71.33" cy="20.92" rx="1.65" ry="1.50" transform="rotate(72.0 71.33 20.92)" fill="#f8f8f4" stroke="#d8d0c8" stroke-width="0.6" /><ellipse cx="70.06" cy="24.83" rx="1.65" ry="1.50" transform="rotate(144.0 70.06 24.83)" fill="#f8f8f4" stroke="#d8d0c8" stroke-width="0.6" /><ellipse cx="65.94" cy="24.83" rx="1.65" ry="1.50" transform="rotate(216.0 65.94 24.83)" fill="#f8f8f4" stroke="#d8d0c8" stroke-width="0.6" /><ellipse cx="64.67" cy="20.92" rx="1.65" ry="1.50" transform="rotate(288.0 64.67 20.92)" fill="#f8f8f4" stroke="#d8d0c8" stroke-width="0.6" /><circle cx="68" cy="22" r="1.5" fill="#f8e8e8" stroke="#d8c8c0" stroke-width="0.3"/><ellipse cx="75.00" cy="36.50" rx="1.65" ry="1.50" transform="rotate(0.0 75.00 36.50)" fill="#f8f8f4" stroke="#d8d0c8" stroke-width="0.6" /><ellipse cx="78.33" cy="38.92" rx="1.65" ry="1.50" transform="rotate(72.0 78.33 38.92)" fill="#f8f8f4" stroke="#d8d0c8" stroke-width="0.6" /><ellipse cx="77.06" cy="42.83" rx="1.65" ry="1.50" transform="rotate(144.0 77.06 42.83)" fill="#f8f8f4" stroke="#d8d0c8" stroke-width="0.6" /><ellipse cx="72.94" cy="42.83" rx="1.65" ry="1.50" transform="rotate(216.0 72.94 42.83)" fill="#f8f8f4" stroke="#d8d0c8" stroke-width="0.6" /><ellipse cx="71.67" cy="38.92" rx="1.65" ry="1.50" transform="rotate(288.0 71.67 38.92)" fill="#f8f8f4" stroke="#d8d0c8" stroke-width="0.6" /><circle cx="75" cy="40" r="1.5" fill="#f8e8e8" stroke="#d8c8c0" stroke-width="0.3"/><ellipse cx="38.00" cy="44.50" rx="1.65" ry="1.50" transform="rotate(0.0 38.00 44.50)" fill="#f8f8f4" stroke="#d8d0c8" stroke-width="0.6" /><ellipse cx="41.33" cy="46.92" rx="1.65" ry="1.50" transform="rotate(72.0 41.33 46.92)" fill="#f8f8f4" stroke="#d8d0c8" stroke-width="0.6" /><ellipse cx="40.06" cy="50.83" rx="1.65" ry="1.50" transform="rotate(144.0 40.06 50.83)" fill="#f8f8f4" stroke="#d8d0c8" stroke-width="0.6" /><ellipse cx="35.94" cy="50.83" rx="1.65" ry="1.50" transform="rotate(216.0 35.94 50.83)" fill="#f8f8f4" stroke="#d8d0c8" stroke-width="0.6" /><ellipse cx="34.67" cy="46.92" rx="1.65" ry="1.50" transform="rotate(288.0 34.67 46.92)" fill="#f8f8f4" stroke="#d8d0c8" stroke-width="0.6" /><circle cx="38" cy="48" r="1.5" fill="#f8e8e8" stroke="#d8c8c0" stroke-width="0.3"/><ellipse cx="62.00" cy="42.50" rx="1.65" ry="1.50" transform="rotate(0.0 62.00 42.50)" fill="#f8f8f4" stroke="#d8d0c8" stroke-width="0.6" /><ellipse cx="65.33" cy="44.92" rx="1.65" ry="1.50" transform="rotate(72.0 65.33 44.92)" fill="#f8f8f4" stroke="#d8d0c8" stroke-width="0.6" /><ellipse cx="64.06" cy="48.83" rx="1.65" ry="1.50" transform="rotate(144.0 64.06 48.83)" fill="#f8f8f4" stroke="#d8d0c8" stroke-width="0.6" /><ellipse cx="59.94" cy="48.83" rx="1.65" ry="1.50" transform="rotate(216.0 59.94 48.83)" fill="#f8f8f4" stroke="#d8d0c8" stroke-width="0.6" /><ellipse cx="58.67" cy="44.92" rx="1.65" ry="1.50" transform="rotate(288.0 58.67 44.92)" fill="#f8f8f4" stroke="#d8d0c8" stroke-width="0.6" /><circle cx="62" cy="46" r="1.5" fill="#f8e8e8" stroke="#d8c8c0" stroke-width="0.3"/>
</svg>