<?xml version="1.0" encoding="utf-8"?>
<svg id="svg2" viewBox="0 0 100 100" xmlns="http://www.w3.org/2000/svg" xmlns:bx="https://boxy-svg.com" width="100px" height="100px"><desc>Source: openclipart.org/detail/209545</desc><title>Demo - Cherry</title><defs><bx:export><bx:file format="svg" path="Demo - Cherry.svg"/></bx:export></defs><g id="Capa_1" transform="matrix(0.191705, 0, 0, 0.191705, 42.406834, 39.208466)"><g transform="matrix(1, 0, 0, 1, -213.68541, -198.810532)"><path d="m489.689 155.247c-29.667 9.682-62.192 18.918-93.347 17.13l-10.301-5.851-38.845-2.23c-18.446-1.059-36.649 4.622-51.219 15.985-1.531 1.194-.882 3.642 1.04 3.92l.03.004c5.819.842 11.259 2.98 15.985 6.145 0 0 7.286 2.085 9.431 4.465 3.021 3.352 3.278 9.048 5.003 13.368.002.004.002.006.002.006z" fill="#bd80e1"/><path d="m163.403 238.722 13.799-61.075c7.243-32.057 18.177-63.166 32.584-92.705l40.542-83.122c.942-1.932 3.838-1.343 3.951.803l1.761 33.446c2.597 49.331-12.474 97.973-42.509 137.193z" fill="#ffc839"/><path d="m139.426 290.714 40.103-65.059c1.371-2.722-1.817-11.676-1.817-11.676 17.343-32.985 38.634-64.046 62.6-92.607l74.128-88.342c1.382-1.646 4.049-.375 3.639 1.735l-8.182 42.144c-.026.134-.052.268-.078.402-.329 1.679-1.29 3.247-1.651 4.916-12.427 57.331-52.342 106.134-98.305 142.767z" fill="#ffdd40"/><path d="m309.875 77.02c-11.577 59.477-43.954 112.862-91.323 150.633l-79.121 63.057 34.564-68.627c1.374-2.717 2.292-5.418 3.718-8.104l61.661-48.79c30.014-23.925 54.001-54.126 70.501-88.169z" fill="#ffc839"/><path d="m115.003 277.567c9.24-6.185 14.785-16.571 14.785-27.69v-23.519c0-23.776-10.792-46.266-29.339-61.142l58.337 24.896.113 71.762z" fill="#fe5f22"/><path d="m28.415 492.095-12.345-52.127c-.723-3.066-5.16-1.907-5.817-4.986-6.549-30.662-9.854-61.938-9.854-93.309v-97.55c0-2.149 2.861-2.889 3.903-1.01l14.691 26.492 2.418 6.34c25.167 45.378 27.296 94.549 17 145.407z" fill="#e3b9f9"/><path d="m44.6 423.332 2.628 43.875-19.805 41.003-15.096-64.005c-.729-3.071-1.416-6.142-2.072-9.224l12.67-62.599c6.944-34.314 5.489-69.544-3.933-102.775l2.569 4.622c25.163 45.381 33.335 98.247 23.039 149.103z" fill="#d09df3"/><path d="m158.787 211.712-28.443-56.475c-14.929-29.642-33.244-57.454-54.577-82.879l-60.084-71.606c-1.382-1.646-4.049-.375-3.639 1.735l6.461 33.282c9.507 48.973 36.159 92.954 75.171 124.047z" fill="#ff8228"/><path d="m168.003 228.333-6.801-57.62c-3.57-30.244-10.633-59.972-21.049-88.589l-29.108-79.974c-.735-2.02-3.676-1.737-4.013.386l-4.77 30.069c-7.171 45.21 2.006 91.496 25.886 130.549z" fill="#fe5f22"/><path d="m158.9 261.874-3.452-60.449c-1.812-31.728.06-63.56 5.579-94.857l15.483-87.81c.373-2.117 3.319-2.349 4.019-.317l10.465 30.369c15.563 45.163 14.518 94.394-2.946 138.856z" fill="#ff8228"/><path d="m489.689 155.247-162.22 52.938c-2.946-7.391-8.036-13.556-14.439-17.835l73.009-23.829 11.608.666c31.16 1.791 62.372-2.259 92.042-11.94z" fill="#a06ed6"/><path d="m177.396 269.26c-3.288 0-6.346-2.092-7.421-5.387-1.338-4.099-5.151-6.285-1.052-7.623l332.446-108.744c4.099-1.337 8.508.901 9.845 5 1.338 4.099-.901 8.507-5 9.845l-326.394 106.522c-.805.262-1.621.387-2.424.387z" fill="#d09df3"/><path d="m385.448 266.674c-3.206.011-6.404-.021-9.585-.135-2.839-.102-4.31-3.426-7.147-3.583-22.47-1.241-44.864-4.187-66.986-8.834l-.002-.001c-51.39-10.797-104.692-8.217-154.8 7.492-45.343 14.215-81.902 59.759-91.268 106.325l-11.904 59.18-16.426 81.14c-.39 1.934 1.088 3.742 3.062 3.742h14.218l12.873-5.597c1.504 0 2.794-1.072 3.07-2.55l26.063-139.724c4.168-22.334 27.622-32.952 49.954-35.615 1.03-.123 2.069-.216 3.116-.277l17.454-1.025c1.286-.076 2.571-.153 3.857-.233 9.02-.561 18.525-3.123 27.522-3.904 71.193-6.183 132.373-17.839 197.663-37.067.502-6.264-.149-12.889-.734-19.334z" fill="#8ee26b"/><g fill="#85d855"><path d="m139.692 328.241c-23.747 1.395-43.475 18.781-47.837 42.143l-25.944 139.065c-.281 1.479-1.572 2.551-3.071 2.551h-18.229l26.422-141.617c4.362-23.362 24.09-40.747 47.837-42.143h20.822z"/><path d="m482.173 258.978-38.322 12.836c-92.426 30.941-188.527 49.544-285.826 55.343 67.586-11.92 134.215-31.742 199.032-59.258l11.66-4.956c34.709 1.926 69.596-.219 103.951-6.455l8.474-1.53c2.54-.457 3.477 3.208 1.031 4.02z"/></g></g></g></svg>