<svg id="Layer_1" height="512" viewBox="0 0 512 512" width="512" xmlns="http://www.w3.org/2000/svg" data-name="Layer 1"><path d="m493.52 249.45c11.65-37.23-60.77-119.76-111.37-72.91-23.6 41.53-65.13 87.05-100.54 100.95l4.73 32.6c17.98 27.14 52.46 49.21 86.99 61.58 39.18 14.04 78.43 15.57 93.7-2.19 52.88-61.51 14.83-82.81 26.49-120.03z" fill="#fced7e"/><path d="m391.49 102.47c-19.64-10.92-38.45-28.64-52.09-43.29-24.54-26.34-64.9-32.01-94.77-11.87-29.6 19.96-47.22 55.83-51.05 88.01-1.96 16.43-.32 31.89 5.14 43.79 23.21 50.58 31.08 91.3 31.08 91.3l51.81 7.08c35.41-13.9 76.94-59.42 100.54-100.95 19.09-33.58 26.44-64.56 9.34-74.07z" fill="#f8d361"/><path d="m373.33 371.67c-34.53-12.37-69.01-34.44-86.99-61.58l-67.8 29.24c3 22.11-3.81 43.83-15.52 61.91 0 0-9.47 28.62 5.71 50.08 0 0 18.75-30.32 69.56-23.17 69.45 9.79 69.59-5.53 100.77-28.2.17-11.25-1.86-21.56-5.73-28.28z" fill="#ddb957"/><path d="m379.06 399.95c-.36 24.23-10.87 52.84-35.05 59.51-35.42 9.77-34.32 24.75-97.52 13.09-19.43-3.58-31.02-11.7-37.76-21.23 0 0 18.75-30.32 69.56-23.17 69.45 9.79 69.59-5.53 100.77-28.2z" fill="#fced7e"/><path d="m198.72 179.11c-5.46-11.9-7.1-27.36-5.14-43.79-5.14-43.79-45.03-49.9-73.79-49.95-67.61-.12-21.43 48.23-69.71 67.61-37.56 15.08-36.61 32.29-16.92 97.84a52.792 52.792 0 0 0 7.91 15.91c34.95 48.09 147.19 42.49 148.67 42.41l40.06-38.73s-7.87-40.72-31.08-91.3z" fill="#fced7e"/><path d="m218.54 339.33-28.8-30.19c-1.48.08-113.72 5.68-148.67-42.41-.54.53-19.66 19.51-24.14 43.62 2.01.07 33.64 2.07 46.78 56.79 19.32 80.55 74.94 27.05 128.05 48.76a116.008 116.008 0 0 0 11.26-14.66c11.71-18.08 18.52-39.8 15.52-61.91z" fill="#f8d361"/><path d="m63.71 367.14c19.32 80.55 74.94 27.05 128.05 48.76-16.28 18.07-37.21 30.06-55.34 30.98-38.42 1.96-13.44-10.63-63.19-18.68s-35.11-50.69-52.62-87.52a48.628 48.628 0 0 1 -3.68-30.33c2.01.07 33.64 2.07 46.78 56.79z" fill="#fced7e"/><path d="m269.8 272.459a22.044 22.044 0 0 1 -18.353-16.244 479.912 479.912 0 0 0 -27.723-77.1c-5.46-11.9-7.1-27.36-5.14-43.79 3.83-32.18 21.45-68.05 51.05-88.01a70.606 70.606 0 0 1 27.43-11.033 71.653 71.653 0 0 0 -52.434 11.028c-29.6 19.96-47.22 55.83-51.05 88.01-1.96 16.43-.32 31.89 5.14 43.79 23.21 50.58 31.08 91.3 31.08 91.3l51.81 7.08c1.958-.769 3.938-1.65 5.93-2.606z" fill="#cead51"/><path d="m66.07 266.73a52.792 52.792 0 0 1 -7.91-15.91c-19.69-65.55-20.64-82.76 16.92-97.84 45.229-18.155 7.562-61.733 58.206-67.07-4.644-.384-9.2-.532-13.5-.54-67.61-.12-21.43 48.23-69.71 67.61-37.56 15.08-36.61 32.29-16.92 97.84a52.792 52.792 0 0 0 7.91 15.91c34.755 47.821 145.918 42.552 148.616 42.413-35.507-1.243-98.89-8.397-123.612-42.413z" fill="#dbca67"/><path d="m251.7 273.774-8.759-4.826c9.888-17.945 3.159-56.485 3.09-56.873l9.843-1.761c.306 1.721 7.42 42.414-4.174 63.46z" fill="#ccd3df"/><path d="m273.894 277.868-7.628-6.465c22.617-26.688 18.393-71.3 18.348-71.751l9.949-1.007c.203 2 4.668 49.328-20.669 79.223z" fill="#ccd3df"/><path d="m286.471 294-.823-9.967c24.33-2.009 44.484-12.869 44.684-12.978l4.788 8.779c-.895.489-22.233 11.985-48.649 14.166z" fill="#ccd3df"/><path d="m322.147 310.263a130.916 130.916 0 0 1 -36.841-5.054l2.818-9.6c39.623 11.639 79.924-2.514 80.326-2.659l3.387 9.409a159.825 159.825 0 0 1 -49.69 7.904z" fill="#ccd3df"/><path d="m289.126 365.461c-16.212-8.691-24.684-37.873-25.037-39.111l9.617-2.744c2.093 7.31 9.788 27.487 20.145 33.039z" fill="#ccd3df"/><path d="m261.334 390.456c-20.452-26.291-17.522-56.578-17.387-57.855l9.946 1.04c-.028.274-2.573 27.657 15.334 50.674z" fill="#ccd3df"/><path d="m157.544 349.294-7.645-6.445c21.758-25.808 47.734-24.838 48.828-24.787l-.467 9.99c-.901-.046-22.282-.623-40.716 21.242z" fill="#ccd3df"/><path d="m188.038 362.365-9.329-3.6c.373-.972 9.4-23.88 30.4-31.338l3.347 9.424c-16.614 5.899-24.342 25.319-24.418 25.514z" fill="#ccd3df"/><path d="m193.529 299.525c-17.17-26.733-41.98-24.11-42.229-24.08l-1.183-9.929c1.27-.152 31.31-3.335 51.826 28.6z" fill="#ccd3df"/><path d="m211.812 281.234c-11.508-31.11-56.388-51.612-56.84-51.815l4.1-9.119c2 .9 49.169 22.468 62.115 57.466z" fill="#ccd3df"/><g fill="#ea983f"><path d="m281.61 277.49a36.23 36.23 0 0 0 -11.52-6.86 56.907 56.907 0 0 0 -22.77-3.27 74.9 74.9 0 0 0 -33.82 10.14c-8.85 5.24-15.72 12.02-19.77 19.31a31.365 31.365 0 0 0 -3.99 12.33 24.638 24.638 0 0 0 .92 9.38 24.168 24.168 0 0 0 3.82 7.54 32.116 32.116 0 0 0 13.3 10.08 48.157 48.157 0 0 0 10.76 3.19 68.534 68.534 0 0 0 31.38-2.2 71.519 71.519 0 0 0 20.98-10.14 50.486 50.486 0 0 0 15.44-16.9 32.056 32.056 0 0 0 3.38-9.68 24.936 24.936 0 0 0 -.66-11.39 25.424 25.424 0 0 0 -7.45-11.53z"/><path d="m382.38 293.69a9.314 9.314 0 1 0 -6.36 11.13 9.089 9.089 0 0 0 6.36-11.13z"/><path d="m331.419 266.825a7.975 7.975 0 1 0 9.971 5.336 7.973 7.973 0 0 0 -9.971-5.336z"/><path d="m293.5 357.01a8.491 8.491 0 1 0 10.6 5.69 8.477 8.477 0 0 0 -10.6-5.69z"/><path d="m291.81 202.65a11.834 11.834 0 1 0 -14.78-7.93 11.826 11.826 0 0 0 14.78 7.93z"/><path d="m265.09 382.97a7.535 7.535 0 0 0 -4.83 4.39 7.432 7.432 0 0 0 -.23 5 7.558 7.558 0 1 0 5.06-9.39z"/><path d="m253.2 213.58c.26-.08.52-.17.77-.27a11.817 11.817 0 1 0 -.77.27z"/><path d="m179.71 356.76a7.953 7.953 0 1 0 9.94 5.33 7.94 7.94 0 0 0 -9.94-5.33z"/><path d="m148.31 212.62a9.8 9.8 0 1 0 12.25 6.57 9.808 9.808 0 0 0 -12.25-6.57z"/><path d="m155.73 343.06a8.812 8.812 0 1 0 2.77 4.21 8.876 8.876 0 0 0 -2.77-4.21z"/><path d="m148.01 278.78a8.178 8.178 0 1 0 -10.21-5.47 8.175 8.175 0 0 0 10.21 5.47z"/></g></svg>