<svg xmlns="http://www.w3.org/2000/svg" viewBox="0 0 100 100" width="100" height="100">
<line x1="50" y1="82" x2="50" y2="123" stroke="#4a7c3f" stroke-width="1.8" stroke-linecap="round"/><ellipse cx="42.29" cy="94.81" rx="2.64" ry="5.76" transform="rotate(-40.0 42.29 94.81)" fill="#5a8a3a" opacity="0.9"/><ellipse cx="50.00" cy="23.00" rx="12.10" ry="11.00" transform="rotate(0.0 50.00 23.00)" fill="#f8e030" stroke="#c09010" stroke-width="0.6" /><ellipse cx="73.78" cy="40.27" rx="12.10" ry="11.00" transform="rotate(72.0 73.78 40.27)" fill="#f8e030" stroke="#c09010" stroke-width="0.6" /><ellipse cx="64.69" cy="68.23" rx="12.10" ry="11.00" transform="rotate(144.0 64.69 68.23)" fill="#f8e030" stroke="#c09010" stroke-width="0.6" /><ellipse cx="35.31" cy="68.23" rx="12.10" ry="11.00" transform="rotate(216.0 35.31 68.23)" fill="#f8e030" stroke="#c09010" stroke-width="0.6" /><ellipse cx="26.22" cy="40.27" rx="12.10" ry="11.00" transform="rotate(288.0 26.22 40.27)" fill="#f8e030" stroke="#c09010" stroke-width="0.6" /><circle cx="50" cy="48" r="8" fill="#80a010" stroke="#507008" stroke-width="0.6"/><circle cx="54.0" cy="48.0" r="1.2" fill="#e8e030" opacity="0.8"/><circle cx="52.8" cy="50.8" r="1.2" fill="#e8e030" opacity="0.8"/><circle cx="50.0" cy="52.0" r="1.2" fill="#e8e030" opacity="0.8"/><circle cx="47.2" cy="50.8" r="1.2" fill="#e8e030" opacity="0.8"/><circle cx="46.0" cy="48.0" r="1.2" fill="#e8e030" opacity="0.8"/><circle cx="47.2" cy="45.2" r="1.2" fill="#e8e030" opacity="0.8"/><circle cx="50.0" cy="44.0" r="1.2" fill="#e8e030" opacity="0.8"/><circle cx="52.8" cy="45.2" r="1.2" fill="#e8e030" opacity="0.8"/>
</svg>