<svg xmlns="http://www.w3.org/2000/svg" viewBox="0 0 100 100" width="100" height="100">
<line x1="50" y1="85" x2="50" y2="20" stroke="#5a7830" stroke-width="2" stroke-linecap="round"/><path d="M48,80 Q38,65 36,48 Q38,38 42,32 Q44,38 44,52 Q44,65 48,80 Z" fill="#5a7830" opacity="0.85"/><rect x="44" y="38" width="12" height="28" rx="6" fill="#6a3a18" stroke="#4a2808" stroke-width="0.6"/><line x1="44" y1="38" x2="56" y2="38" stroke="#4a2808" stroke-width="0.4" opacity="0.4"/><line x1="44" y1="42" x2="56" y2="42" stroke="#4a2808" stroke-width="0.4" opacity="0.4"/><line x1="44" y1="46" x2="56" y2="46" stroke="#4a2808" stroke-width="0.4" opacity="0.4"/><line x1="44" y1="50" x2="56" y2="50" stroke="#4a2808" stroke-width="0.4" opacity="0.4"/><line x1="44" y1="54" x2="56" y2="54" stroke="#4a2808" stroke-width="0.4" opacity="0.4"/><line x1="44" y1="58" x2="56" y2="58" stroke="#4a2808" stroke-width="0.4" opacity="0.4"/><line x1="44" y1="62" x2="56" y2="62" stroke="#4a2808" stroke-width="0.4" opacity="0.4"/><line x1="50" y1="20" x2="50" y2="36" stroke="#6a8030" stroke-width="1.5"/>
</svg>