<svg id="icons" height="512" viewBox="0 0 60 60" width="512" xmlns="http://www.w3.org/2000/svg"><path d="m31 39.5a207.138 207.138 0 0 1 3.582-21.078l3.475-17.606a1 1 0 0 1 1.966.368l-.669 3.59-2.824 14.092c-.806 3.112-2.783 13.815-3.537 20.25z" fill="#659947"/><path d="m29 39.5a207.138 207.138 0 0 0 -3.582-21.078l-3.475-17.606a1 1 0 1 0 -1.966.368l.669 3.59 2.824 14.092c.806 3.112 2.783 13.815 3.537 20.25z" fill="#659947"/><path d="m40.25 43.81a26.033 26.033 0 0 1 8.8-8.469 2.977 2.977 0 0 1 2.65-.06c1.46.71 3.55 2.6 4.29 7.639a.876.876 0 0 1 -1.6.61 18.79 18.79 0 0 0 -3.6-4.139 1.009 1.009 0 0 0 -1.27 0 24.106 24.106 0 0 0 -7.05 10.629l-4.47 1.98z" fill="#88cc64"/><path d="m30 49c0-17.579 8.91-24.789 13.6-26.929a.768.768 0 0 1 .88 1.22 34.537 34.537 0 0 0 -7.519 14.28l-.961 14.429z" fill="#88cc64"/><path d="m50.27 26.57c-3.28 2.79-7.86 8.13-10.02 17.24a43.6 43.6 0 0 0 -1.07 6.78l-.52.62a2.239 2.239 0 0 1 -3.31.07c-.01 0-1.29-1.42-1.29-1.42.78-15.55 10.04-22.38 15.42-24.59a.77.77 0 0 1 .79 1.3z" fill="#7ab756"/><path d="m34.676 18.514 2.021.379a2.057 2.057 0 0 0 2.391-1.642l1.878-10.1a2.059 2.059 0 0 0 -1.642-2.391l-2.024-.368a2.044 2.044 0 0 0 -2.391 1.642l-1.875 10.088a2.054 2.054 0 0 0 1.642 2.392z" fill="#925c4c"/><path d="m19.75 43.81a26.033 26.033 0 0 0 -8.8-8.469 2.977 2.977 0 0 0 -2.65-.06c-1.46.71-3.55 2.6-4.29 7.639a.876.876 0 0 0 1.6.61 18.79 18.79 0 0 1 3.6-4.139 1.009 1.009 0 0 1 1.27 0 24.106 24.106 0 0 1 7.05 10.629l4.47 1.98z" fill="#88cc64"/><path d="m30 49c0-17.579-8.91-24.789-13.6-26.929a.768.768 0 0 0 -.88 1.22 34.537 34.537 0 0 1 7.519 14.28l.961 14.429z" fill="#88cc64"/><path d="m9.73 26.57c3.28 2.79 7.86 8.13 10.02 17.24a43.6 43.6 0 0 1 1.07 6.78l.52.62a2.239 2.239 0 0 0 3.31.07c.01 0 1.29-1.42 1.29-1.42-.78-15.55-10.04-22.38-15.42-24.59a.77.77 0 0 0 -.79 1.3z" fill="#7ab756"/><g fill="#925c4c"><path d="m25.324 18.514-2.021.379a2.057 2.057 0 0 1 -2.391-1.642l-1.878-10.1a2.059 2.059 0 0 1 1.642-2.391l2.024-.368a2.044 2.044 0 0 1 2.391 1.642l1.878 10.088a2.054 2.054 0 0 1 -1.645 2.392z"/><path d="m59 58a1 1 0 0 1 -1 1h-56a1 1 0 0 1 -1-1 6 6 0 0 1 9.21-5.07 1.887 1.887 0 0 0 2.45-.46 7.016 7.016 0 0 1 9.1-1.38 2.005 2.005 0 0 0 2.29-.12 9.97 9.97 0 0 1 11.9 0 2.005 2.005 0 0 0 2.29.12 7.016 7.016 0 0 1 9.1 1.38 1.887 1.887 0 0 0 2.45.46 6 6 0 0 1 9.21 5.07z"/></g></svg>