<svg xmlns="http://www.w3.org/2000/svg" viewBox="-2 -10 90 130" width="100" height="100">
<line x1="50" y1="82" x2="50" y2="124" stroke="#4a7c3f" stroke-width="2" stroke-linecap="round"/><ellipse cx="42.29" cy="96.81" rx="2.64" ry="5.76" transform="rotate(-40.0 42.29 96.81)" fill="#5a8a3a" opacity="0.9"/><ellipse cx="50.00" cy="22.00" rx="5.28" ry="12.00" transform="rotate(0.0 50.00 22.00)" fill="#f8f8f0" stroke="#d8d0c0" stroke-width="0.6" /><ellipse cx="58.89" cy="23.57" rx="5.28" ry="12.00" transform="rotate(20.0 58.89 23.57)" fill="#f8f8f0" stroke="#d8d0c0" stroke-width="0.6" /><ellipse cx="66.71" cy="28.08" rx="5.28" ry="12.00" transform="rotate(40.0 66.71 28.08)" fill="#f8f8f0" stroke="#d8d0c0" stroke-width="0.6" /><ellipse cx="72.52" cy="35.00" rx="5.28" ry="12.00" transform="rotate(60.0 72.52 35.00)" fill="#f8f8f0" stroke="#d8d0c0" stroke-width="0.6" /><ellipse cx="75.61" cy="43.49" rx="5.28" ry="12.00" transform="rotate(80.0 75.61 43.49)" fill="#f8f8f0" stroke="#d8d0c0" stroke-width="0.6" /><ellipse cx="75.61" cy="52.51" rx="5.28" ry="12.00" transform="rotate(100.0 75.61 52.51)" fill="#f8f8f0" stroke="#d8d0c0" stroke-width="0.6" /><ellipse cx="72.52" cy="61.00" rx="5.28" ry="12.00" transform="rotate(120.0 72.52 61.00)" fill="#f8f8f0" stroke="#d8d0c0" stroke-width="0.6" /><ellipse cx="66.71" cy="67.92" rx="5.28" ry="12.00" transform="rotate(140.0 66.71 67.92)" fill="#f8f8f0" stroke="#d8d0c0" stroke-width="0.6" /><ellipse cx="58.89" cy="72.43" rx="5.28" ry="12.00" transform="rotate(160.0 58.89 72.43)" fill="#f8f8f0" stroke="#d8d0c0" stroke-width="0.6" /><ellipse cx="50.00" cy="74.00" rx="5.28" ry="12.00" transform="rotate(180.0 50.00 74.00)" fill="#f8f8f0" stroke="#d8d0c0" stroke-width="0.6" /><ellipse cx="41.11" cy="72.43" rx="5.28" ry="12.00" transform="rotate(200.0 41.11 72.43)" fill="#f8f8f0" stroke="#d8d0c0" stroke-width="0.6" /><ellipse cx="33.29" cy="67.92" rx="5.28" ry="12.00" transform="rotate(220.0 33.29 67.92)" fill="#f8f8f0" stroke="#d8d0c0" stroke-width="0.6" /><ellipse cx="27.48" cy="61.00" rx="5.28" ry="12.00" transform="rotate(240.0 27.48 61.00)" fill="#f8f8f0" stroke="#d8d0c0" stroke-width="0.6" /><ellipse cx="24.39" cy="52.51" rx="5.28" ry="12.00" transform="rotate(260.0 24.39 52.51)" fill="#f8f8f0" stroke="#d8d0c0" stroke-width="0.6" /><ellipse cx="24.39" cy="43.49" rx="5.28" ry="12.00" transform="rotate(280.0 24.39 43.49)" fill="#f8f8f0" stroke="#d8d0c0" stroke-width="0.6" /><ellipse cx="27.48" cy="35.00" rx="5.28" ry="12.00" transform="rotate(300.0 27.48 35.00)" fill="#f8f8f0" stroke="#d8d0c0" stroke-width="0.6" /><ellipse cx="33.29" cy="28.08" rx="5.28" ry="12.00" transform="rotate(320.0 33.29 28.08)" fill="#f8f8f0" stroke="#d8d0c0" stroke-width="0.6" /><ellipse cx="41.11" cy="23.57" rx="5.28" ry="12.00" transform="rotate(340.0 41.11 23.57)" fill="#f8f8f0" stroke="#d8d0c0" stroke-width="0.6" /><circle cx="50" cy="48" r="12" fill="#e8d020" stroke="#b09010" stroke-width="0.8"/><circle cx="55.0" cy="48.0" r="2" fill="#c8a810" opacity="0.6"/><circle cx="53.5" cy="51.5" r="2" fill="#c8a810" opacity="0.6"/><circle cx="50.0" cy="53.0" r="2" fill="#c8a810" opacity="0.6"/><circle cx="46.5" cy="51.5" r="2" fill="#c8a810" opacity="0.6"/><circle cx="45.0" cy="48.0" r="2" fill="#c8a810" opacity="0.6"/><circle cx="46.5" cy="44.5" r="2" fill="#c8a810" opacity="0.6"/><circle cx="50.0" cy="43.0" r="2" fill="#c8a810" opacity="0.6"/><circle cx="53.5" cy="44.5" r="2" fill="#c8a810" opacity="0.6"/>
</svg>