<svg xmlns="http://www.w3.org/2000/svg" viewBox="0 0 100 100" width="100" height="100">
<path d="M20,95 Q35,70 50,55 Q65,40 80,20" stroke="#8a5830" stroke-width="3" fill="none"/><path d="M50,55 Q42,45 38,32" stroke="#8a5830" stroke-width="2" fill="none"/><ellipse cx="80.00" cy="11.00" rx="5.0" ry="7.6" transform="rotate(0.0 80.00 11.00)" fill="#f8c0d0" stroke="#d07080" stroke-width="0.5"/><ellipse cx="88.56" cy="17.22" rx="5.0" ry="7.6" transform="rotate(72.0 88.56 17.22)" fill="#f8c0d0" stroke="#d07080" stroke-width="0.5"/><ellipse cx="85.29" cy="27.28" rx="5.0" ry="7.6" transform="rotate(144.0 85.29 27.28)" fill="#f8c0d0" stroke="#d07080" stroke-width="0.5"/><ellipse cx="74.71" cy="27.28" rx="5.0" ry="7.6" transform="rotate(216.0 74.71 27.28)" fill="#f8c0d0" stroke="#d07080" stroke-width="0.5"/><ellipse cx="71.44" cy="17.22" rx="5.0" ry="7.6" transform="rotate(288.0 71.44 17.22)" fill="#f8c0d0" stroke="#d07080" stroke-width="0.5"/><circle cx="80" cy="20" r="3.15" fill="#f8e0e8" stroke="#d07080" stroke-width="0.4"/><ellipse cx="65.00" cy="30.00" rx="4.4" ry="6.8" transform="rotate(0.0 65.00 30.00)" fill="#f8c0d0" stroke="#d07080" stroke-width="0.5"/><ellipse cx="72.61" cy="35.53" rx="4.4" ry="6.8" transform="rotate(72.0 72.61 35.53)" fill="#f8c0d0" stroke="#d07080" stroke-width="0.5"/><ellipse cx="69.70" cy="44.47" rx="4.4" ry="6.8" transform="rotate(144.0 69.70 44.47)" fill="#f8c0d0" stroke="#d07080" stroke-width="0.5"/><ellipse cx="60.30" cy="44.47" rx="4.4" ry="6.8" transform="rotate(216.0 60.30 44.47)" fill="#f8c0d0" stroke="#d07080" stroke-width="0.5"/><ellipse cx="57.39" cy="35.53" rx="4.4" ry="6.8" transform="rotate(288.0 57.39 35.53)" fill="#f8c0d0" stroke="#d07080" stroke-width="0.5"/><circle cx="65" cy="38" r="2.8" fill="#f8e0e8" stroke="#d07080" stroke-width="0.4"/><ellipse cx="38.00" cy="25.00" rx="3.9" ry="6.0" transform="rotate(0.0 38.00 25.00)" fill="#f8c0d0" stroke="#d07080" stroke-width="0.5"/><ellipse cx="44.66" cy="29.84" rx="3.9" ry="6.0" transform="rotate(72.0 44.66 29.84)" fill="#f8c0d0" stroke="#d07080" stroke-width="0.5"/><ellipse cx="42.11" cy="37.66" rx="3.9" ry="6.0" transform="rotate(144.0 42.11 37.66)" fill="#f8c0d0" stroke="#d07080" stroke-width="0.5"/><ellipse cx="33.89" cy="37.66" rx="3.9" ry="6.0" transform="rotate(216.0 33.89 37.66)" fill="#f8c0d0" stroke="#d07080" stroke-width="0.5"/><ellipse cx="31.34" cy="29.84" rx="3.9" ry="6.0" transform="rotate(288.0 31.34 29.84)" fill="#f8c0d0" stroke="#d07080" stroke-width="0.5"/><circle cx="38" cy="32" r="2.4499999999999997" fill="#f8e0e8" stroke="#d07080" stroke-width="0.4"/><ellipse cx="50.00" cy="48.00" rx="3.9" ry="6.0" transform="rotate(0.0 50.00 48.00)" fill="#f8c0d0" stroke="#d07080" stroke-width="0.5"/><ellipse cx="56.66" cy="52.84" rx="3.9" ry="6.0" transform="rotate(72.0 56.66 52.84)" fill="#f8c0d0" stroke="#d07080" stroke-width="0.5"/><ellipse cx="54.11" cy="60.66" rx="3.9" ry="6.0" transform="rotate(144.0 54.11 60.66)" fill="#f8c0d0" stroke="#d07080" stroke-width="0.5"/><ellipse cx="45.89" cy="60.66" rx="3.9" ry="6.0" transform="rotate(216.0 45.89 60.66)" fill="#f8c0d0" stroke="#d07080" stroke-width="0.5"/><ellipse cx="43.34" cy="52.84" rx="3.9" ry="6.0" transform="rotate(288.0 43.34 52.84)" fill="#f8c0d0" stroke="#d07080" stroke-width="0.5"/><circle cx="50" cy="55" r="2.4499999999999997" fill="#f8e0e8" stroke="#d07080" stroke-width="0.4"/><ellipse cx="30.00" cy="62.00" rx="3.3" ry="5.1" transform="rotate(0.0 30.00 62.00)" fill="#f8c0d0" stroke="#d07080" stroke-width="0.5"/><ellipse cx="35.71" cy="66.15" rx="3.3" ry="5.1" transform="rotate(72.0 35.71 66.15)" fill="#f8c0d0" stroke="#d07080" stroke-width="0.5"/><ellipse cx="33.53" cy="72.85" rx="3.3" ry="5.1" transform="rotate(144.0 33.53 72.85)" fill="#f8c0d0" stroke="#d07080" stroke-width="0.5"/><ellipse cx="26.47" cy="72.85" rx="3.3" ry="5.1" transform="rotate(216.0 26.47 72.85)" fill="#f8c0d0" stroke="#d07080" stroke-width="0.5"/><ellipse cx="24.29" cy="66.15" rx="3.3" ry="5.1" transform="rotate(288.0 24.29 66.15)" fill="#f8c0d0" stroke="#d07080" stroke-width="0.5"/><circle cx="30" cy="68" r="2.0999999999999996" fill="#f8e0e8" stroke="#d07080" stroke-width="0.4"/>
</svg>