<svg xmlns="http://www.w3.org/2000/svg" viewBox="0 0 100 100" width="100" height="100">
<line x1="50" y1="84" x2="50" y2="120" stroke="#8a6040" stroke-width="2" stroke-linecap="round"/><ellipse cx="50.00" cy="24.00" rx="10" ry="16" transform="rotate(0.0 50.00 24.00)" fill="#f8c0d0" stroke="#d07080" stroke-width="0.6"/><ellipse cx="72.83" cy="40.58" rx="10" ry="16" transform="rotate(72.0 72.83 40.58)" fill="#f8c0d0" stroke="#d07080" stroke-width="0.6"/><ellipse cx="64.11" cy="67.42" rx="10" ry="16" transform="rotate(144.0 64.11 67.42)" fill="#f8c0d0" stroke="#d07080" stroke-width="0.6"/><ellipse cx="35.89" cy="67.42" rx="10" ry="16" transform="rotate(216.0 35.89 67.42)" fill="#f8c0d0" stroke="#d07080" stroke-width="0.6"/><ellipse cx="27.17" cy="40.58" rx="10" ry="16" transform="rotate(288.0 27.17 40.58)" fill="#f8c0d0" stroke="#d07080" stroke-width="0.6"/><circle cx="50" cy="48" r="6" fill="#f8e0e8" stroke="#d07080" stroke-width="0.5"/><line x1="50" y1="48" x2="59.0" y2="48.0" stroke="#d07080" stroke-width="0.7"/><circle cx="59.0" cy="48.0" r="1.5" fill="#f8d0e0"/><line x1="50" y1="48" x2="57.3" y2="53.3" stroke="#d07080" stroke-width="0.7"/><circle cx="57.3" cy="53.3" r="1.5" fill="#f8d0e0"/><line x1="50" y1="48" x2="52.8" y2="56.6" stroke="#d07080" stroke-width="0.7"/><circle cx="52.8" cy="56.6" r="1.5" fill="#f8d0e0"/><line x1="50" y1="48" x2="47.2" y2="56.6" stroke="#d07080" stroke-width="0.7"/><circle cx="47.2" cy="56.6" r="1.5" fill="#f8d0e0"/><line x1="50" y1="48" x2="42.7" y2="53.3" stroke="#d07080" stroke-width="0.7"/><circle cx="42.7" cy="53.3" r="1.5" fill="#f8d0e0"/><line x1="50" y1="48" x2="41.0" y2="48.0" stroke="#d07080" stroke-width="0.7"/><circle cx="41.0" cy="48.0" r="1.5" fill="#f8d0e0"/><line x1="50" y1="48" x2="42.7" y2="42.7" stroke="#d07080" stroke-width="0.7"/><circle cx="42.7" cy="42.7" r="1.5" fill="#f8d0e0"/><line x1="50" y1="48" x2="47.2" y2="39.4" stroke="#d07080" stroke-width="0.7"/><circle cx="47.2" cy="39.4" r="1.5" fill="#f8d0e0"/><line x1="50" y1="48" x2="52.8" y2="39.4" stroke="#d07080" stroke-width="0.7"/><circle cx="52.8" cy="39.4" r="1.5" fill="#f8d0e0"/><line x1="50" y1="48" x2="57.3" y2="42.7" stroke="#d07080" stroke-width="0.7"/><circle cx="57.3" cy="42.7" r="1.5" fill="#f8d0e0"/>
</svg>