<svg xmlns="http://www.w3.org/2000/svg" viewBox="-2 -10 90 130" width="100" height="100">
<line x1="50" y1="76" x2="50" y2="121" stroke="#4a7c3f" stroke-width="2" stroke-linecap="round"/><ellipse cx="44.00" cy="91.61" rx="2.64" ry="5.76" transform="rotate(-30.0 44.00 91.61)" fill="#4a7c3f" opacity="0.9"/><ellipse cx="56.31" cy="96.99" rx="2.42" ry="5.28" transform="rotate(35.0 56.31 96.99)" fill="#3d6a30" opacity="0.9"/><ellipse cx="50.00" cy="38.40" rx="1.96" ry="2.80" transform="rotate(0.0 50.00 38.40)" fill="#f8a0c0" stroke="#d05080" stroke-width="0.6" opacity="0.85" /><ellipse cx="55.37" cy="40.63" rx="1.96" ry="2.80" transform="rotate(45.0 55.37 40.63)" fill="#f8a0c0" stroke="#d05080" stroke-width="0.6" opacity="0.85" /><ellipse cx="57.60" cy="46.00" rx="1.96" ry="2.80" transform="rotate(90.0 57.60 46.00)" fill="#f8a0c0" stroke="#d05080" stroke-width="0.6" opacity="0.85" /><ellipse cx="55.37" cy="51.37" rx="1.96" ry="2.80" transform="rotate(135.0 55.37 51.37)" fill="#f8a0c0" stroke="#d05080" stroke-width="0.6" opacity="0.85" /><ellipse cx="50.00" cy="53.60" rx="1.96" ry="2.80" transform="rotate(180.0 50.00 53.60)" fill="#f8a0c0" stroke="#d05080" stroke-width="0.6" opacity="0.85" /><ellipse cx="44.63" cy="51.37" rx="1.96" ry="2.80" transform="rotate(225.0 44.63 51.37)" fill="#f8a0c0" stroke="#d05080" stroke-width="0.6" opacity="0.85" /><ellipse cx="42.40" cy="46.00" rx="1.96" ry="2.80" transform="rotate(270.0 42.40 46.00)" fill="#f8a0c0" stroke="#d05080" stroke-width="0.6" opacity="0.85" /><ellipse cx="44.63" cy="40.63" rx="1.96" ry="2.80" transform="rotate(315.0 44.63 40.63)" fill="#f8a0c0" stroke="#d05080" stroke-width="0.6" opacity="0.85" /><ellipse cx="50.00" cy="30.80" rx="3.92" ry="5.60" transform="rotate(0.0 50.00 30.80)" fill="#f8a0c0" stroke="#d05080" stroke-width="0.6" opacity="0.85" /><ellipse cx="56.60" cy="32.31" rx="3.92" ry="5.60" transform="rotate(25.7 56.60 32.31)" fill="#f8a0c0" stroke="#d05080" stroke-width="0.6" opacity="0.85" /><ellipse cx="61.88" cy="36.52" rx="3.92" ry="5.60" transform="rotate(51.4 61.88 36.52)" fill="#f8a0c0" stroke="#d05080" stroke-width="0.6" opacity="0.85" /><ellipse cx="64.82" cy="42.62" rx="3.92" ry="5.60" transform="rotate(77.1 64.82 42.62)" fill="#f8a0c0" stroke="#d05080" stroke-width="0.6" opacity="0.85" /><ellipse cx="64.82" cy="49.38" rx="3.92" ry="5.60" transform="rotate(102.9 64.82 49.38)" fill="#f8a0c0" stroke="#d05080" stroke-width="0.6" opacity="0.85" /><ellipse cx="61.88" cy="55.48" rx="3.92" ry="5.60" transform="rotate(128.6 61.88 55.48)" fill="#f8a0c0" stroke="#d05080" stroke-width="0.6" opacity="0.85" /><ellipse cx="56.60" cy="59.69" rx="3.92" ry="5.60" transform="rotate(154.3 56.60 59.69)" fill="#f8a0c0" stroke="#d05080" stroke-width="0.6" opacity="0.85" /><ellipse cx="50.00" cy="61.20" rx="3.92" ry="5.60" transform="rotate(180.0 50.00 61.20)" fill="#f8a0c0" stroke="#d05080" stroke-width="0.6" opacity="0.85" /><ellipse cx="43.40" cy="59.69" rx="3.92" ry="5.60" transform="rotate(205.7 43.40 59.69)" fill="#f8a0c0" stroke="#d05080" stroke-width="0.6" opacity="0.85" /><ellipse cx="38.12" cy="55.48" rx="3.92" ry="5.60" transform="rotate(231.4 38.12 55.48)" fill="#f8a0c0" stroke="#d05080" stroke-width="0.6" opacity="0.85" /><ellipse cx="35.18" cy="49.38" rx="3.92" ry="5.60" transform="rotate(257.1 35.18 49.38)" fill="#f8a0c0" stroke="#d05080" stroke-width="0.6" opacity="0.85" /><ellipse cx="35.18" cy="42.62" rx="3.92" ry="5.60" transform="rotate(282.9 35.18 42.62)" fill="#f8a0c0" stroke="#d05080" stroke-width="0.6" opacity="0.85" /><ellipse cx="38.12" cy="36.52" rx="3.92" ry="5.60" transform="rotate(308.6 38.12 36.52)" fill="#f8a0c0" stroke="#d05080" stroke-width="0.6" opacity="0.85" /><ellipse cx="43.40" cy="32.31" rx="3.92" ry="5.60" transform="rotate(334.3 43.40 32.31)" fill="#f8a0c0" stroke="#d05080" stroke-width="0.6" opacity="0.85" /><ellipse cx="50.00" cy="23.20" rx="5.88" ry="8.40" transform="rotate(0.0 50.00 23.20)" fill="#f8a0c0" stroke="#d05080" stroke-width="0.6" opacity="0.85" /><ellipse cx="57.05" cy="24.32" rx="5.88" ry="8.40" transform="rotate(18.0 57.05 24.32)" fill="#f8a0c0" stroke="#d05080" stroke-width="0.6" opacity="0.85" /><ellipse cx="63.40" cy="27.55" rx="5.88" ry="8.40" transform="rotate(36.0 63.40 27.55)" fill="#f8a0c0" stroke="#d05080" stroke-width="0.6" opacity="0.85" /><ellipse cx="68.45" cy="32.60" rx="5.88" ry="8.40" transform="rotate(54.0 68.45 32.60)" fill="#f8a0c0" stroke="#d05080" stroke-width="0.6" opacity="0.85" /><ellipse cx="71.68" cy="38.95" rx="5.88" ry="8.40" transform="rotate(72.0 71.68 38.95)" fill="#f8a0c0" stroke="#d05080" stroke-width="0.6" opacity="0.85" /><ellipse cx="72.80" cy="46.00" rx="5.88" ry="8.40" transform="rotate(90.0 72.80 46.00)" fill="#f8a0c0" stroke="#d05080" stroke-width="0.6" opacity="0.85" /><ellipse cx="71.68" cy="53.05" rx="5.88" ry="8.40" transform="rotate(108.0 71.68 53.05)" fill="#f8a0c0" stroke="#d05080" stroke-width="0.6" opacity="0.85" /><ellipse cx="68.45" cy="59.40" rx="5.88" ry="8.40" transform="rotate(126.0 68.45 59.40)" fill="#f8a0c0" stroke="#d05080" stroke-width="0.6" opacity="0.85" /><ellipse cx="63.40" cy="64.45" rx="5.88" ry="8.40" transform="rotate(144.0 63.40 64.45)" fill="#f8a0c0" stroke="#d05080" stroke-width="0.6" opacity="0.85" /><ellipse cx="57.05" cy="67.68" rx="5.88" ry="8.40" transform="rotate(162.0 57.05 67.68)" fill="#f8a0c0" stroke="#d05080" stroke-width="0.6" opacity="0.85" /><ellipse cx="50.00" cy="68.80" rx="5.88" ry="8.40" transform="rotate(180.0 50.00 68.80)" fill="#f8a0c0" stroke="#d05080" stroke-width="0.6" opacity="0.85" /><ellipse cx="42.95" cy="67.68" rx="5.88" ry="8.40" transform="rotate(198.0 42.95 67.68)" fill="#f8a0c0" stroke="#d05080" stroke-width="0.6" opacity="0.85" /><ellipse cx="36.60" cy="64.45" rx="5.88" ry="8.40" transform="rotate(216.0 36.60 64.45)" fill="#f8a0c0" stroke="#d05080" stroke-width="0.6" opacity="0.85" /><ellipse cx="31.55" cy="59.40" rx="5.88" ry="8.40" transform="rotate(234.0 31.55 59.40)" fill="#f8a0c0" stroke="#d05080" stroke-width="0.6" opacity="0.85" /><ellipse cx="28.32" cy="53.05" rx="5.88" ry="8.40" transform="rotate(252.0 28.32 53.05)" fill="#f8a0c0" stroke="#d05080" stroke-width="0.6" opacity="0.85" /><ellipse cx="27.20" cy="46.00" rx="5.88" ry="8.40" transform="rotate(270.0 27.20 46.00)" fill="#f8a0c0" stroke="#d05080" stroke-width="0.6" opacity="0.85" /><ellipse cx="28.32" cy="38.95" rx="5.88" ry="8.40" transform="rotate(288.0 28.32 38.95)" fill="#f8a0c0" stroke="#d05080" stroke-width="0.6" opacity="0.85" /><ellipse cx="31.55" cy="32.60" rx="5.88" ry="8.40" transform="rotate(306.0 31.55 32.60)" fill="#f8a0c0" stroke="#d05080" stroke-width="0.6" opacity="0.85" /><ellipse cx="36.60" cy="27.55" rx="5.88" ry="8.40" transform="rotate(324.0 36.60 27.55)" fill="#f8a0c0" stroke="#d05080" stroke-width="0.6" opacity="0.85" /><ellipse cx="42.95" cy="24.32" rx="5.88" ry="8.40" transform="rotate(342.0 42.95 24.32)" fill="#f8a0c0" stroke="#d05080" stroke-width="0.6" opacity="0.85" /><circle cx="50" cy="46" r="5" fill="#f8a0c0" stroke="#d05080" stroke-width="0.5"/>
</svg>