<svg xmlns="http://www.w3.org/2000/svg" viewBox="0 0 100 100" width="100" height="100">
<line x1="50" y1="83" x2="50" y2="122" stroke="#4a7c3f" stroke-width="1.8" stroke-linecap="round"/><ellipse cx="42.61" cy="95.54" rx="2.64" ry="5.76" transform="rotate(-38.0 42.61 95.54)" fill="#5a8a3a" opacity="0.9"/><ellipse cx="50.00" cy="19.00" rx="5" ry="13" transform="rotate(0.0 50.00 19.00)" fill="#4878d8" stroke="#1848b0" stroke-width="0.5" opacity="0.9"/><ellipse cx="64.84" cy="23.25" rx="5" ry="13" transform="rotate(32.0 64.84 23.25)" fill="#4878d8" stroke="#1848b0" stroke-width="0.5" opacity="0.9"/><ellipse cx="75.17" cy="34.73" rx="5" ry="13" transform="rotate(64.0 75.17 34.73)" fill="#4878d8" stroke="#1848b0" stroke-width="0.5" opacity="0.9"/><ellipse cx="77.85" cy="49.93" rx="5" ry="13" transform="rotate(96.0 77.85 49.93)" fill="#4878d8" stroke="#1848b0" stroke-width="0.5" opacity="0.9"/><ellipse cx="72.06" cy="64.24" rx="5" ry="13" transform="rotate(128.0 72.06 64.24)" fill="#4878d8" stroke="#1848b0" stroke-width="0.5" opacity="0.9"/><ellipse cx="59.58" cy="73.31" rx="5" ry="13" transform="rotate(160.0 59.58 73.31)" fill="#4878d8" stroke="#1848b0" stroke-width="0.5" opacity="0.9"/><ellipse cx="44.18" cy="74.39" rx="5" ry="13" transform="rotate(192.0 44.18 74.39)" fill="#4878d8" stroke="#1848b0" stroke-width="0.5" opacity="0.9"/><ellipse cx="30.55" cy="67.14" rx="5" ry="13" transform="rotate(224.0 30.55 67.14)" fill="#4878d8" stroke="#1848b0" stroke-width="0.5" opacity="0.9"/><ellipse cx="22.83" cy="53.77" rx="5" ry="13" transform="rotate(256.0 22.83 53.77)" fill="#4878d8" stroke="#1848b0" stroke-width="0.5" opacity="0.9"/><ellipse cx="23.37" cy="38.35" rx="5" ry="13" transform="rotate(288.0 23.37 38.35)" fill="#4878d8" stroke="#1848b0" stroke-width="0.5" opacity="0.9"/><ellipse cx="32.00" cy="25.55" rx="5" ry="13" transform="rotate(320.0 32.00 25.55)" fill="#4878d8" stroke="#1848b0" stroke-width="0.5" opacity="0.9"/><ellipse cx="46.10" cy="19.27" rx="5" ry="13" transform="rotate(352.0 46.10 19.27)" fill="#4878d8" stroke="#1848b0" stroke-width="0.5" opacity="0.9"/><ellipse cx="50.00" cy="34.00" rx="4.00" ry="5.00" transform="rotate(0.0 50.00 34.00)" fill="#4878d8" stroke="#1848b0" stroke-width="0.6" /><ellipse cx="59.19" cy="37.81" rx="4.00" ry="5.00" transform="rotate(45.0 59.19 37.81)" fill="#4878d8" stroke="#1848b0" stroke-width="0.6" /><ellipse cx="63.00" cy="47.00" rx="4.00" ry="5.00" transform="rotate(90.0 63.00 47.00)" fill="#4878d8" stroke="#1848b0" stroke-width="0.6" /><ellipse cx="59.19" cy="56.19" rx="4.00" ry="5.00" transform="rotate(135.0 59.19 56.19)" fill="#4878d8" stroke="#1848b0" stroke-width="0.6" /><ellipse cx="50.00" cy="60.00" rx="4.00" ry="5.00" transform="rotate(180.0 50.00 60.00)" fill="#4878d8" stroke="#1848b0" stroke-width="0.6" /><ellipse cx="40.81" cy="56.19" rx="4.00" ry="5.00" transform="rotate(225.0 40.81 56.19)" fill="#4878d8" stroke="#1848b0" stroke-width="0.6" /><ellipse cx="37.00" cy="47.00" rx="4.00" ry="5.00" transform="rotate(270.0 37.00 47.00)" fill="#4878d8" stroke="#1848b0" stroke-width="0.6" /><ellipse cx="40.81" cy="37.81" rx="4.00" ry="5.00" transform="rotate(315.0 40.81 37.81)" fill="#4878d8" stroke="#1848b0" stroke-width="0.6" /><circle cx="50" cy="47" r="6" fill="#2040a8" stroke="#102890" stroke-width="0.6"/>
</svg>