<svg xmlns="http://www.w3.org/2000/svg" viewBox="0 0 100 100" width="100" height="100">
<line x1="50" y1="84" x2="50" y2="128" stroke="#4a7c3f" stroke-width="1.8" stroke-linecap="round"/><ellipse cx="43.23" cy="101.33" rx="2.42" ry="5.28" transform="rotate(-38.0 43.23 101.33)" fill="#5a8a3a" opacity="0.9"/><ellipse cx="50.00" cy="21.00" rx="10.40" ry="13.00" transform="rotate(0.0 50.00 21.00)" fill="#9858c8" stroke="#5820a0" stroke-width="0.6" /><ellipse cx="69.09" cy="28.91" rx="10.40" ry="13.00" transform="rotate(45.0 69.09 28.91)" fill="#9858c8" stroke="#5820a0" stroke-width="0.6" /><ellipse cx="77.00" cy="48.00" rx="10.40" ry="13.00" transform="rotate(90.0 77.00 48.00)" fill="#9858c8" stroke="#5820a0" stroke-width="0.6" /><ellipse cx="69.09" cy="67.09" rx="10.40" ry="13.00" transform="rotate(135.0 69.09 67.09)" fill="#9858c8" stroke="#5820a0" stroke-width="0.6" /><ellipse cx="50.00" cy="75.00" rx="10.40" ry="13.00" transform="rotate(180.0 50.00 75.00)" fill="#9858c8" stroke="#5820a0" stroke-width="0.6" /><ellipse cx="30.91" cy="67.09" rx="10.40" ry="13.00" transform="rotate(225.0 30.91 67.09)" fill="#9858c8" stroke="#5820a0" stroke-width="0.6" /><ellipse cx="23.00" cy="48.00" rx="10.40" ry="13.00" transform="rotate(270.0 23.00 48.00)" fill="#9858c8" stroke="#5820a0" stroke-width="0.6" /><ellipse cx="30.91" cy="28.91" rx="10.40" ry="13.00" transform="rotate(315.0 30.91 28.91)" fill="#9858c8" stroke="#5820a0" stroke-width="0.6" /><line x1="50.0" y1="32.0" x2="50.0" y2="9.0" stroke="#5820a0" stroke-width="0.5" opacity="0.4"/><line x1="61.3" y1="36.7" x2="77.6" y2="20.4" stroke="#5820a0" stroke-width="0.5" opacity="0.4"/><line x1="66.0" y1="48.0" x2="89.0" y2="48.0" stroke="#5820a0" stroke-width="0.5" opacity="0.4"/><line x1="61.3" y1="59.3" x2="77.6" y2="75.6" stroke="#5820a0" stroke-width="0.5" opacity="0.4"/><line x1="50.0" y1="64.0" x2="50.0" y2="87.0" stroke="#5820a0" stroke-width="0.5" opacity="0.4"/><line x1="38.7" y1="59.3" x2="22.4" y2="75.6" stroke="#5820a0" stroke-width="0.5" opacity="0.4"/><line x1="34.0" y1="48.0" x2="11.0" y2="48.0" stroke="#5820a0" stroke-width="0.5" opacity="0.4"/><line x1="38.7" y1="36.7" x2="22.4" y2="20.4" stroke="#5820a0" stroke-width="0.5" opacity="0.4"/><circle cx="50" cy="48" r="8" fill="#f8e030" stroke="#b09010" stroke-width="0.7"/><circle cx="50" cy="48" r="4" fill="#f07020" stroke="#b04010" stroke-width="0.5"/>
</svg>