<svg xmlns="http://www.w3.org/2000/svg" viewBox="0 0 100 100" width="100" height="100">
<line x1="50" y1="86" x2="50" y2="120" stroke="#3d6e2a" stroke-width="2.2" stroke-linecap="round"/><ellipse cx="42.00" cy="92.76" rx="2.86" ry="6.24" transform="rotate(-38.0 42.00 92.76)" fill="#5a8a3a" opacity="0.9"/><ellipse cx="50.00" cy="12.00" rx="2.88" ry="8.00" transform="rotate(0.0 50.00 12.00)" fill="#8840c8" stroke="#300068" stroke-width="0.6" /><ellipse cx="58.80" cy="13.16" rx="2.88" ry="8.00" transform="rotate(15.0 58.80 13.16)" fill="#8840c8" stroke="#300068" stroke-width="0.6" /><ellipse cx="67.00" cy="16.56" rx="2.88" ry="8.00" transform="rotate(30.0 67.00 16.56)" fill="#8840c8" stroke="#300068" stroke-width="0.6" /><ellipse cx="74.04" cy="21.96" rx="2.88" ry="8.00" transform="rotate(45.0 74.04 21.96)" fill="#8840c8" stroke="#300068" stroke-width="0.6" /><ellipse cx="79.44" cy="29.00" rx="2.88" ry="8.00" transform="rotate(60.0 79.44 29.00)" fill="#8840c8" stroke="#300068" stroke-width="0.6" /><ellipse cx="82.84" cy="37.20" rx="2.88" ry="8.00" transform="rotate(75.0 82.84 37.20)" fill="#8840c8" stroke="#300068" stroke-width="0.6" /><ellipse cx="84.00" cy="46.00" rx="2.88" ry="8.00" transform="rotate(90.0 84.00 46.00)" fill="#8840c8" stroke="#300068" stroke-width="0.6" /><ellipse cx="82.84" cy="54.80" rx="2.88" ry="8.00" transform="rotate(105.0 82.84 54.80)" fill="#8840c8" stroke="#300068" stroke-width="0.6" /><ellipse cx="79.44" cy="63.00" rx="2.88" ry="8.00" transform="rotate(120.0 79.44 63.00)" fill="#8840c8" stroke="#300068" stroke-width="0.6" /><ellipse cx="74.04" cy="70.04" rx="2.88" ry="8.00" transform="rotate(135.0 74.04 70.04)" fill="#8840c8" stroke="#300068" stroke-width="0.6" /><ellipse cx="67.00" cy="75.44" rx="2.88" ry="8.00" transform="rotate(150.0 67.00 75.44)" fill="#8840c8" stroke="#300068" stroke-width="0.6" /><ellipse cx="58.80" cy="78.84" rx="2.88" ry="8.00" transform="rotate(165.0 58.80 78.84)" fill="#8840c8" stroke="#300068" stroke-width="0.6" /><ellipse cx="50.00" cy="80.00" rx="2.88" ry="8.00" transform="rotate(180.0 50.00 80.00)" fill="#8840c8" stroke="#300068" stroke-width="0.6" /><ellipse cx="41.20" cy="78.84" rx="2.88" ry="8.00" transform="rotate(195.0 41.20 78.84)" fill="#8840c8" stroke="#300068" stroke-width="0.6" /><ellipse cx="33.00" cy="75.44" rx="2.88" ry="8.00" transform="rotate(210.0 33.00 75.44)" fill="#8840c8" stroke="#300068" stroke-width="0.6" /><ellipse cx="25.96" cy="70.04" rx="2.88" ry="8.00" transform="rotate(225.0 25.96 70.04)" fill="#8840c8" stroke="#300068" stroke-width="0.6" /><ellipse cx="20.56" cy="63.00" rx="2.88" ry="8.00" transform="rotate(240.0 20.56 63.00)" fill="#8840c8" stroke="#300068" stroke-width="0.6" /><ellipse cx="17.16" cy="54.80" rx="2.88" ry="8.00" transform="rotate(255.0 17.16 54.80)" fill="#8840c8" stroke="#300068" stroke-width="0.6" /><ellipse cx="16.00" cy="46.00" rx="2.88" ry="8.00" transform="rotate(270.0 16.00 46.00)" fill="#8840c8" stroke="#300068" stroke-width="0.6" /><ellipse cx="17.16" cy="37.20" rx="2.88" ry="8.00" transform="rotate(285.0 17.16 37.20)" fill="#8840c8" stroke="#300068" stroke-width="0.6" /><ellipse cx="20.56" cy="29.00" rx="2.88" ry="8.00" transform="rotate(300.0 20.56 29.00)" fill="#8840c8" stroke="#300068" stroke-width="0.6" /><ellipse cx="25.96" cy="21.96" rx="2.88" ry="8.00" transform="rotate(315.0 25.96 21.96)" fill="#8840c8" stroke="#300068" stroke-width="0.6" /><ellipse cx="33.00" cy="16.56" rx="2.88" ry="8.00" transform="rotate(330.0 33.00 16.56)" fill="#8840c8" stroke="#300068" stroke-width="0.6" /><ellipse cx="41.20" cy="13.16" rx="2.88" ry="8.00" transform="rotate(345.0 41.20 13.16)" fill="#8840c8" stroke="#300068" stroke-width="0.6" /><ellipse cx="50.00" cy="20.00" rx="2.72" ry="8.00" transform="rotate(0.0 50.00 20.00)" fill="#6820a8" stroke="#300068" stroke-width="0.6" /><ellipse cx="58.03" cy="21.27" rx="2.72" ry="8.00" transform="rotate(18.0 58.03 21.27)" fill="#6820a8" stroke="#300068" stroke-width="0.6" /><ellipse cx="65.28" cy="24.97" rx="2.72" ry="8.00" transform="rotate(36.0 65.28 24.97)" fill="#6820a8" stroke="#300068" stroke-width="0.6" /><ellipse cx="71.03" cy="30.72" rx="2.72" ry="8.00" transform="rotate(54.0 71.03 30.72)" fill="#6820a8" stroke="#300068" stroke-width="0.6" /><ellipse cx="74.73" cy="37.97" rx="2.72" ry="8.00" transform="rotate(72.0 74.73 37.97)" fill="#6820a8" stroke="#300068" stroke-width="0.6" /><ellipse cx="76.00" cy="46.00" rx="2.72" ry="8.00" transform="rotate(90.0 76.00 46.00)" fill="#6820a8" stroke="#300068" stroke-width="0.6" /><ellipse cx="74.73" cy="54.03" rx="2.72" ry="8.00" transform="rotate(108.0 74.73 54.03)" fill="#6820a8" stroke="#300068" stroke-width="0.6" /><ellipse cx="71.03" cy="61.28" rx="2.72" ry="8.00" transform="rotate(126.0 71.03 61.28)" fill="#6820a8" stroke="#300068" stroke-width="0.6" /><ellipse cx="65.28" cy="67.03" rx="2.72" ry="8.00" transform="rotate(144.0 65.28 67.03)" fill="#6820a8" stroke="#300068" stroke-width="0.6" /><ellipse cx="58.03" cy="70.73" rx="2.72" ry="8.00" transform="rotate(162.0 58.03 70.73)" fill="#6820a8" stroke="#300068" stroke-width="0.6" /><ellipse cx="50.00" cy="72.00" rx="2.72" ry="8.00" transform="rotate(180.0 50.00 72.00)" fill="#6820a8" stroke="#300068" stroke-width="0.6" /><ellipse cx="41.97" cy="70.73" rx="2.72" ry="8.00" transform="rotate(198.0 41.97 70.73)" fill="#6820a8" stroke="#300068" stroke-width="0.6" /><ellipse cx="34.72" cy="67.03" rx="2.72" ry="8.00" transform="rotate(216.0 34.72 67.03)" fill="#6820a8" stroke="#300068" stroke-width="0.6" /><ellipse cx="28.97" cy="61.28" rx="2.72" ry="8.00" transform="rotate(234.0 28.97 61.28)" fill="#6820a8" stroke="#300068" stroke-width="0.6" /><ellipse cx="25.27" cy="54.03" rx="2.72" ry="8.00" transform="rotate(252.0 25.27 54.03)" fill="#6820a8" stroke="#300068" stroke-width="0.6" /><ellipse cx="24.00" cy="46.00" rx="2.72" ry="8.00" transform="rotate(270.0 24.00 46.00)" fill="#6820a8" stroke="#300068" stroke-width="0.6" /><ellipse cx="25.27" cy="37.97" rx="2.72" ry="8.00" transform="rotate(288.0 25.27 37.97)" fill="#6820a8" stroke="#300068" stroke-width="0.6" /><ellipse cx="28.97" cy="30.72" rx="2.72" ry="8.00" transform="rotate(306.0 28.97 30.72)" fill="#6820a8" stroke="#300068" stroke-width="0.6" /><ellipse cx="34.72" cy="24.97" rx="2.72" ry="8.00" transform="rotate(324.0 34.72 24.97)" fill="#6820a8" stroke="#300068" stroke-width="0.6" /><ellipse cx="41.97" cy="21.27" rx="2.72" ry="8.00" transform="rotate(342.0 41.97 21.27)" fill="#6820a8" stroke="#300068" stroke-width="0.6" /><ellipse cx="50.00" cy="28.50" rx="2.40" ry="7.50" transform="rotate(0.0 50.00 28.50)" fill="#480888" stroke="#300068" stroke-width="0.6" /><ellipse cx="56.70" cy="29.83" rx="2.40" ry="7.50" transform="rotate(22.5 56.70 29.83)" fill="#480888" stroke="#300068" stroke-width="0.6" /><ellipse cx="62.37" cy="33.63" rx="2.40" ry="7.50" transform="rotate(45.0 62.37 33.63)" fill="#480888" stroke="#300068" stroke-width="0.6" /><ellipse cx="66.17" cy="39.30" rx="2.40" ry="7.50" transform="rotate(67.5 66.17 39.30)" fill="#480888" stroke="#300068" stroke-width="0.6" /><ellipse cx="67.50" cy="46.00" rx="2.40" ry="7.50" transform="rotate(90.0 67.50 46.00)" fill="#480888" stroke="#300068" stroke-width="0.6" /><ellipse cx="66.17" cy="52.70" rx="2.40" ry="7.50" transform="rotate(112.5 66.17 52.70)" fill="#480888" stroke="#300068" stroke-width="0.6" /><ellipse cx="62.37" cy="58.37" rx="2.40" ry="7.50" transform="rotate(135.0 62.37 58.37)" fill="#480888" stroke="#300068" stroke-width="0.6" /><ellipse cx="56.70" cy="62.17" rx="2.40" ry="7.50" transform="rotate(157.5 56.70 62.17)" fill="#480888" stroke="#300068" stroke-width="0.6" /><ellipse cx="50.00" cy="63.50" rx="2.40" ry="7.50" transform="rotate(180.0 50.00 63.50)" fill="#480888" stroke="#300068" stroke-width="0.6" /><ellipse cx="43.30" cy="62.17" rx="2.40" ry="7.50" transform="rotate(202.5 43.30 62.17)" fill="#480888" stroke="#300068" stroke-width="0.6" /><ellipse cx="37.63" cy="58.37" rx="2.40" ry="7.50" transform="rotate(225.0 37.63 58.37)" fill="#480888" stroke="#300068" stroke-width="0.6" /><ellipse cx="33.83" cy="52.70" rx="2.40" ry="7.50" transform="rotate(247.5 33.83 52.70)" fill="#480888" stroke="#300068" stroke-width="0.6" /><ellipse cx="32.50" cy="46.00" rx="2.40" ry="7.50" transform="rotate(270.0 32.50 46.00)" fill="#480888" stroke="#300068" stroke-width="0.6" /><ellipse cx="33.83" cy="39.30" rx="2.40" ry="7.50" transform="rotate(292.5 33.83 39.30)" fill="#480888" stroke="#300068" stroke-width="0.6" /><ellipse cx="37.63" cy="33.63" rx="2.40" ry="7.50" transform="rotate(315.0 37.63 33.63)" fill="#480888" stroke="#300068" stroke-width="0.6" /><ellipse cx="43.30" cy="29.83" rx="2.40" ry="7.50" transform="rotate(337.5 43.30 29.83)" fill="#480888" stroke="#300068" stroke-width="0.6" /><ellipse cx="50.00" cy="36.50" rx="1.65" ry="5.50" transform="rotate(0.0 50.00 36.50)" fill="#480888" stroke="#300068" stroke-width="0.6" /><ellipse cx="55.58" cy="38.31" rx="1.65" ry="5.50" transform="rotate(36.0 55.58 38.31)" fill="#480888" stroke="#300068" stroke-width="0.6" /><ellipse cx="59.04" cy="43.06" rx="1.65" ry="5.50" transform="rotate(72.0 59.04 43.06)" fill="#480888" stroke="#300068" stroke-width="0.6" /><ellipse cx="59.04" cy="48.94" rx="1.65" ry="5.50" transform="rotate(108.0 59.04 48.94)" fill="#480888" stroke="#300068" stroke-width="0.6" /><ellipse cx="55.58" cy="53.69" rx="1.65" ry="5.50" transform="rotate(144.0 55.58 53.69)" fill="#480888" stroke="#300068" stroke-width="0.6" /><ellipse cx="50.00" cy="55.50" rx="1.65" ry="5.50" transform="rotate(180.0 50.00 55.50)" fill="#480888" stroke="#300068" stroke-width="0.6" /><ellipse cx="44.42" cy="53.69" rx="1.65" ry="5.50" transform="rotate(216.0 44.42 53.69)" fill="#480888" stroke="#300068" stroke-width="0.6" /><ellipse cx="40.96" cy="48.94" rx="1.65" ry="5.50" transform="rotate(252.0 40.96 48.94)" fill="#480888" stroke="#300068" stroke-width="0.6" /><ellipse cx="40.96" cy="43.06" rx="1.65" ry="5.50" transform="rotate(288.0 40.96 43.06)" fill="#480888" stroke="#300068" stroke-width="0.6" /><ellipse cx="44.42" cy="38.31" rx="1.65" ry="5.50" transform="rotate(324.0 44.42 38.31)" fill="#480888" stroke="#300068" stroke-width="0.6" /><circle cx="50" cy="46" r="4" fill="#480888" stroke="#300068" stroke-width="0.5"/>
</svg>