<svg xmlns="http://www.w3.org/2000/svg" viewBox="-2 -10 90 130" width="100" height="100">
<line x1="50" y1="84" x2="50" y2="128" stroke="#4a7c3f" stroke-width="2" stroke-linecap="round"/><ellipse cx="42.54" cy="99.35" rx="2.86" ry="6.24" transform="rotate(-35.0 42.54 99.35)" fill="#5a8a3a" opacity="0.9"/><line x1="50" y1="48" x2="82.0" y2="48.0" stroke="#e0dcd0" stroke-width="0.7" opacity="0.9"/><circle cx="82.0" cy="48.0" r="2.2" fill="#f8f8f0" stroke="#d0ccc0" stroke-width="0.4"/><line x1="50" y1="48" x2="80.4" y2="57.9" stroke="#e0dcd0" stroke-width="0.7" opacity="0.9"/><circle cx="80.4" cy="57.9" r="2.2" fill="#f8f8f0" stroke="#d0ccc0" stroke-width="0.4"/><line x1="50" y1="48" x2="75.9" y2="66.8" stroke="#e0dcd0" stroke-width="0.7" opacity="0.9"/><circle cx="75.9" cy="66.8" r="2.2" fill="#f8f8f0" stroke="#d0ccc0" stroke-width="0.4"/><line x1="50" y1="48" x2="68.8" y2="73.9" stroke="#e0dcd0" stroke-width="0.7" opacity="0.9"/><circle cx="68.8" cy="73.9" r="2.2" fill="#f8f8f0" stroke="#d0ccc0" stroke-width="0.4"/><line x1="50" y1="48" x2="59.9" y2="78.4" stroke="#e0dcd0" stroke-width="0.7" opacity="0.9"/><circle cx="59.9" cy="78.4" r="2.2" fill="#f8f8f0" stroke="#d0ccc0" stroke-width="0.4"/><line x1="50" y1="48" x2="50.0" y2="80.0" stroke="#e0dcd0" stroke-width="0.7" opacity="0.9"/><circle cx="50.0" cy="80.0" r="2.2" fill="#f8f8f0" stroke="#d0ccc0" stroke-width="0.4"/><line x1="50" y1="48" x2="40.1" y2="78.4" stroke="#e0dcd0" stroke-width="0.7" opacity="0.9"/><circle cx="40.1" cy="78.4" r="2.2" fill="#f8f8f0" stroke="#d0ccc0" stroke-width="0.4"/><line x1="50" y1="48" x2="31.2" y2="73.9" stroke="#e0dcd0" stroke-width="0.7" opacity="0.9"/><circle cx="31.2" cy="73.9" r="2.2" fill="#f8f8f0" stroke="#d0ccc0" stroke-width="0.4"/><line x1="50" y1="48" x2="24.1" y2="66.8" stroke="#e0dcd0" stroke-width="0.7" opacity="0.9"/><circle cx="24.1" cy="66.8" r="2.2" fill="#f8f8f0" stroke="#d0ccc0" stroke-width="0.4"/><line x1="50" y1="48" x2="19.6" y2="57.9" stroke="#e0dcd0" stroke-width="0.7" opacity="0.9"/><circle cx="19.6" cy="57.9" r="2.2" fill="#f8f8f0" stroke="#d0ccc0" stroke-width="0.4"/><line x1="50" y1="48" x2="18.0" y2="48.0" stroke="#e0dcd0" stroke-width="0.7" opacity="0.9"/><circle cx="18.0" cy="48.0" r="2.2" fill="#f8f8f0" stroke="#d0ccc0" stroke-width="0.4"/><line x1="50" y1="48" x2="19.6" y2="38.1" stroke="#e0dcd0" stroke-width="0.7" opacity="0.9"/><circle cx="19.6" cy="38.1" r="2.2" fill="#f8f8f0" stroke="#d0ccc0" stroke-width="0.4"/><line x1="50" y1="48" x2="24.1" y2="29.2" stroke="#e0dcd0" stroke-width="0.7" opacity="0.9"/><circle cx="24.1" cy="29.2" r="2.2" fill="#f8f8f0" stroke="#d0ccc0" stroke-width="0.4"/><line x1="50" y1="48" x2="31.2" y2="22.1" stroke="#e0dcd0" stroke-width="0.7" opacity="0.9"/><circle cx="31.2" cy="22.1" r="2.2" fill="#f8f8f0" stroke="#d0ccc0" stroke-width="0.4"/><line x1="50" y1="48" x2="40.1" y2="17.6" stroke="#e0dcd0" stroke-width="0.7" opacity="0.9"/><circle cx="40.1" cy="17.6" r="2.2" fill="#f8f8f0" stroke="#d0ccc0" stroke-width="0.4"/><line x1="50" y1="48" x2="50.0" y2="16.0" stroke="#e0dcd0" stroke-width="0.7" opacity="0.9"/><circle cx="50.0" cy="16.0" r="2.2" fill="#f8f8f0" stroke="#d0ccc0" stroke-width="0.4"/><line x1="50" y1="48" x2="59.9" y2="17.6" stroke="#e0dcd0" stroke-width="0.7" opacity="0.9"/><circle cx="59.9" cy="17.6" r="2.2" fill="#f8f8f0" stroke="#d0ccc0" stroke-width="0.4"/><line x1="50" y1="48" x2="68.8" y2="22.1" stroke="#e0dcd0" stroke-width="0.7" opacity="0.9"/><circle cx="68.8" cy="22.1" r="2.2" fill="#f8f8f0" stroke="#d0ccc0" stroke-width="0.4"/><line x1="50" y1="48" x2="75.9" y2="29.2" stroke="#e0dcd0" stroke-width="0.7" opacity="0.9"/><circle cx="75.9" cy="29.2" r="2.2" fill="#f8f8f0" stroke="#d0ccc0" stroke-width="0.4"/><line x1="50" y1="48" x2="80.4" y2="38.1" stroke="#e0dcd0" stroke-width="0.7" opacity="0.9"/><circle cx="80.4" cy="38.1" r="2.2" fill="#f8f8f0" stroke="#d0ccc0" stroke-width="0.4"/><circle cx="50" cy="48" r="6" fill="#d8b820" stroke="#a08008" stroke-width="0.6"/>
</svg>