<svg xmlns="http://www.w3.org/2000/svg" viewBox="0 0 100 100" width="100" height="100">
<path d="M50,95 Q48,72 46,55 Q44,38 46,22" stroke="#5a8040" stroke-width="2" fill="none"/><ellipse cx="32" cy="25" rx="6.6" ry="11.0" transform="rotate(30 32 25)" fill="#7aac70" opacity="0.88"/><ellipse cx="60" cy="32" rx="7.2" ry="12.0" transform="rotate(-30 60 32)" fill="#7aac70" opacity="0.88"/><ellipse cx="32" cy="39" rx="6.6" ry="11.0" transform="rotate(30 32 39)" fill="#7aac70" opacity="0.88"/><ellipse cx="60" cy="46" rx="7.2" ry="12.0" transform="rotate(-30 60 46)" fill="#7aac70" opacity="0.88"/><ellipse cx="32" cy="53" rx="6.6" ry="11.0" transform="rotate(30 32 53)" fill="#7aac70" opacity="0.88"/><ellipse cx="60" cy="60" rx="6.0" ry="10.0" transform="rotate(-30 60 60)" fill="#7aac70" opacity="0.88"/><ellipse cx="32" cy="68" rx="5.4" ry="9.0" transform="rotate(30 32 68)" fill="#7aac70" opacity="0.88"/><ellipse cx="60" cy="75" rx="5.4" ry="9.0" transform="rotate(-30 60 75)" fill="#7aac70" opacity="0.88"/>
</svg>