<svg xmlns="http://www.w3.org/2000/svg" viewBox="0 0 100 100" width="100" height="100">
<path d="M50,92 Q48,68 44,45 Q40,24 42,12" stroke="#4a7c3f" stroke-width="2" fill="none"/><ellipse cx="34.0" cy="18" rx="3.0" ry="6.0" transform="rotate(35.0 34.0 18)" fill="#5a8c40" opacity="0.85"/><ellipse cx="50.0" cy="18" rx="3.0" ry="6.0" transform="rotate(-35.0 50.0 18)" fill="#5a8c40" opacity="0.85"/><ellipse cx="33.8" cy="27" rx="3.1" ry="6.2" transform="rotate(36.2 33.8 27)" fill="#5a8c40" opacity="0.85"/><ellipse cx="50.8" cy="27" rx="3.1" ry="6.2" transform="rotate(-36.2 50.8 27)" fill="#5a8c40" opacity="0.85"/><ellipse cx="33.5" cy="36" rx="3.2" ry="6.4" transform="rotate(37.5 33.5 36)" fill="#5a8c40" opacity="0.85"/><ellipse cx="51.5" cy="36" rx="3.2" ry="6.4" transform="rotate(-37.5 51.5 36)" fill="#5a8c40" opacity="0.85"/><ellipse cx="33.2" cy="45" rx="3.4" ry="6.6" transform="rotate(38.8 33.2 45)" fill="#5a8c40" opacity="0.85"/><ellipse cx="52.2" cy="45" rx="3.4" ry="6.6" transform="rotate(-38.8 52.2 45)" fill="#5a8c40" opacity="0.85"/><ellipse cx="33.0" cy="54" rx="3.5" ry="6.8" transform="rotate(40.0 33.0 54)" fill="#5a8c40" opacity="0.85"/><ellipse cx="53.0" cy="54" rx="3.5" ry="6.8" transform="rotate(-40.0 53.0 54)" fill="#5a8c40" opacity="0.85"/><ellipse cx="32.8" cy="63" rx="3.6" ry="6.9" transform="rotate(41.2 32.8 63)" fill="#5a8c40" opacity="0.85"/><ellipse cx="53.8" cy="63" rx="3.6" ry="6.9" transform="rotate(-41.2 53.8 63)" fill="#5a8c40" opacity="0.85"/><ellipse cx="32.5" cy="72" rx="3.8" ry="7.1" transform="rotate(42.5 32.5 72)" fill="#5a8c40" opacity="0.85"/><ellipse cx="54.5" cy="72" rx="3.8" ry="7.1" transform="rotate(-42.5 54.5 72)" fill="#5a8c40" opacity="0.85"/><ellipse cx="32.2" cy="81" rx="3.9" ry="7.3" transform="rotate(43.8 32.2 81)" fill="#5a8c40" opacity="0.85"/><ellipse cx="55.2" cy="81" rx="3.9" ry="7.3" transform="rotate(-43.8 55.2 81)" fill="#5a8c40" opacity="0.85"/>
</svg>