<svg xmlns="http://www.w3.org/2000/svg" viewBox="0 0 100 100" width="100" height="100">
<line x1="50" y1="80" x2="50" y2="95" stroke="#5a7a30" stroke-width="1.8" stroke-linecap="round"/><line x1="50" y1="80" x2="50" y2="38" stroke="#5a7a30" stroke-width="0.8"/><line x1="50" y1="80" x2="38" y2="48" stroke="#5a7a30" stroke-width="0.8"/><line x1="50" y1="80" x2="62" y2="46" stroke="#5a7a30" stroke-width="0.8"/><line x1="50" y1="80" x2="44" y2="60" stroke="#5a7a30" stroke-width="0.8"/><line x1="50" y1="80" x2="56" y2="58" stroke="#5a7a30" stroke-width="0.8"/><line x1="50" y1="80" x2="50" y2="72" stroke="#5a7a30" stroke-width="0.8"/><ellipse cx="50.00" cy="29.60" rx="4.20" ry="4.20" transform="rotate(0.0 50.00 29.60)" fill="#80b0f0" stroke="#4080d0" stroke-width="0.6" /><ellipse cx="57.99" cy="35.40" rx="4.20" ry="4.20" transform="rotate(72.0 57.99 35.40)" fill="#80b0f0" stroke="#4080d0" stroke-width="0.6" /><ellipse cx="54.94" cy="44.80" rx="4.20" ry="4.20" transform="rotate(144.0 54.94 44.80)" fill="#80b0f0" stroke="#4080d0" stroke-width="0.6" /><ellipse cx="45.06" cy="44.80" rx="4.20" ry="4.20" transform="rotate(216.0 45.06 44.80)" fill="#80b0f0" stroke="#4080d0" stroke-width="0.6" /><ellipse cx="42.01" cy="35.40" rx="4.20" ry="4.20" transform="rotate(288.0 42.01 35.40)" fill="#80b0f0" stroke="#4080d0" stroke-width="0.6" /><circle cx="50" cy="38" r="3.8500000000000005" fill="#f8e840" stroke="#c09010" stroke-width="0.5"/><ellipse cx="38.00" cy="40.80" rx="3.60" ry="3.60" transform="rotate(0.0 38.00 40.80)" fill="#80b0f0" stroke="#4080d0" stroke-width="0.6" /><ellipse cx="44.85" cy="45.78" rx="3.60" ry="3.60" transform="rotate(72.0 44.85 45.78)" fill="#80b0f0" stroke="#4080d0" stroke-width="0.6" /><ellipse cx="42.23" cy="53.82" rx="3.60" ry="3.60" transform="rotate(144.0 42.23 53.82)" fill="#80b0f0" stroke="#4080d0" stroke-width="0.6" /><ellipse cx="33.77" cy="53.82" rx="3.60" ry="3.60" transform="rotate(216.0 33.77 53.82)" fill="#80b0f0" stroke="#4080d0" stroke-width="0.6" /><ellipse cx="31.15" cy="45.78" rx="3.60" ry="3.60" transform="rotate(288.0 31.15 45.78)" fill="#80b0f0" stroke="#4080d0" stroke-width="0.6" /><circle cx="38" cy="48" r="3.3000000000000003" fill="#f8e840" stroke="#c09010" stroke-width="0.5"/><ellipse cx="62.00" cy="38.80" rx="3.60" ry="3.60" transform="rotate(0.0 62.00 38.80)" fill="#80b0f0" stroke="#4080d0" stroke-width="0.6" /><ellipse cx="68.85" cy="43.78" rx="3.60" ry="3.60" transform="rotate(72.0 68.85 43.78)" fill="#80b0f0" stroke="#4080d0" stroke-width="0.6" /><ellipse cx="66.23" cy="51.82" rx="3.60" ry="3.60" transform="rotate(144.0 66.23 51.82)" fill="#80b0f0" stroke="#4080d0" stroke-width="0.6" /><ellipse cx="57.77" cy="51.82" rx="3.60" ry="3.60" transform="rotate(216.0 57.77 51.82)" fill="#80b0f0" stroke="#4080d0" stroke-width="0.6" /><ellipse cx="55.15" cy="43.78" rx="3.60" ry="3.60" transform="rotate(288.0 55.15 43.78)" fill="#80b0f0" stroke="#4080d0" stroke-width="0.6" /><circle cx="62" cy="46" r="3.3000000000000003" fill="#f8e840" stroke="#c09010" stroke-width="0.5"/><ellipse cx="44.00" cy="52.80" rx="3.60" ry="3.60" transform="rotate(0.0 44.00 52.80)" fill="#80b0f0" stroke="#4080d0" stroke-width="0.6" /><ellipse cx="50.85" cy="57.78" rx="3.60" ry="3.60" transform="rotate(72.0 50.85 57.78)" fill="#80b0f0" stroke="#4080d0" stroke-width="0.6" /><ellipse cx="48.23" cy="65.82" rx="3.60" ry="3.60" transform="rotate(144.0 48.23 65.82)" fill="#80b0f0" stroke="#4080d0" stroke-width="0.6" /><ellipse cx="39.77" cy="65.82" rx="3.60" ry="3.60" transform="rotate(216.0 39.77 65.82)" fill="#80b0f0" stroke="#4080d0" stroke-width="0.6" /><ellipse cx="37.15" cy="57.78" rx="3.60" ry="3.60" transform="rotate(288.0 37.15 57.78)" fill="#80b0f0" stroke="#4080d0" stroke-width="0.6" /><circle cx="44" cy="60" r="3.3000000000000003" fill="#f8e840" stroke="#c09010" stroke-width="0.5"/><ellipse cx="56.00" cy="50.20" rx="3.90" ry="3.90" transform="rotate(0.0 56.00 50.20)" fill="#80b0f0" stroke="#4080d0" stroke-width="0.6" /><ellipse cx="63.42" cy="55.59" rx="3.90" ry="3.90" transform="rotate(72.0 63.42 55.59)" fill="#80b0f0" stroke="#4080d0" stroke-width="0.6" /><ellipse cx="60.58" cy="64.31" rx="3.90" ry="3.90" transform="rotate(144.0 60.58 64.31)" fill="#80b0f0" stroke="#4080d0" stroke-width="0.6" /><ellipse cx="51.42" cy="64.31" rx="3.90" ry="3.90" transform="rotate(216.0 51.42 64.31)" fill="#80b0f0" stroke="#4080d0" stroke-width="0.6" /><ellipse cx="48.58" cy="55.59" rx="3.90" ry="3.90" transform="rotate(288.0 48.58 55.59)" fill="#80b0f0" stroke="#4080d0" stroke-width="0.6" /><circle cx="56" cy="58" r="3.575" fill="#f8e840" stroke="#c09010" stroke-width="0.5"/><ellipse cx="50.00" cy="66.00" rx="3.00" ry="3.00" transform="rotate(0.0 50.00 66.00)" fill="#80b0f0" stroke="#4080d0" stroke-width="0.6" /><ellipse cx="55.71" cy="70.15" rx="3.00" ry="3.00" transform="rotate(72.0 55.71 70.15)" fill="#80b0f0" stroke="#4080d0" stroke-width="0.6" /><ellipse cx="53.53" cy="76.85" rx="3.00" ry="3.00" transform="rotate(144.0 53.53 76.85)" fill="#80b0f0" stroke="#4080d0" stroke-width="0.6" /><ellipse cx="46.47" cy="76.85" rx="3.00" ry="3.00" transform="rotate(216.0 46.47 76.85)" fill="#80b0f0" stroke="#4080d0" stroke-width="0.6" /><ellipse cx="44.29" cy="70.15" rx="3.00" ry="3.00" transform="rotate(288.0 44.29 70.15)" fill="#80b0f0" stroke="#4080d0" stroke-width="0.6" /><circle cx="50" cy="72" r="2.75" fill="#f8e840" stroke="#c09010" stroke-width="0.5"/>
</svg>