<svg xmlns="http://www.w3.org/2000/svg" viewBox="0 0 100 100" width="100" height="100">
<line x1="50" y1="90" x2="50" y2="15" stroke="#4a7c3f" stroke-width="2.2" stroke-linecap="round"/><ellipse cx="60" cy="22" rx="10" ry="8" transform="rotate(10 60 22)" fill="#f8f4f0" stroke="#c0b0a8" stroke-width="0.6" opacity="0.95"/><ellipse cx="43.45" cy="21.41" rx="1.76" ry="3.84" transform="rotate(-55.0 43.45 21.41)" fill="#4a7c3f" opacity="0.9"/><ellipse cx="60" cy="32" rx="10" ry="8" transform="rotate(10 60 32)" fill="#f8f4f0" stroke="#c0b0a8" stroke-width="0.6" opacity="0.9299999999999999"/><ellipse cx="43.45" cy="31.41" rx="1.76" ry="3.84" transform="rotate(-55.0 43.45 31.41)" fill="#4a7c3f" opacity="0.9"/><ellipse cx="60" cy="42" rx="10" ry="8" transform="rotate(10 60 42)" fill="#f8f4f0" stroke="#c0b0a8" stroke-width="0.6" opacity="0.9099999999999999"/><circle cx="56" cy="42" r="1.2" fill="#c0b0a8" opacity="0.4"/><circle cx="60" cy="42" r="1.2" fill="#c0b0a8" opacity="0.4"/><circle cx="64" cy="42" r="1.2" fill="#c0b0a8" opacity="0.4"/><ellipse cx="43.45" cy="41.41" rx="1.76" ry="3.84" transform="rotate(-55.0 43.45 41.41)" fill="#4a7c3f" opacity="0.9"/><ellipse cx="60" cy="52" rx="10" ry="8" transform="rotate(10 60 52)" fill="#f8f4f0" stroke="#c0b0a8" stroke-width="0.6" opacity="0.8899999999999999"/><circle cx="56" cy="52" r="1.2" fill="#c0b0a8" opacity="0.4"/><circle cx="60" cy="52" r="1.2" fill="#c0b0a8" opacity="0.4"/><circle cx="64" cy="52" r="1.2" fill="#c0b0a8" opacity="0.4"/><ellipse cx="43.45" cy="51.41" rx="1.76" ry="3.84" transform="rotate(-55.0 43.45 51.41)" fill="#4a7c3f" opacity="0.9"/><ellipse cx="60" cy="62" rx="10" ry="8" transform="rotate(10 60 62)" fill="#f8f4f0" stroke="#c0b0a8" stroke-width="0.6" opacity="0.87"/><circle cx="56" cy="62" r="1.2" fill="#c0b0a8" opacity="0.4"/><circle cx="60" cy="62" r="1.2" fill="#c0b0a8" opacity="0.4"/><circle cx="64" cy="62" r="1.2" fill="#c0b0a8" opacity="0.4"/><ellipse cx="43.45" cy="61.41" rx="1.76" ry="3.84" transform="rotate(-55.0 43.45 61.41)" fill="#4a7c3f" opacity="0.9"/><ellipse cx="60" cy="72" rx="10" ry="8" transform="rotate(10 60 72)" fill="#f8f4f0" stroke="#c0b0a8" stroke-width="0.6" opacity="0.85"/><circle cx="56" cy="72" r="1.2" fill="#c0b0a8" opacity="0.4"/><circle cx="60" cy="72" r="1.2" fill="#c0b0a8" opacity="0.4"/><circle cx="64" cy="72" r="1.2" fill="#c0b0a8" opacity="0.4"/><ellipse cx="43.45" cy="71.41" rx="1.76" ry="3.84" transform="rotate(-55.0 43.45 71.41)" fill="#4a7c3f" opacity="0.9"/>
</svg>