<?xml version="1.0" encoding="utf-8"?>
<svg id="svg2" viewBox="0 0 100 100" xmlns="http://www.w3.org/2000/svg" xmlns:bx="https://boxy-svg.com" width="100px" height="100px"><desc>Source: openclipart.org/detail/209545</desc><title>Demo - Cherry</title><defs><bx:export><bx:file format="svg" path="Demo - Cherry.svg"/></bx:export></defs><g id="Capa_1" transform="matrix(0.191406, 0, 0, 0.191406, 42.62355, 38.940018)"><g transform="matrix(1, 0, 0, 1, -214.84761, -198.217484)"><g><g><path d="m250.997 408.477h-95.577c-49.69 0-90.116-40.426-90.116-90.115v-71.624h30.012v20.251c0 19.282 15.688 34.97 34.971 34.97h32.399c43.179 0 78.307 35.129 78.307 78.307z" fill="#fdda45"/></g><g><path d="m271.005 325.146c0-43.179 35.129-78.307 78.307-78.307h32.399c19.283 0 34.971-15.688 34.971-34.97v-20.251h30.012v71.624c0 49.689-40.426 90.115-90.116 90.115h-95.577z" fill="#ff8d56"/></g><g><path d="m250.997 250.773h-70.055c-39.077 0-70.87-31.792-70.87-70.87v-57.272h30.012v15.062c0 12.222 9.944 22.165 22.165 22.165h20.565c32.08 0 58.18 26.1 58.18 58.18z" fill="#fdda45"/></g><g><path d="m331.15 210.757h-69.098l9.046-28.828c0-34.235 27.852-59.725 62.087-59.725h16.658c12.222 0 22.165-12.305 22.165-24.527v-11.062h30.012v53.272c0 39.078-31.792 70.87-70.87 70.87z" fill="#ff8d56"/></g><g><path d="m244.596 428.913h84.924v30.011h-84.924z" fill="#1aae96" transform="matrix(.701 -.713 .713 .701 -230.727 337.312)"/></g></g><g><path d="m240.995 111.322v400.678h15.051l11.36-172.353-11.36-228.325z" fill="#a3dd41"/><path d="m271.098 119.322-15.052-8v400.678h15.052z" fill="#1dd379"/></g><g><path d="m271.098 119.322-56.396-41.795-31.211-77.527h14.601c40.256 0 73.006 32.75 73.006 73.006z" fill="#fc6666"/></g><g><path d="m271.098 119.322h-14.601c-40.256 0-73.006-32.75-73.006-73.006v-46.316z" fill="#ff8d56"/></g></g></g></svg>