<svg xmlns="http://www.w3.org/2000/svg" viewBox="-2 -10 90 130" width="100" height="100">
<line x1="50" y1="84" x2="50" y2="123" stroke="#3a7828" stroke-width="2" stroke-linecap="round"/><ellipse cx="41.97" cy="94.53" rx="3.08" ry="6.72" transform="rotate(-35.0 41.97 94.53)" fill="#4a7830" opacity="0.9"/><ellipse cx="50.00" cy="23.00" rx="17.40" ry="15.00" transform="rotate(0.0 50.00 23.00)" fill="#d82020" stroke="#900808" stroke-width="0.6" /><ellipse cx="73.78" cy="40.27" rx="17.40" ry="15.00" transform="rotate(72.0 73.78 40.27)" fill="#d82020" stroke="#900808" stroke-width="0.6" /><ellipse cx="64.69" cy="68.23" rx="17.40" ry="15.00" transform="rotate(144.0 64.69 68.23)" fill="#d82020" stroke="#900808" stroke-width="0.6" /><ellipse cx="35.31" cy="68.23" rx="17.40" ry="15.00" transform="rotate(216.0 35.31 68.23)" fill="#d82020" stroke="#900808" stroke-width="0.6" /><ellipse cx="26.22" cy="40.27" rx="17.40" ry="15.00" transform="rotate(288.0 26.22 40.27)" fill="#d82020" stroke="#900808" stroke-width="0.6" /><circle cx="50" cy="48" r="7" fill="#d82020" stroke="#900808" stroke-width="0.5"/><line x1="50" y1="48" x2="50" y2="28" stroke="#c07030" stroke-width="3.5"/><circle cx="56.0" cy="30.0" r="2" fill="#f8e040"/><circle cx="54.6" cy="33.9" r="2" fill="#f8e040"/><circle cx="51.0" cy="35.9" r="2" fill="#f8e040"/><circle cx="47.0" cy="35.2" r="2" fill="#f8e040"/><circle cx="44.4" cy="32.1" r="2" fill="#f8e040"/><circle cx="44.4" cy="27.9" r="2" fill="#f8e040"/><circle cx="47.0" cy="24.8" r="2" fill="#f8e040"/><circle cx="51.0" cy="24.1" r="2" fill="#f8e040"/><circle cx="54.6" cy="26.1" r="2" fill="#f8e040"/>
</svg>