<svg xmlns="http://www.w3.org/2000/svg" viewBox="0 0 100 100" width="100" height="100">
<line x1="50" y1="82" x2="50" y2="121" stroke="#3d6e2a" stroke-width="2.4" stroke-linecap="round"/><ellipse cx="41.38" cy="89.97" rx="3.08" ry="6.72" transform="rotate(-38.0 41.38 89.97)" fill="#5a8a3a" opacity="0.9"/><ellipse cx="56.88" cy="98.17" rx="2.64" ry="5.76" transform="rotate(35.0 56.88 98.17)" fill="#5a8a3a" opacity="0.9"/><ellipse cx="50.00" cy="37.00" rx="4.95" ry="4.50" transform="rotate(0.0 50.00 37.00)" fill="#f8f8f4" stroke="#c0b8b0" stroke-width="0.6" /><ellipse cx="59.00" cy="46.00" rx="4.95" ry="4.50" transform="rotate(90.0 59.00 46.00)" fill="#f8f8f4" stroke="#c0b8b0" stroke-width="0.6" /><ellipse cx="50.00" cy="55.00" rx="4.95" ry="4.50" transform="rotate(180.0 50.00 55.00)" fill="#f8f8f4" stroke="#c0b8b0" stroke-width="0.6" /><ellipse cx="41.00" cy="46.00" rx="4.95" ry="4.50" transform="rotate(270.0 41.00 46.00)" fill="#f8f8f4" stroke="#c0b8b0" stroke-width="0.6" /><circle cx="50" cy="46" r="3.6" fill="#f0ece8" stroke="#c0b8b0" stroke-width="0.4"/><ellipse cx="50.00" cy="25.00" rx="4.40" ry="4.00" transform="rotate(0.0 50.00 25.00)" fill="#f8f8f4" stroke="#c0b8b0" stroke-width="0.6" /><ellipse cx="58.00" cy="33.00" rx="4.40" ry="4.00" transform="rotate(90.0 58.00 33.00)" fill="#f8f8f4" stroke="#c0b8b0" stroke-width="0.6" /><ellipse cx="50.00" cy="41.00" rx="4.40" ry="4.00" transform="rotate(180.0 50.00 41.00)" fill="#f8f8f4" stroke="#c0b8b0" stroke-width="0.6" /><ellipse cx="42.00" cy="33.00" rx="4.40" ry="4.00" transform="rotate(270.0 42.00 33.00)" fill="#f8f8f4" stroke="#c0b8b0" stroke-width="0.6" /><circle cx="50.0" cy="33.0" r="3.2" fill="#f0ece8" stroke="#c0b8b0" stroke-width="0.4"/><ellipse cx="61.26" cy="31.50" rx="4.40" ry="4.00" transform="rotate(0.0 61.26 31.50)" fill="#f8f8f4" stroke="#c0b8b0" stroke-width="0.6" /><ellipse cx="69.26" cy="39.50" rx="4.40" ry="4.00" transform="rotate(90.0 69.26 39.50)" fill="#f8f8f4" stroke="#c0b8b0" stroke-width="0.6" /><ellipse cx="61.26" cy="47.50" rx="4.40" ry="4.00" transform="rotate(180.0 61.26 47.50)" fill="#f8f8f4" stroke="#c0b8b0" stroke-width="0.6" /><ellipse cx="53.26" cy="39.50" rx="4.40" ry="4.00" transform="rotate(270.0 53.26 39.50)" fill="#f8f8f4" stroke="#c0b8b0" stroke-width="0.6" /><circle cx="61.258330249197705" cy="39.5" r="3.2" fill="#f0ece8" stroke="#c0b8b0" stroke-width="0.4"/><ellipse cx="61.26" cy="44.50" rx="4.40" ry="4.00" transform="rotate(0.0 61.26 44.50)" fill="#f8f8f4" stroke="#c0b8b0" stroke-width="0.6" /><ellipse cx="69.26" cy="52.50" rx="4.40" ry="4.00" transform="rotate(90.0 69.26 52.50)" fill="#f8f8f4" stroke="#c0b8b0" stroke-width="0.6" /><ellipse cx="61.26" cy="60.50" rx="4.40" ry="4.00" transform="rotate(180.0 61.26 60.50)" fill="#f8f8f4" stroke="#c0b8b0" stroke-width="0.6" /><ellipse cx="53.26" cy="52.50" rx="4.40" ry="4.00" transform="rotate(270.0 53.26 52.50)" fill="#f8f8f4" stroke="#c0b8b0" stroke-width="0.6" /><circle cx="61.258330249197705" cy="52.5" r="3.2" fill="#f0ece8" stroke="#c0b8b0" stroke-width="0.4"/><ellipse cx="50.00" cy="51.00" rx="4.40" ry="4.00" transform="rotate(0.0 50.00 51.00)" fill="#f8f8f4" stroke="#c0b8b0" stroke-width="0.6" /><ellipse cx="58.00" cy="59.00" rx="4.40" ry="4.00" transform="rotate(90.0 58.00 59.00)" fill="#f8f8f4" stroke="#c0b8b0" stroke-width="0.6" /><ellipse cx="50.00" cy="67.00" rx="4.40" ry="4.00" transform="rotate(180.0 50.00 67.00)" fill="#f8f8f4" stroke="#c0b8b0" stroke-width="0.6" /><ellipse cx="42.00" cy="59.00" rx="4.40" ry="4.00" transform="rotate(270.0 42.00 59.00)" fill="#f8f8f4" stroke="#c0b8b0" stroke-width="0.6" /><circle cx="50.0" cy="59.0" r="3.2" fill="#f0ece8" stroke="#c0b8b0" stroke-width="0.4"/><ellipse cx="38.74" cy="44.50" rx="4.40" ry="4.00" transform="rotate(0.0 38.74 44.50)" fill="#f8f8f4" stroke="#c0b8b0" stroke-width="0.6" /><ellipse cx="46.74" cy="52.50" rx="4.40" ry="4.00" transform="rotate(90.0 46.74 52.50)" fill="#f8f8f4" stroke="#c0b8b0" stroke-width="0.6" /><ellipse cx="38.74" cy="60.50" rx="4.40" ry="4.00" transform="rotate(180.0 38.74 60.50)" fill="#f8f8f4" stroke="#c0b8b0" stroke-width="0.6" /><ellipse cx="30.74" cy="52.50" rx="4.40" ry="4.00" transform="rotate(270.0 30.74 52.50)" fill="#f8f8f4" stroke="#c0b8b0" stroke-width="0.6" /><circle cx="38.741669750802295" cy="52.5" r="3.2" fill="#f0ece8" stroke="#c0b8b0" stroke-width="0.4"/><ellipse cx="38.74" cy="31.50" rx="4.40" ry="4.00" transform="rotate(0.0 38.74 31.50)" fill="#f8f8f4" stroke="#c0b8b0" stroke-width="0.6" /><ellipse cx="46.74" cy="39.50" rx="4.40" ry="4.00" transform="rotate(90.0 46.74 39.50)" fill="#f8f8f4" stroke="#c0b8b0" stroke-width="0.6" /><ellipse cx="38.74" cy="47.50" rx="4.40" ry="4.00" transform="rotate(180.0 38.74 47.50)" fill="#f8f8f4" stroke="#c0b8b0" stroke-width="0.6" /><ellipse cx="30.74" cy="39.50" rx="4.40" ry="4.00" transform="rotate(270.0 30.74 39.50)" fill="#f8f8f4" stroke="#c0b8b0" stroke-width="0.6" /><circle cx="38.7416697508023" cy="39.5" r="3.2" fill="#f0ece8" stroke="#c0b8b0" stroke-width="0.4"/><ellipse cx="57.42" cy="15.67" rx="4.12" ry="3.75" transform="rotate(0.0 57.42 15.67)" fill="#f8f8f4" stroke="#c0b8b0" stroke-width="0.6" /><ellipse cx="64.92" cy="23.17" rx="4.12" ry="3.75" transform="rotate(90.0 64.92 23.17)" fill="#f8f8f4" stroke="#c0b8b0" stroke-width="0.6" /><ellipse cx="57.42" cy="30.67" rx="4.12" ry="3.75" transform="rotate(180.0 57.42 30.67)" fill="#f8f8f4" stroke="#c0b8b0" stroke-width="0.6" /><ellipse cx="49.92" cy="23.17" rx="4.12" ry="3.75" transform="rotate(270.0 49.92 23.17)" fill="#f8f8f4" stroke="#c0b8b0" stroke-width="0.6" /><circle cx="57.41640786499874" cy="23.174643608916316" r="3.0" fill="#f0ece8" stroke="#c0b8b0" stroke-width="0.4"/><ellipse cx="69.42" cy="24.39" rx="4.12" ry="3.75" transform="rotate(0.0 69.42 24.39)" fill="#f8f8f4" stroke="#c0b8b0" stroke-width="0.6" /><ellipse cx="76.92" cy="31.89" rx="4.12" ry="3.75" transform="rotate(90.0 76.92 31.89)" fill="#f8f8f4" stroke="#c0b8b0" stroke-width="0.6" /><ellipse cx="69.42" cy="39.39" rx="4.12" ry="3.75" transform="rotate(180.0 69.42 39.39)" fill="#f8f8f4" stroke="#c0b8b0" stroke-width="0.6" /><ellipse cx="61.92" cy="31.89" rx="4.12" ry="3.75" transform="rotate(270.0 61.92 31.89)" fill="#f8f8f4" stroke="#c0b8b0" stroke-width="0.6" /><circle cx="69.41640786499875" cy="31.893153944980646" r="3.0" fill="#f0ece8" stroke="#c0b8b0" stroke-width="0.4"/><ellipse cx="74.00" cy="38.50" rx="4.12" ry="3.75" transform="rotate(0.0 74.00 38.50)" fill="#f8f8f4" stroke="#c0b8b0" stroke-width="0.6" /><ellipse cx="81.50" cy="46.00" rx="4.12" ry="3.75" transform="rotate(90.0 81.50 46.00)" fill="#f8f8f4" stroke="#c0b8b0" stroke-width="0.6" /><ellipse cx="74.00" cy="53.50" rx="4.12" ry="3.75" transform="rotate(180.0 74.00 53.50)" fill="#f8f8f4" stroke="#c0b8b0" stroke-width="0.6" /><ellipse cx="66.50" cy="46.00" rx="4.12" ry="3.75" transform="rotate(270.0 66.50 46.00)" fill="#f8f8f4" stroke="#c0b8b0" stroke-width="0.6" /><circle cx="74.0" cy="46.0" r="3.0" fill="#f0ece8" stroke="#c0b8b0" stroke-width="0.4"/><ellipse cx="69.42" cy="52.61" rx="4.12" ry="3.75" transform="rotate(0.0 69.42 52.61)" fill="#f8f8f4" stroke="#c0b8b0" stroke-width="0.6" /><ellipse cx="76.92" cy="60.11" rx="4.12" ry="3.75" transform="rotate(90.0 76.92 60.11)" fill="#f8f8f4" stroke="#c0b8b0" stroke-width="0.6" /><ellipse cx="69.42" cy="67.61" rx="4.12" ry="3.75" transform="rotate(180.0 69.42 67.61)" fill="#f8f8f4" stroke="#c0b8b0" stroke-width="0.6" /><ellipse cx="61.92" cy="60.11" rx="4.12" ry="3.75" transform="rotate(270.0 61.92 60.11)" fill="#f8f8f4" stroke="#c0b8b0" stroke-width="0.6" /><circle cx="69.41640786499875" cy="60.10684605501935" r="3.0" fill="#f0ece8" stroke="#c0b8b0" stroke-width="0.4"/><ellipse cx="57.42" cy="61.33" rx="4.12" ry="3.75" transform="rotate(0.0 57.42 61.33)" fill="#f8f8f4" stroke="#c0b8b0" stroke-width="0.6" /><ellipse cx="64.92" cy="68.83" rx="4.12" ry="3.75" transform="rotate(90.0 64.92 68.83)" fill="#f8f8f4" stroke="#c0b8b0" stroke-width="0.6" /><ellipse cx="57.42" cy="76.33" rx="4.12" ry="3.75" transform="rotate(180.0 57.42 76.33)" fill="#f8f8f4" stroke="#c0b8b0" stroke-width="0.6" /><ellipse cx="49.92" cy="68.83" rx="4.12" ry="3.75" transform="rotate(270.0 49.92 68.83)" fill="#f8f8f4" stroke="#c0b8b0" stroke-width="0.6" /><circle cx="57.41640786499874" cy="68.82535639108369" r="3.0" fill="#f0ece8" stroke="#c0b8b0" stroke-width="0.4"/><ellipse cx="42.58" cy="61.33" rx="4.12" ry="3.75" transform="rotate(0.0 42.58 61.33)" fill="#f8f8f4" stroke="#c0b8b0" stroke-width="0.6" /><ellipse cx="50.08" cy="68.83" rx="4.12" ry="3.75" transform="rotate(90.0 50.08 68.83)" fill="#f8f8f4" stroke="#c0b8b0" stroke-width="0.6" /><ellipse cx="42.58" cy="76.33" rx="4.12" ry="3.75" transform="rotate(180.0 42.58 76.33)" fill="#f8f8f4" stroke="#c0b8b0" stroke-width="0.6" /><ellipse cx="35.08" cy="68.83" rx="4.12" ry="3.75" transform="rotate(270.0 35.08 68.83)" fill="#f8f8f4" stroke="#c0b8b0" stroke-width="0.6" /><circle cx="42.58359213500126" cy="68.82535639108369" r="3.0" fill="#f0ece8" stroke="#c0b8b0" stroke-width="0.4"/><ellipse cx="30.58" cy="52.61" rx="4.12" ry="3.75" transform="rotate(0.0 30.58 52.61)" fill="#f8f8f4" stroke="#c0b8b0" stroke-width="0.6" /><ellipse cx="38.08" cy="60.11" rx="4.12" ry="3.75" transform="rotate(90.0 38.08 60.11)" fill="#f8f8f4" stroke="#c0b8b0" stroke-width="0.6" /><ellipse cx="30.58" cy="67.61" rx="4.12" ry="3.75" transform="rotate(180.0 30.58 67.61)" fill="#f8f8f4" stroke="#c0b8b0" stroke-width="0.6" /><ellipse cx="23.08" cy="60.11" rx="4.12" ry="3.75" transform="rotate(270.0 23.08 60.11)" fill="#f8f8f4" stroke="#c0b8b0" stroke-width="0.6" /><circle cx="30.583592135001265" cy="60.10684605501936" r="3.0" fill="#f0ece8" stroke="#c0b8b0" stroke-width="0.4"/><ellipse cx="26.00" cy="38.50" rx="4.12" ry="3.75" transform="rotate(0.0 26.00 38.50)" fill="#f8f8f4" stroke="#c0b8b0" stroke-width="0.6" /><ellipse cx="33.50" cy="46.00" rx="4.12" ry="3.75" transform="rotate(90.0 33.50 46.00)" fill="#f8f8f4" stroke="#c0b8b0" stroke-width="0.6" /><ellipse cx="26.00" cy="53.50" rx="4.12" ry="3.75" transform="rotate(180.0 26.00 53.50)" fill="#f8f8f4" stroke="#c0b8b0" stroke-width="0.6" /><ellipse cx="18.50" cy="46.00" rx="4.12" ry="3.75" transform="rotate(270.0 18.50 46.00)" fill="#f8f8f4" stroke="#c0b8b0" stroke-width="0.6" /><circle cx="26.0" cy="46.0" r="3.0" fill="#f0ece8" stroke="#c0b8b0" stroke-width="0.4"/><ellipse cx="30.58" cy="24.39" rx="4.12" ry="3.75" transform="rotate(0.0 30.58 24.39)" fill="#f8f8f4" stroke="#c0b8b0" stroke-width="0.6" /><ellipse cx="38.08" cy="31.89" rx="4.12" ry="3.75" transform="rotate(90.0 38.08 31.89)" fill="#f8f8f4" stroke="#c0b8b0" stroke-width="0.6" /><ellipse cx="30.58" cy="39.39" rx="4.12" ry="3.75" transform="rotate(180.0 30.58 39.39)" fill="#f8f8f4" stroke="#c0b8b0" stroke-width="0.6" /><ellipse cx="23.08" cy="31.89" rx="4.12" ry="3.75" transform="rotate(270.0 23.08 31.89)" fill="#f8f8f4" stroke="#c0b8b0" stroke-width="0.6" /><circle cx="30.583592135001258" cy="31.893153944980646" r="3.0" fill="#f0ece8" stroke="#c0b8b0" stroke-width="0.4"/><ellipse cx="42.58" cy="15.67" rx="4.12" ry="3.75" transform="rotate(0.0 42.58 15.67)" fill="#f8f8f4" stroke="#c0b8b0" stroke-width="0.6" /><ellipse cx="50.08" cy="23.17" rx="4.12" ry="3.75" transform="rotate(90.0 50.08 23.17)" fill="#f8f8f4" stroke="#c0b8b0" stroke-width="0.6" /><ellipse cx="42.58" cy="30.67" rx="4.12" ry="3.75" transform="rotate(180.0 42.58 30.67)" fill="#f8f8f4" stroke="#c0b8b0" stroke-width="0.6" /><ellipse cx="35.08" cy="23.17" rx="4.12" ry="3.75" transform="rotate(270.0 35.08 23.17)" fill="#f8f8f4" stroke="#c0b8b0" stroke-width="0.6" /><circle cx="42.58359213500126" cy="23.174643608916316" r="3.0" fill="#f0ece8" stroke="#c0b8b0" stroke-width="0.4"/><ellipse cx="68.81" cy="13.11" rx="3.85" ry="3.50" transform="rotate(0.0 68.81 13.11)" fill="#f8f8f4" stroke="#c0b8b0" stroke-width="0.6" /><ellipse cx="75.81" cy="20.11" rx="3.85" ry="3.50" transform="rotate(90.0 75.81 20.11)" fill="#f8f8f4" stroke="#c0b8b0" stroke-width="0.6" /><ellipse cx="68.81" cy="27.11" rx="3.85" ry="3.50" transform="rotate(180.0 68.81 27.11)" fill="#f8f8f4" stroke="#c0b8b0" stroke-width="0.6" /><ellipse cx="61.81" cy="20.11" rx="3.85" ry="3.50" transform="rotate(270.0 61.81 20.11)" fill="#f8f8f4" stroke="#c0b8b0" stroke-width="0.6" /><circle cx="68.80912807335915" cy="20.11145618000168" r="2.8000000000000003" fill="#f0ece8" stroke="#c0b8b0" stroke-width="0.4"/><ellipse cx="63.02" cy="68.23" rx="3.85" ry="3.50" transform="rotate(0.0 63.02 68.23)" fill="#f8f8f4" stroke="#c0b8b0" stroke-width="0.6" /><ellipse cx="70.02" cy="75.23" rx="3.85" ry="3.50" transform="rotate(90.0 70.02 75.23)" fill="#f8f8f4" stroke="#c0b8b0" stroke-width="0.6" /><ellipse cx="63.02" cy="82.23" rx="3.85" ry="3.50" transform="rotate(180.0 63.02 82.23)" fill="#f8f8f4" stroke="#c0b8b0" stroke-width="0.6" /><ellipse cx="56.02" cy="75.23" rx="3.85" ry="3.50" transform="rotate(270.0 56.02 75.23)" fill="#f8f8f4" stroke="#c0b8b0" stroke-width="0.6" /><circle cx="63.015572578425605" cy="75.23345464456322" r="2.8000000000000003" fill="#f0ece8" stroke="#c0b8b0" stroke-width="0.4"/><ellipse cx="18.18" cy="35.66" rx="3.85" ry="3.50" transform="rotate(0.0 18.18 35.66)" fill="#f8f8f4" stroke="#c0b8b0" stroke-width="0.6" /><ellipse cx="25.18" cy="42.66" rx="3.85" ry="3.50" transform="rotate(90.0 25.18 42.66)" fill="#f8f8f4" stroke="#c0b8b0" stroke-width="0.6" /><ellipse cx="18.18" cy="49.66" rx="3.85" ry="3.50" transform="rotate(180.0 18.18 49.66)" fill="#f8f8f4" stroke="#c0b8b0" stroke-width="0.6" /><ellipse cx="11.18" cy="42.66" rx="3.85" ry="3.50" transform="rotate(270.0 11.18 42.66)" fill="#f8f8f4" stroke="#c0b8b0" stroke-width="0.6" /><circle cx="18.175299348215255" cy="42.65508917543509" r="2.8000000000000003" fill="#f0ece8" stroke="#c0b8b0" stroke-width="0.4"/>
</svg>