<svg xmlns="http://www.w3.org/2000/svg" viewBox="0 0 100 100" width="100" height="100">
<line x1="50" y1="20" x2="50" y2="90" stroke="#6a7a30" stroke-width="2.2" stroke-linecap="round"/><ellipse cx="42" cy="82" rx="3" ry="9" transform="rotate(-15 42 82)" fill="#6a7a30" opacity="0.8"/><ellipse cx="58" cy="80" rx="3" ry="8" transform="rotate(15 58 80)" fill="#5a6a28" opacity="0.8"/><ellipse cx="42" cy="25" rx="3.5" ry="5.5" transform="rotate(-38 42 25)" fill="#8060c8" stroke="#5030a0" stroke-width="0.5" opacity="0.9"/><ellipse cx="58" cy="25" rx="3.5" ry="5.5" transform="rotate(38 58 25)" fill="#8060c8" stroke="#5030a0" stroke-width="0.5" opacity="0.9"/><ellipse cx="42" cy="32" rx="3.5" ry="5.5" transform="rotate(-38 42 32)" fill="#8060c8" stroke="#5030a0" stroke-width="0.5" opacity="0.9"/><ellipse cx="58" cy="32" rx="3.5" ry="5.5" transform="rotate(38 58 32)" fill="#8060c8" stroke="#5030a0" stroke-width="0.5" opacity="0.9"/><ellipse cx="42" cy="39" rx="3.5" ry="5.5" transform="rotate(-38 42 39)" fill="#8060c8" stroke="#5030a0" stroke-width="0.5" opacity="0.9"/><ellipse cx="58" cy="39" rx="3.5" ry="5.5" transform="rotate(38 58 39)" fill="#8060c8" stroke="#5030a0" stroke-width="0.5" opacity="0.9"/><ellipse cx="42" cy="46" rx="3.5" ry="5.5" transform="rotate(-38 42 46)" fill="#8060c8" stroke="#5030a0" stroke-width="0.5" opacity="0.9"/><ellipse cx="58" cy="46" rx="3.5" ry="5.5" transform="rotate(38 58 46)" fill="#8060c8" stroke="#5030a0" stroke-width="0.5" opacity="0.9"/><ellipse cx="42" cy="53" rx="3.5" ry="5.5" transform="rotate(-38 42 53)" fill="#8060c8" stroke="#5030a0" stroke-width="0.5" opacity="0.9"/><ellipse cx="58" cy="53" rx="3.5" ry="5.5" transform="rotate(38 58 53)" fill="#8060c8" stroke="#5030a0" stroke-width="0.5" opacity="0.9"/><ellipse cx="42" cy="60" rx="3.5" ry="5.5" transform="rotate(-38 42 60)" fill="#8060c8" stroke="#5030a0" stroke-width="0.5" opacity="0.9"/><ellipse cx="58" cy="60" rx="3.5" ry="5.5" transform="rotate(38 58 60)" fill="#8060c8" stroke="#5030a0" stroke-width="0.5" opacity="0.9"/><ellipse cx="42" cy="67" rx="3.5" ry="5.5" transform="rotate(-38 42 67)" fill="#8060c8" stroke="#5030a0" stroke-width="0.5" opacity="0.9"/><ellipse cx="58" cy="67" rx="3.5" ry="5.5" transform="rotate(38 58 67)" fill="#8060c8" stroke="#5030a0" stroke-width="0.5" opacity="0.9"/>
</svg>