<svg xmlns="http://www.w3.org/2000/svg" viewBox="-2 -10 90 130" width="100" height="100">
<line x1="50" y1="82" x2="50" y2="121" stroke="#3d6e2a" stroke-width="2.2" stroke-linecap="round"/><ellipse cx="44.00" cy="91.61" rx="2.64" ry="5.76" transform="rotate(-30.0 44.00 91.61)" fill="#5a8a3a" opacity="0.9"/><ellipse cx="56.31" cy="100.99" rx="2.42" ry="5.28" transform="rotate(35.0 56.31 100.99)" fill="#5a8a3a" opacity="0.9"/><ellipse cx="50.00" cy="20.00" rx="8" ry="24" transform="rotate(0.0 50.00 20.00)" fill="#9050d0" stroke="#4818a0" stroke-width="0.7" opacity="0.95"/><ellipse cx="72.52" cy="33.00" rx="8" ry="24" transform="rotate(60.0 72.52 33.00)" fill="#7838b8" stroke="#4818a0" stroke-width="0.7" opacity="0.95"/><ellipse cx="72.52" cy="59.00" rx="8" ry="24" transform="rotate(120.0 72.52 59.00)" fill="#9050d0" stroke="#4818a0" stroke-width="0.7" opacity="0.95"/><ellipse cx="50.00" cy="72.00" rx="8" ry="24" transform="rotate(180.0 50.00 72.00)" fill="#7838b8" stroke="#4818a0" stroke-width="0.7" opacity="0.95"/><ellipse cx="27.48" cy="59.00" rx="8" ry="24" transform="rotate(240.0 27.48 59.00)" fill="#9050d0" stroke="#4818a0" stroke-width="0.7" opacity="0.95"/><ellipse cx="27.48" cy="33.00" rx="8" ry="24" transform="rotate(300.0 27.48 33.00)" fill="#7838b8" stroke="#4818a0" stroke-width="0.7" opacity="0.95"/><line x1="50" y1="46" x2="62.0" y2="46.0" stroke="#8a6020" stroke-width="0.8"/><circle cx="62.0" cy="46.0" r="1.8" fill="#c08030"/><line x1="50" y1="46" x2="57.7" y2="55.2" stroke="#8a6020" stroke-width="0.8"/><circle cx="57.7" cy="55.2" r="1.8" fill="#c08030"/><line x1="50" y1="46" x2="47.9" y2="57.8" stroke="#8a6020" stroke-width="0.8"/><circle cx="47.9" cy="57.8" r="1.8" fill="#c08030"/><line x1="50" y1="46" x2="39.6" y2="52.0" stroke="#8a6020" stroke-width="0.8"/><circle cx="39.6" cy="52.0" r="1.8" fill="#c08030"/><line x1="50" y1="46" x2="38.7" y2="41.9" stroke="#8a6020" stroke-width="0.8"/><circle cx="38.7" cy="41.9" r="1.8" fill="#c08030"/><line x1="50" y1="46" x2="45.9" y2="34.7" stroke="#8a6020" stroke-width="0.8"/><circle cx="45.9" cy="34.7" r="1.8" fill="#c08030"/><line x1="50" y1="46" x2="56.0" y2="35.6" stroke="#8a6020" stroke-width="0.8"/><circle cx="56.0" cy="35.6" r="1.8" fill="#c08030"/><line x1="50" y1="46" x2="61.8" y2="43.9" stroke="#8a6020" stroke-width="0.8"/><circle cx="61.8" cy="43.9" r="1.8" fill="#c08030"/>
</svg>