<svg xmlns="http://www.w3.org/2000/svg" viewBox="0 0 100 100" width="100" height="100">
<line x1="50" y1="82" x2="50" y2="121" stroke="#3d6e2a" stroke-width="2.2" stroke-linecap="round"/><ellipse cx="44.00" cy="91.61" rx="2.64" ry="5.76" transform="rotate(-30.0 44.00 91.61)" fill="#5a8a3a" opacity="0.9"/><ellipse cx="56.31" cy="100.99" rx="2.42" ry="5.28" transform="rotate(35.0 56.31 100.99)" fill="#5a8a3a" opacity="0.9"/><ellipse cx="50.00" cy="20.00" rx="8" ry="24" transform="rotate(0.0 50.00 20.00)" fill="#f88020" stroke="#a03008" stroke-width="0.7" opacity="0.95"/><circle cx="45.7" cy="32.7" r="1.2" fill="#7a1a00" opacity="0.5"/><circle cx="48.1" cy="28.1" r="1.2" fill="#7a1a00" opacity="0.5"/><circle cx="52.3" cy="24.1" r="1.2" fill="#7a1a00" opacity="0.5"/><circle cx="58.0" cy="21.3" r="1.2" fill="#7a1a00" opacity="0.5"/><ellipse cx="72.52" cy="33.00" rx="8" ry="24" transform="rotate(60.0 72.52 33.00)" fill="#f06010" stroke="#a03008" stroke-width="0.7" opacity="0.95"/><circle cx="59.4" cy="35.6" r="1.2" fill="#7a1a00" opacity="0.5"/><circle cx="64.6" cy="35.4" r="1.2" fill="#7a1a00" opacity="0.5"/><circle cx="70.1" cy="37.1" r="1.2" fill="#7a1a00" opacity="0.5"/><circle cx="75.4" cy="40.6" r="1.2" fill="#7a1a00" opacity="0.5"/><ellipse cx="72.52" cy="59.00" rx="8" ry="24" transform="rotate(120.0 72.52 59.00)" fill="#f88020" stroke="#a03008" stroke-width="0.7" opacity="0.95"/><circle cx="63.7" cy="48.9" r="1.2" fill="#7a1a00" opacity="0.5"/><circle cx="66.4" cy="53.3" r="1.2" fill="#7a1a00" opacity="0.5"/><circle cx="67.8" cy="58.9" r="1.2" fill="#7a1a00" opacity="0.5"/><circle cx="67.4" cy="65.3" r="1.2" fill="#7a1a00" opacity="0.5"/><ellipse cx="50.00" cy="72.00" rx="8" ry="24" transform="rotate(180.0 50.00 72.00)" fill="#f06010" stroke="#a03008" stroke-width="0.7" opacity="0.95"/><circle cx="54.3" cy="59.3" r="1.2" fill="#7a1a00" opacity="0.5"/><circle cx="51.9" cy="63.9" r="1.2" fill="#7a1a00" opacity="0.5"/><circle cx="47.7" cy="67.9" r="1.2" fill="#7a1a00" opacity="0.5"/><circle cx="42.0" cy="70.7" r="1.2" fill="#7a1a00" opacity="0.5"/><ellipse cx="27.48" cy="59.00" rx="8" ry="24" transform="rotate(240.0 27.48 59.00)" fill="#f88020" stroke="#a03008" stroke-width="0.7" opacity="0.95"/><circle cx="40.6" cy="56.4" r="1.2" fill="#7a1a00" opacity="0.5"/><circle cx="35.4" cy="56.6" r="1.2" fill="#7a1a00" opacity="0.5"/><circle cx="29.9" cy="54.9" r="1.2" fill="#7a1a00" opacity="0.5"/><circle cx="24.6" cy="51.4" r="1.2" fill="#7a1a00" opacity="0.5"/><ellipse cx="27.48" cy="33.00" rx="8" ry="24" transform="rotate(300.0 27.48 33.00)" fill="#f06010" stroke="#a03008" stroke-width="0.7" opacity="0.95"/><circle cx="36.3" cy="43.1" r="1.2" fill="#7a1a00" opacity="0.5"/><circle cx="33.6" cy="38.7" r="1.2" fill="#7a1a00" opacity="0.5"/><circle cx="32.2" cy="33.1" r="1.2" fill="#7a1a00" opacity="0.5"/><circle cx="32.6" cy="26.7" r="1.2" fill="#7a1a00" opacity="0.5"/><line x1="50" y1="46" x2="62.0" y2="46.0" stroke="#8a6020" stroke-width="0.8"/><circle cx="62.0" cy="46.0" r="1.8" fill="#c08030"/><line x1="50" y1="46" x2="57.7" y2="55.2" stroke="#8a6020" stroke-width="0.8"/><circle cx="57.7" cy="55.2" r="1.8" fill="#c08030"/><line x1="50" y1="46" x2="47.9" y2="57.8" stroke="#8a6020" stroke-width="0.8"/><circle cx="47.9" cy="57.8" r="1.8" fill="#c08030"/><line x1="50" y1="46" x2="39.6" y2="52.0" stroke="#8a6020" stroke-width="0.8"/><circle cx="39.6" cy="52.0" r="1.8" fill="#c08030"/><line x1="50" y1="46" x2="38.7" y2="41.9" stroke="#8a6020" stroke-width="0.8"/><circle cx="38.7" cy="41.9" r="1.8" fill="#c08030"/><line x1="50" y1="46" x2="45.9" y2="34.7" stroke="#8a6020" stroke-width="0.8"/><circle cx="45.9" cy="34.7" r="1.8" fill="#c08030"/><line x1="50" y1="46" x2="56.0" y2="35.6" stroke="#8a6020" stroke-width="0.8"/><circle cx="56.0" cy="35.6" r="1.8" fill="#c08030"/><line x1="50" y1="46" x2="61.8" y2="43.9" stroke="#8a6020" stroke-width="0.8"/><circle cx="61.8" cy="43.9" r="1.8" fill="#c08030"/>
</svg>