<svg xmlns="http://www.w3.org/2000/svg" viewBox="0 0 100 100" width="100" height="100">
<path d="M50,90 Q52,65 56,48 Q60,32 58,18" stroke="#4a7c3f" stroke-width="2" fill="none"/><ellipse cx="30" cy="60" rx="14" ry="32" transform="rotate(-15 30 60)" fill="#4a7c3f" opacity="0.9"/><ellipse cx="70" cy="65" rx="13" ry="28" transform="rotate(12 70 65)" fill="#3d6e2a" opacity="0.9"/><line x1="30" y1="30" x2="28" y2="88" stroke="#3a6030" stroke-width="0.7" opacity="0.5"/><line x1="70" y1="38" x2="68" y2="90" stroke="#305828" stroke-width="0.7" opacity="0.5"/><ellipse cx="62" cy="28" rx="6" ry="7.5" transform="rotate(80 62 22)" fill="#f8f8f4" stroke="#c8c0b8" stroke-width="0.7" opacity="0.95"/><ellipse cx="60.8" cy="28.9" rx="4" ry="2.5" transform="rotate(-10 60.8 28.9)" fill="#f8f8f4" stroke="#c8c0b8" stroke-width="0.5" opacity="0.6"/><line x1="59.2" y1="19.2" x2="62" y2="22" stroke="#5a8a3a" stroke-width="0.8"/><ellipse cx="63" cy="36" rx="6" ry="7.5" transform="rotate(85 63 30)" fill="#f8f8f4" stroke="#c8c0b8" stroke-width="0.7" opacity="0.95"/><ellipse cx="62.4" cy="37.0" rx="4" ry="2.5" transform="rotate(-5 62.4 37.0)" fill="#f8f8f4" stroke="#c8c0b8" stroke-width="0.5" opacity="0.6"/><line x1="59.5" y1="21.6" x2="63" y2="30" stroke="#5a8a3a" stroke-width="0.8"/><ellipse cx="63" cy="44" rx="6" ry="7.5" transform="rotate(90 63 38)" fill="#f8f8f4" stroke="#c8c0b8" stroke-width="0.7" opacity="0.95"/><ellipse cx="63.0" cy="45.0" rx="4" ry="2.5" transform="rotate(0 63.0 45.0)" fill="#f8f8f4" stroke="#c8c0b8" stroke-width="0.5" opacity="0.6"/><line x1="59.5" y1="24.0" x2="63" y2="38" stroke="#5a8a3a" stroke-width="0.8"/><ellipse cx="61" cy="52" rx="6" ry="7.5" transform="rotate(95 61 46)" fill="#f8f8f4" stroke="#c8c0b8" stroke-width="0.7" opacity="0.95"/><ellipse cx="61.6" cy="53.0" rx="4" ry="2.5" transform="rotate(5 61.6 53.0)" fill="#f8f8f4" stroke="#c8c0b8" stroke-width="0.5" opacity="0.6"/><line x1="58.9" y1="26.4" x2="61" y2="46" stroke="#5a8a3a" stroke-width="0.8"/><ellipse cx="59" cy="60" rx="6" ry="7.5" transform="rotate(100 59 54)" fill="#f8f8f4" stroke="#c8c0b8" stroke-width="0.7" opacity="0.95"/><ellipse cx="60.2" cy="60.9" rx="4" ry="2.5" transform="rotate(10 60.2 60.9)" fill="#f8f8f4" stroke="#c8c0b8" stroke-width="0.5" opacity="0.6"/><line x1="58.3" y1="28.8" x2="59" y2="54" stroke="#5a8a3a" stroke-width="0.8"/><ellipse cx="56" cy="68" rx="6" ry="7.5" transform="rotate(105 56 62)" fill="#f8f8f4" stroke="#c8c0b8" stroke-width="0.7" opacity="0.95"/><ellipse cx="57.8" cy="68.8" rx="4" ry="2.5" transform="rotate(15 57.8 68.8)" fill="#f8f8f4" stroke="#c8c0b8" stroke-width="0.5" opacity="0.6"/><line x1="57.4" y1="31.2" x2="56" y2="62" stroke="#5a8a3a" stroke-width="0.8"/>
</svg>