<svg xmlns="http://www.w3.org/2000/svg" viewBox="-2 -10 90 130" width="100" height="100">
<line x1="50" y1="88" x2="50" y2="124" stroke="#4a7c3f" stroke-width="1.8" stroke-linecap="round"/><ellipse cx="42.61" cy="96.54" rx="2.64" ry="5.76" transform="rotate(-38.0 42.61 96.54)" fill="#5a8a3a" opacity="0.9"/><ellipse cx="50.00" cy="19.00" rx="16.12" ry="13.00" transform="rotate(0.0 50.00 19.00)" fill="#a060d8" stroke="#5820b0" stroke-width="0.6" opacity="0.93" /><ellipse cx="77.58" cy="39.04" rx="16.12" ry="13.00" transform="rotate(72.0 77.58 39.04)" fill="#a060d8" stroke="#5820b0" stroke-width="0.6" opacity="0.93" /><ellipse cx="67.05" cy="71.46" rx="16.12" ry="13.00" transform="rotate(144.0 67.05 71.46)" fill="#a060d8" stroke="#5820b0" stroke-width="0.6" opacity="0.93" /><ellipse cx="32.95" cy="71.46" rx="16.12" ry="13.00" transform="rotate(216.0 32.95 71.46)" fill="#a060d8" stroke="#5820b0" stroke-width="0.6" opacity="0.93" /><ellipse cx="22.42" cy="39.04" rx="16.12" ry="13.00" transform="rotate(288.0 22.42 39.04)" fill="#a060d8" stroke="#5820b0" stroke-width="0.6" opacity="0.93" /><ellipse cx="50.00" cy="26.50" rx="11.55" ry="10.50" transform="rotate(0.0 50.00 26.50)" fill="#a060d8" stroke="#5820b0" stroke-width="0.6" opacity="0.88" /><ellipse cx="70.45" cy="41.36" rx="11.55" ry="10.50" transform="rotate(72.0 70.45 41.36)" fill="#a060d8" stroke="#5820b0" stroke-width="0.6" opacity="0.88" /><ellipse cx="62.64" cy="65.39" rx="11.55" ry="10.50" transform="rotate(144.0 62.64 65.39)" fill="#a060d8" stroke="#5820b0" stroke-width="0.6" opacity="0.88" /><ellipse cx="37.36" cy="65.39" rx="11.55" ry="10.50" transform="rotate(216.0 37.36 65.39)" fill="#a060d8" stroke="#5820b0" stroke-width="0.6" opacity="0.88" /><ellipse cx="29.55" cy="41.36" rx="11.55" ry="10.50" transform="rotate(288.0 29.55 41.36)" fill="#a060d8" stroke="#5820b0" stroke-width="0.6" opacity="0.88" /><ellipse cx="50.00" cy="34.50" rx="6.24" ry="6.50" transform="rotate(0.0 50.00 34.50)" fill="#a060d8" stroke="#5820b0" stroke-width="0.6" opacity="0.84" /><ellipse cx="63.50" cy="48.00" rx="6.24" ry="6.50" transform="rotate(90.0 63.50 48.00)" fill="#a060d8" stroke="#5820b0" stroke-width="0.6" opacity="0.84" /><ellipse cx="50.00" cy="61.50" rx="6.24" ry="6.50" transform="rotate(180.0 50.00 61.50)" fill="#a060d8" stroke="#5820b0" stroke-width="0.6" opacity="0.84" /><ellipse cx="36.50" cy="48.00" rx="6.24" ry="6.50" transform="rotate(270.0 36.50 48.00)" fill="#a060d8" stroke="#5820b0" stroke-width="0.6" opacity="0.84" /><circle cx="50" cy="48" r="5" fill="#f8f0e8" stroke="#5820b0" stroke-width="0.5"/><line x1="50" y1="48" x2="54.0" y2="48.0" stroke="#4a8030" stroke-width="1"/><line x1="50" y1="48" x2="50.0" y2="52.0" stroke="#4a8030" stroke-width="1"/><line x1="50" y1="48" x2="46.0" y2="48.0" stroke="#4a8030" stroke-width="1"/><line x1="50" y1="48" x2="50.0" y2="44.0" stroke="#4a8030" stroke-width="1"/>
</svg>