<svg xmlns="http://www.w3.org/2000/svg" viewBox="0 0 100 100" width="100" height="100">
<line x1="50" y1="94" x2="50" y2="126" stroke="#6a5020" stroke-width="2.5" stroke-linecap="round"/><ellipse cx="50.00" cy="24.00" rx="10" ry="26" transform="rotate(0.0 50.00 24.00)" fill="#f8f8f2" stroke="#c8c0b0" stroke-width="0.7" opacity="0.95"/><ellipse cx="72.52" cy="37.00" rx="10" ry="26" transform="rotate(60.0 72.52 37.00)" fill="#f8f8f2" stroke="#c8c0b0" stroke-width="0.7" opacity="0.95"/><ellipse cx="72.52" cy="63.00" rx="10" ry="26" transform="rotate(120.0 72.52 63.00)" fill="#f8f8f2" stroke="#c8c0b0" stroke-width="0.7" opacity="0.95"/><ellipse cx="50.00" cy="76.00" rx="10" ry="26" transform="rotate(180.0 50.00 76.00)" fill="#f8f8f2" stroke="#c8c0b0" stroke-width="0.7" opacity="0.95"/><ellipse cx="27.48" cy="63.00" rx="10" ry="26" transform="rotate(240.0 27.48 63.00)" fill="#f8f8f2" stroke="#c8c0b0" stroke-width="0.7" opacity="0.95"/><ellipse cx="27.48" cy="37.00" rx="10" ry="26" transform="rotate(300.0 27.48 37.00)" fill="#f8f8f2" stroke="#c8c0b0" stroke-width="0.7" opacity="0.95"/><ellipse cx="58.00" cy="36.14" rx="8" ry="18" transform="rotate(60.0 58.00 36.14)" fill="#f8f8f2" stroke="#c8c0b0" stroke-width="0.6" opacity="0.88"/><ellipse cx="66.00" cy="50.00" rx="8" ry="18" transform="rotate(120.0 66.00 50.00)" fill="#f8f8f2" stroke="#c8c0b0" stroke-width="0.6" opacity="0.88"/><ellipse cx="58.00" cy="63.86" rx="8" ry="18" transform="rotate(180.0 58.00 63.86)" fill="#f8f8f2" stroke="#c8c0b0" stroke-width="0.6" opacity="0.88"/><ellipse cx="42.00" cy="63.86" rx="8" ry="18" transform="rotate(240.0 42.00 63.86)" fill="#f8f8f2" stroke="#c8c0b0" stroke-width="0.6" opacity="0.88"/><ellipse cx="34.00" cy="50.00" rx="8" ry="18" transform="rotate(300.0 34.00 50.00)" fill="#f8f8f2" stroke="#c8c0b0" stroke-width="0.6" opacity="0.88"/><ellipse cx="42.00" cy="36.14" rx="8" ry="18" transform="rotate(360.0 42.00 36.14)" fill="#f8f8f2" stroke="#c8c0b0" stroke-width="0.6" opacity="0.88"/><circle cx="50" cy="50" r="8" fill="#f0e8c0" stroke="#c8c0b0" stroke-width="0.5"/>
</svg>