<svg xmlns="http://www.w3.org/2000/svg" viewBox="0 0 100 100" width="100" height="100">
<line x1="50" y1="82" x2="50" y2="123" stroke="#4a7c3f" stroke-width="1.8" stroke-linecap="round"/><ellipse cx="41.64" cy="96.04" rx="2.86" ry="6.24" transform="rotate(-40.0 41.64 96.04)" fill="#4a7a30" opacity="0.9"/><ellipse cx="27.00" cy="48.00" rx="7" ry="20" transform="rotate(270.0 27.00 48.00)" fill="#f8f0e0" stroke="#b07810" stroke-width="0.6" opacity="0.85"/><ellipse cx="61.50" cy="28.08" rx="7" ry="20" transform="rotate(30.0 61.50 28.08)" fill="#f8f0e0" stroke="#b07810" stroke-width="0.6" opacity="0.85"/><ellipse cx="61.50" cy="67.92" rx="7" ry="20" transform="rotate(150.0 61.50 67.92)" fill="#f8f0e0" stroke="#b07810" stroke-width="0.6" opacity="0.85"/><ellipse cx="40.00" cy="65.32" rx="12" ry="18" transform="rotate(210.0 40.00 65.32)" fill="#f8f0e0" stroke="#b07810" stroke-width="0.6" opacity="0.92"/><ellipse cx="40.00" cy="30.68" rx="12" ry="18" transform="rotate(330.0 40.00 30.68)" fill="#f8f0e0" stroke="#b07810" stroke-width="0.6" opacity="0.92"/><ellipse cx="50" cy="58" rx="9" ry="12" fill="#f0c860" stroke="#b07810" stroke-width="0.7"/><circle cx="47.9" cy="59.6" r="1.5" fill="#b07810" opacity="0.5"/><circle cx="45.5" cy="58.0" r="1.5" fill="#b07810" opacity="0.5"/><circle cx="44.2" cy="55.5" r="1.5" fill="#b07810" opacity="0.5"/><circle cx="44.2" cy="52.5" r="1.5" fill="#b07810" opacity="0.5"/><circle cx="45.5" cy="50.0" r="1.5" fill="#b07810" opacity="0.5"/><circle cx="47.9" cy="48.4" r="1.5" fill="#b07810" opacity="0.5"/><circle cx="50" cy="50" r="4" fill="#f8f4e8" stroke="#b07810" stroke-width="0.5"/>
</svg>