<svg xmlns="http://www.w3.org/2000/svg" viewBox="-2 -10 90 130" width="100" height="100">
<line x1="50" y1="86" x2="53" y2="118" stroke="#4a7c3f" stroke-width="2.4" stroke-linecap="round"/><ellipse cx="40.63" cy="91.60" rx="3.08" ry="6.72" transform="rotate(-42.0 40.63 91.60)" fill="#5a8a3a" opacity="0.9"/><ellipse cx="57.39" cy="100.54" rx="2.64" ry="5.76" transform="rotate(38.0 57.39 100.54)" fill="#5a8a3a" opacity="0.9"/><ellipse cx="50.00" cy="17.00" rx="11.96" ry="13.00" transform="rotate(0.0 50.00 17.00)" fill="#fce8ec" stroke="#c06880" stroke-width="0.6" opacity="0.9" /><ellipse cx="70.51" cy="25.49" rx="11.96" ry="13.00" transform="rotate(45.0 70.51 25.49)" fill="#fce8ec" stroke="#c06880" stroke-width="0.6" opacity="0.9" /><ellipse cx="79.00" cy="46.00" rx="11.96" ry="13.00" transform="rotate(90.0 79.00 46.00)" fill="#fce8ec" stroke="#c06880" stroke-width="0.6" opacity="0.9" /><ellipse cx="70.51" cy="66.51" rx="11.96" ry="13.00" transform="rotate(135.0 70.51 66.51)" fill="#fce8ec" stroke="#c06880" stroke-width="0.6" opacity="0.9" /><ellipse cx="50.00" cy="75.00" rx="11.96" ry="13.00" transform="rotate(180.0 50.00 75.00)" fill="#fce8ec" stroke="#c06880" stroke-width="0.6" opacity="0.9" /><ellipse cx="29.49" cy="66.51" rx="11.96" ry="13.00" transform="rotate(225.0 29.49 66.51)" fill="#fce8ec" stroke="#c06880" stroke-width="0.6" opacity="0.9" /><ellipse cx="21.00" cy="46.00" rx="11.96" ry="13.00" transform="rotate(270.0 21.00 46.00)" fill="#fce8ec" stroke="#c06880" stroke-width="0.6" opacity="0.9" /><ellipse cx="29.49" cy="25.49" rx="11.96" ry="13.00" transform="rotate(315.0 29.49 25.49)" fill="#fce8ec" stroke="#c06880" stroke-width="0.6" opacity="0.9" /><ellipse cx="50.00" cy="23.00" rx="9.24" ry="11.00" transform="rotate(0.0 50.00 23.00)" fill="#f8d0d8" stroke="#c06880" stroke-width="0.6" opacity="0.88" /><ellipse cx="64.78" cy="28.38" rx="9.24" ry="11.00" transform="rotate(40.0 64.78 28.38)" fill="#f8d0d8" stroke="#c06880" stroke-width="0.6" opacity="0.88" /><ellipse cx="72.65" cy="42.01" rx="9.24" ry="11.00" transform="rotate(80.0 72.65 42.01)" fill="#f8d0d8" stroke="#c06880" stroke-width="0.6" opacity="0.88" /><ellipse cx="69.92" cy="57.50" rx="9.24" ry="11.00" transform="rotate(120.0 69.92 57.50)" fill="#f8d0d8" stroke="#c06880" stroke-width="0.6" opacity="0.88" /><ellipse cx="57.87" cy="67.61" rx="9.24" ry="11.00" transform="rotate(160.0 57.87 67.61)" fill="#f8d0d8" stroke="#c06880" stroke-width="0.6" opacity="0.88" /><ellipse cx="42.13" cy="67.61" rx="9.24" ry="11.00" transform="rotate(200.0 42.13 67.61)" fill="#f8d0d8" stroke="#c06880" stroke-width="0.6" opacity="0.88" /><ellipse cx="30.08" cy="57.50" rx="9.24" ry="11.00" transform="rotate(240.0 30.08 57.50)" fill="#f8d0d8" stroke="#c06880" stroke-width="0.6" opacity="0.88" /><ellipse cx="27.35" cy="42.01" rx="9.24" ry="11.00" transform="rotate(280.0 27.35 42.01)" fill="#f8d0d8" stroke="#c06880" stroke-width="0.6" opacity="0.88" /><ellipse cx="35.22" cy="28.38" rx="9.24" ry="11.00" transform="rotate(320.0 35.22 28.38)" fill="#f8d0d8" stroke="#c06880" stroke-width="0.6" opacity="0.88" /><ellipse cx="50.00" cy="29.00" rx="6.84" ry="9.00" transform="rotate(0.0 50.00 29.00)" fill="#f4b8c4" stroke="#c06880" stroke-width="0.6" opacity="0.86" /><ellipse cx="62.02" cy="33.98" rx="6.84" ry="9.00" transform="rotate(45.0 62.02 33.98)" fill="#f4b8c4" stroke="#c06880" stroke-width="0.6" opacity="0.86" /><ellipse cx="67.00" cy="46.00" rx="6.84" ry="9.00" transform="rotate(90.0 67.00 46.00)" fill="#f4b8c4" stroke="#c06880" stroke-width="0.6" opacity="0.86" /><ellipse cx="62.02" cy="58.02" rx="6.84" ry="9.00" transform="rotate(135.0 62.02 58.02)" fill="#f4b8c4" stroke="#c06880" stroke-width="0.6" opacity="0.86" /><ellipse cx="50.00" cy="63.00" rx="6.84" ry="9.00" transform="rotate(180.0 50.00 63.00)" fill="#f4b8c4" stroke="#c06880" stroke-width="0.6" opacity="0.86" /><ellipse cx="37.98" cy="58.02" rx="6.84" ry="9.00" transform="rotate(225.0 37.98 58.02)" fill="#f4b8c4" stroke="#c06880" stroke-width="0.6" opacity="0.86" /><ellipse cx="33.00" cy="46.00" rx="6.84" ry="9.00" transform="rotate(270.0 33.00 46.00)" fill="#f4b8c4" stroke="#c06880" stroke-width="0.6" opacity="0.86" /><ellipse cx="37.98" cy="33.98" rx="6.84" ry="9.00" transform="rotate(315.0 37.98 33.98)" fill="#f4b8c4" stroke="#c06880" stroke-width="0.6" opacity="0.86" /><ellipse cx="50.00" cy="34.50" rx="4.42" ry="6.50" transform="rotate(0.0 50.00 34.50)" fill="#eca0b0" stroke="#c06880" stroke-width="0.6" opacity="0.84" /><ellipse cx="59.96" cy="40.25" rx="4.42" ry="6.50" transform="rotate(60.0 59.96 40.25)" fill="#eca0b0" stroke="#c06880" stroke-width="0.6" opacity="0.84" /><ellipse cx="59.96" cy="51.75" rx="4.42" ry="6.50" transform="rotate(120.0 59.96 51.75)" fill="#eca0b0" stroke="#c06880" stroke-width="0.6" opacity="0.84" /><ellipse cx="50.00" cy="57.50" rx="4.42" ry="6.50" transform="rotate(180.0 50.00 57.50)" fill="#eca0b0" stroke="#c06880" stroke-width="0.6" opacity="0.84" /><ellipse cx="40.04" cy="51.75" rx="4.42" ry="6.50" transform="rotate(240.0 40.04 51.75)" fill="#eca0b0" stroke="#c06880" stroke-width="0.6" opacity="0.84" /><ellipse cx="40.04" cy="40.25" rx="4.42" ry="6.50" transform="rotate(300.0 40.04 40.25)" fill="#eca0b0" stroke="#c06880" stroke-width="0.6" opacity="0.84" /><circle cx="50" cy="46" r="5" fill="#eca0b0" stroke="#c06880" stroke-width="0.6"/>
</svg>