<svg xmlns="http://www.w3.org/2000/svg" viewBox="0 0 100 100" width="100" height="100">
<path d="M18,90 Q30,70 50,52" stroke="#8a5030" stroke-width="2.5" fill="none"/><ellipse cx="50.00" cy="26.00" rx="14.40" ry="12.00" transform="rotate(0.0 50.00 26.00)" fill="#f8b0c8" stroke="#d06080" stroke-width="0.6" /><ellipse cx="72.83" cy="42.58" rx="14.40" ry="12.00" transform="rotate(72.0 72.83 42.58)" fill="#f8b0c8" stroke="#d06080" stroke-width="0.6" /><ellipse cx="64.11" cy="69.42" rx="14.40" ry="12.00" transform="rotate(144.0 64.11 69.42)" fill="#f8b0c8" stroke="#d06080" stroke-width="0.6" /><ellipse cx="35.89" cy="69.42" rx="14.40" ry="12.00" transform="rotate(216.0 35.89 69.42)" fill="#f8b0c8" stroke="#d06080" stroke-width="0.6" /><ellipse cx="27.17" cy="42.58" rx="14.40" ry="12.00" transform="rotate(288.0 27.17 42.58)" fill="#f8b0c8" stroke="#d06080" stroke-width="0.6" /><circle cx="50" cy="50" r="7" fill="#f8e8f0" stroke="#d06080" stroke-width="0.5"/><line x1="50" y1="50" x2="60.0" y2="50.0" stroke="#d06080" stroke-width="0.6"/><circle cx="60.0" cy="50.0" r="1.4" fill="#f8d0e0"/><line x1="50" y1="50" x2="58.7" y2="55.0" stroke="#d06080" stroke-width="0.6"/><circle cx="58.7" cy="55.0" r="1.4" fill="#f8d0e0"/><line x1="50" y1="50" x2="55.0" y2="58.7" stroke="#d06080" stroke-width="0.6"/><circle cx="55.0" cy="58.7" r="1.4" fill="#f8d0e0"/><line x1="50" y1="50" x2="50.0" y2="60.0" stroke="#d06080" stroke-width="0.6"/><circle cx="50.0" cy="60.0" r="1.4" fill="#f8d0e0"/><line x1="50" y1="50" x2="45.0" y2="58.7" stroke="#d06080" stroke-width="0.6"/><circle cx="45.0" cy="58.7" r="1.4" fill="#f8d0e0"/><line x1="50" y1="50" x2="41.3" y2="55.0" stroke="#d06080" stroke-width="0.6"/><circle cx="41.3" cy="55.0" r="1.4" fill="#f8d0e0"/><line x1="50" y1="50" x2="40.0" y2="50.0" stroke="#d06080" stroke-width="0.6"/><circle cx="40.0" cy="50.0" r="1.4" fill="#f8d0e0"/><line x1="50" y1="50" x2="41.3" y2="45.0" stroke="#d06080" stroke-width="0.6"/><circle cx="41.3" cy="45.0" r="1.4" fill="#f8d0e0"/><line x1="50" y1="50" x2="45.0" y2="41.3" stroke="#d06080" stroke-width="0.6"/><circle cx="45.0" cy="41.3" r="1.4" fill="#f8d0e0"/><line x1="50" y1="50" x2="50.0" y2="40.0" stroke="#d06080" stroke-width="0.6"/><circle cx="50.0" cy="40.0" r="1.4" fill="#f8d0e0"/><line x1="50" y1="50" x2="55.0" y2="41.3" stroke="#d06080" stroke-width="0.6"/><circle cx="55.0" cy="41.3" r="1.4" fill="#f8d0e0"/><line x1="50" y1="50" x2="58.7" y2="45.0" stroke="#d06080" stroke-width="0.6"/><circle cx="58.7" cy="45.0" r="1.4" fill="#f8d0e0"/>
</svg>