<svg xmlns="http://www.w3.org/2000/svg" viewBox="0 0 100 100" width="100" height="100">
<line x1="50" y1="84" x2="55" y2="122" stroke="#3d6e2a" stroke-width="2" stroke-linecap="round"/><ellipse cx="42.29" cy="95.81" rx="2.64" ry="5.76" transform="rotate(-40.0 42.29 95.81)" fill="#5a8a3a" opacity="0.9"/><ellipse cx="50.00" cy="20.00" rx="16.90" ry="13.00" transform="rotate(0.0 50.00 20.00)" fill="#f07020" stroke="#b84010" stroke-width="0.6" opacity="0.95" /><ellipse cx="77.00" cy="47.00" rx="16.90" ry="13.00" transform="rotate(90.0 77.00 47.00)" fill="#f07020" stroke="#b84010" stroke-width="0.6" opacity="0.95" /><ellipse cx="50.00" cy="74.00" rx="16.90" ry="13.00" transform="rotate(180.0 50.00 74.00)" fill="#f07020" stroke="#b84010" stroke-width="0.6" opacity="0.95" /><ellipse cx="23.00" cy="47.00" rx="16.90" ry="13.00" transform="rotate(270.0 23.00 47.00)" fill="#f07020" stroke="#b84010" stroke-width="0.6" opacity="0.95" /><line x1="50" y1="47" x2="50.0" y2="9.0" stroke="#b84010" stroke-width="0.4" opacity="0.3"/><line x1="50" y1="47" x2="88.0" y2="47.0" stroke="#b84010" stroke-width="0.4" opacity="0.3"/><line x1="50" y1="47" x2="50.0" y2="85.0" stroke="#b84010" stroke-width="0.4" opacity="0.3"/><line x1="50" y1="47" x2="12.0" y2="47.0" stroke="#b84010" stroke-width="0.4" opacity="0.3"/><circle cx="50" cy="47" r="9" fill="#1a3a08" stroke="#0a2a00" stroke-width="0.8"/><line x1="50" y1="47" x2="57.0" y2="47.0" stroke="#2a5010" stroke-width="0.8"/><circle cx="57.0" cy="47.0" r="1.2" fill="#e8e820"/><line x1="50" y1="47" x2="56.1" y2="50.5" stroke="#2a5010" stroke-width="0.8"/><circle cx="56.1" cy="50.5" r="1.2" fill="#e8e820"/><line x1="50" y1="47" x2="53.5" y2="53.1" stroke="#2a5010" stroke-width="0.8"/><circle cx="53.5" cy="53.1" r="1.2" fill="#e8e820"/><line x1="50" y1="47" x2="50.0" y2="54.0" stroke="#2a5010" stroke-width="0.8"/><circle cx="50.0" cy="54.0" r="1.2" fill="#e8e820"/><line x1="50" y1="47" x2="46.5" y2="53.1" stroke="#2a5010" stroke-width="0.8"/><circle cx="46.5" cy="53.1" r="1.2" fill="#e8e820"/><line x1="50" y1="47" x2="43.9" y2="50.5" stroke="#2a5010" stroke-width="0.8"/><circle cx="43.9" cy="50.5" r="1.2" fill="#e8e820"/><line x1="50" y1="47" x2="43.0" y2="47.0" stroke="#2a5010" stroke-width="0.8"/><circle cx="43.0" cy="47.0" r="1.2" fill="#e8e820"/><line x1="50" y1="47" x2="43.9" y2="43.5" stroke="#2a5010" stroke-width="0.8"/><circle cx="43.9" cy="43.5" r="1.2" fill="#e8e820"/><line x1="50" y1="47" x2="46.5" y2="40.9" stroke="#2a5010" stroke-width="0.8"/><circle cx="46.5" cy="40.9" r="1.2" fill="#e8e820"/><line x1="50" y1="47" x2="50.0" y2="40.0" stroke="#2a5010" stroke-width="0.8"/><circle cx="50.0" cy="40.0" r="1.2" fill="#e8e820"/><line x1="50" y1="47" x2="53.5" y2="40.9" stroke="#2a5010" stroke-width="0.8"/><circle cx="53.5" cy="40.9" r="1.2" fill="#e8e820"/><line x1="50" y1="47" x2="56.1" y2="43.5" stroke="#2a5010" stroke-width="0.8"/><circle cx="56.1" cy="43.5" r="1.2" fill="#e8e820"/>
</svg>