<svg xmlns="http://www.w3.org/2000/svg" viewBox="-2 -10 90 130" width="100" height="100">
<line x1="50" y1="90" x2="50" y2="124" stroke="#4a6a28" stroke-width="2.5" stroke-linecap="round"/><ellipse cx="41.40" cy="95.71" rx="3.30" ry="7.20" transform="rotate(-35.0 41.40 95.71)" fill="#4a6a28" opacity="0.9"/><ellipse cx="50.00" cy="24.00" rx="7" ry="22" transform="rotate(0.0 50.00 24.00)" fill="#f098b8" stroke="#c05878" stroke-width="0.7" opacity="0.9"/><ellipse cx="60.52" cy="26.43" rx="7" ry="22" transform="rotate(26.0 60.52 26.43)" fill="#f098b8" stroke="#c05878" stroke-width="0.7" opacity="0.9"/><ellipse cx="68.91" cy="33.22" rx="7" ry="22" transform="rotate(52.0 68.91 33.22)" fill="#f098b8" stroke="#c05878" stroke-width="0.7" opacity="0.9"/><ellipse cx="73.48" cy="43.01" rx="7" ry="22" transform="rotate(78.0 73.48 43.01)" fill="#f098b8" stroke="#c05878" stroke-width="0.7" opacity="0.9"/><ellipse cx="73.29" cy="53.81" rx="7" ry="22" transform="rotate(104.0 73.29 53.81)" fill="#f098b8" stroke="#c05878" stroke-width="0.7" opacity="0.9"/><ellipse cx="68.39" cy="63.43" rx="7" ry="22" transform="rotate(130.0 68.39 63.43)" fill="#f098b8" stroke="#c05878" stroke-width="0.7" opacity="0.9"/><ellipse cx="59.76" cy="69.93" rx="7" ry="22" transform="rotate(156.0 59.76 69.93)" fill="#f098b8" stroke="#c05878" stroke-width="0.7" opacity="0.9"/><ellipse cx="49.16" cy="71.99" rx="7" ry="22" transform="rotate(182.0 49.16 71.99)" fill="#f098b8" stroke="#c05878" stroke-width="0.7" opacity="0.9"/><ellipse cx="38.73" cy="69.19" rx="7" ry="22" transform="rotate(208.0 38.73 69.19)" fill="#f098b8" stroke="#c05878" stroke-width="0.7" opacity="0.9"/><ellipse cx="30.58" cy="62.11" rx="7" ry="22" transform="rotate(234.0 30.58 62.11)" fill="#f098b8" stroke="#c05878" stroke-width="0.7" opacity="0.9"/><ellipse cx="26.36" cy="52.17" rx="7" ry="22" transform="rotate(260.0 26.36 52.17)" fill="#f098b8" stroke="#c05878" stroke-width="0.7" opacity="0.9"/><ellipse cx="26.93" cy="41.38" rx="7" ry="22" transform="rotate(286.0 26.93 41.38)" fill="#f098b8" stroke="#c05878" stroke-width="0.7" opacity="0.9"/><ellipse cx="32.16" cy="31.94" rx="7" ry="22" transform="rotate(312.0 32.16 31.94)" fill="#f098b8" stroke="#c05878" stroke-width="0.7" opacity="0.9"/><ellipse cx="41.01" cy="25.75" rx="7" ry="22" transform="rotate(338.0 41.01 25.75)" fill="#f098b8" stroke="#c05878" stroke-width="0.7" opacity="0.9"/><circle cx="50" cy="48" r="14" fill="#f8e8e0" stroke="#c05878" stroke-width="0.5"/><line x1="50" y1="48" x2="61.0" y2="48.0" stroke="#c05878" stroke-width="0.6" opacity="0.6"/><line x1="50" y1="48" x2="60.6" y2="50.8" stroke="#c05878" stroke-width="0.6" opacity="0.6"/><line x1="50" y1="48" x2="59.5" y2="53.5" stroke="#c05878" stroke-width="0.6" opacity="0.6"/><line x1="50" y1="48" x2="57.8" y2="55.8" stroke="#c05878" stroke-width="0.6" opacity="0.6"/><line x1="50" y1="48" x2="55.5" y2="57.5" stroke="#c05878" stroke-width="0.6" opacity="0.6"/><line x1="50" y1="48" x2="52.8" y2="58.6" stroke="#c05878" stroke-width="0.6" opacity="0.6"/><line x1="50" y1="48" x2="50.0" y2="59.0" stroke="#c05878" stroke-width="0.6" opacity="0.6"/><line x1="50" y1="48" x2="47.2" y2="58.6" stroke="#c05878" stroke-width="0.6" opacity="0.6"/><line x1="50" y1="48" x2="44.5" y2="57.5" stroke="#c05878" stroke-width="0.6" opacity="0.6"/><line x1="50" y1="48" x2="42.2" y2="55.8" stroke="#c05878" stroke-width="0.6" opacity="0.6"/><line x1="50" y1="48" x2="40.5" y2="53.5" stroke="#c05878" stroke-width="0.6" opacity="0.6"/><line x1="50" y1="48" x2="39.4" y2="50.8" stroke="#c05878" stroke-width="0.6" opacity="0.6"/><line x1="50" y1="48" x2="39.0" y2="48.0" stroke="#c05878" stroke-width="0.6" opacity="0.6"/><line x1="50" y1="48" x2="39.4" y2="45.2" stroke="#c05878" stroke-width="0.6" opacity="0.6"/><line x1="50" y1="48" x2="40.5" y2="42.5" stroke="#c05878" stroke-width="0.6" opacity="0.6"/><line x1="50" y1="48" x2="42.2" y2="40.2" stroke="#c05878" stroke-width="0.6" opacity="0.6"/><line x1="50" y1="48" x2="44.5" y2="38.5" stroke="#c05878" stroke-width="0.6" opacity="0.6"/><line x1="50" y1="48" x2="47.2" y2="37.4" stroke="#c05878" stroke-width="0.6" opacity="0.6"/><line x1="50" y1="48" x2="50.0" y2="37.0" stroke="#c05878" stroke-width="0.6" opacity="0.6"/><line x1="50" y1="48" x2="52.8" y2="37.4" stroke="#c05878" stroke-width="0.6" opacity="0.6"/><line x1="50" y1="48" x2="55.5" y2="38.5" stroke="#c05878" stroke-width="0.6" opacity="0.6"/><line x1="50" y1="48" x2="57.8" y2="40.2" stroke="#c05878" stroke-width="0.6" opacity="0.6"/><line x1="50" y1="48" x2="59.5" y2="42.5" stroke="#c05878" stroke-width="0.6" opacity="0.6"/><line x1="50" y1="48" x2="60.6" y2="45.2" stroke="#c05878" stroke-width="0.6" opacity="0.6"/>
</svg>