<svg xmlns="http://www.w3.org/2000/svg" viewBox="-2 -10 90 130" width="100" height="100">
<line x1="50" y1="88" x2="50" y2="122" stroke="#4a7c3f" stroke-width="1.8" stroke-linecap="round"/><ellipse cx="42.61" cy="95.54" rx="2.64" ry="5.76" transform="rotate(-38.0 42.61 95.54)" fill="#5a8a3a" opacity="0.9"/><ellipse cx="50.00" cy="17.00" rx="10.08" ry="12.00" transform="rotate(0.0 50.00 17.00)" fill="#f8f8f4" stroke="#a09880" stroke-width="0.6" opacity="0.92" /><ellipse cx="63.02" cy="19.97" rx="10.08" ry="12.00" transform="rotate(25.7 63.02 19.97)" fill="#f8f8f4" stroke="#a09880" stroke-width="0.6" opacity="0.92" /><ellipse cx="73.45" cy="28.30" rx="10.08" ry="12.00" transform="rotate(51.4 73.45 28.30)" fill="#f8f8f4" stroke="#a09880" stroke-width="0.6" opacity="0.92" /><ellipse cx="79.25" cy="40.32" rx="10.08" ry="12.00" transform="rotate(77.1 79.25 40.32)" fill="#f8f8f4" stroke="#a09880" stroke-width="0.6" opacity="0.92" /><ellipse cx="79.25" cy="53.68" rx="10.08" ry="12.00" transform="rotate(102.9 79.25 53.68)" fill="#f8f8f4" stroke="#a09880" stroke-width="0.6" opacity="0.92" /><ellipse cx="73.45" cy="65.70" rx="10.08" ry="12.00" transform="rotate(128.6 73.45 65.70)" fill="#f8f8f4" stroke="#a09880" stroke-width="0.6" opacity="0.92" /><ellipse cx="63.02" cy="74.03" rx="10.08" ry="12.00" transform="rotate(154.3 63.02 74.03)" fill="#f8f8f4" stroke="#a09880" stroke-width="0.6" opacity="0.92" /><ellipse cx="50.00" cy="77.00" rx="10.08" ry="12.00" transform="rotate(180.0 50.00 77.00)" fill="#f8f8f4" stroke="#a09880" stroke-width="0.6" opacity="0.92" /><ellipse cx="36.98" cy="74.03" rx="10.08" ry="12.00" transform="rotate(205.7 36.98 74.03)" fill="#f8f8f4" stroke="#a09880" stroke-width="0.6" opacity="0.92" /><ellipse cx="26.55" cy="65.70" rx="10.08" ry="12.00" transform="rotate(231.4 26.55 65.70)" fill="#f8f8f4" stroke="#a09880" stroke-width="0.6" opacity="0.92" /><ellipse cx="20.75" cy="53.68" rx="10.08" ry="12.00" transform="rotate(257.1 20.75 53.68)" fill="#f8f8f4" stroke="#a09880" stroke-width="0.6" opacity="0.92" /><ellipse cx="20.75" cy="40.32" rx="10.08" ry="12.00" transform="rotate(282.9 20.75 40.32)" fill="#f8f8f4" stroke="#a09880" stroke-width="0.6" opacity="0.92" /><ellipse cx="26.55" cy="28.30" rx="10.08" ry="12.00" transform="rotate(308.6 26.55 28.30)" fill="#f8f8f4" stroke="#a09880" stroke-width="0.6" opacity="0.92" /><ellipse cx="36.98" cy="19.97" rx="10.08" ry="12.00" transform="rotate(334.3 36.98 19.97)" fill="#f8f8f4" stroke="#a09880" stroke-width="0.6" opacity="0.92" /><ellipse cx="50.00" cy="23.50" rx="7.98" ry="10.50" transform="rotate(0.0 50.00 23.50)" fill="#f0ece8" stroke="#a09880" stroke-width="0.6" opacity="0.9" /><ellipse cx="61.75" cy="26.65" rx="7.98" ry="10.50" transform="rotate(30.0 61.75 26.65)" fill="#f0ece8" stroke="#a09880" stroke-width="0.6" opacity="0.9" /><ellipse cx="70.35" cy="35.25" rx="7.98" ry="10.50" transform="rotate(60.0 70.35 35.25)" fill="#f0ece8" stroke="#a09880" stroke-width="0.6" opacity="0.9" /><ellipse cx="73.50" cy="47.00" rx="7.98" ry="10.50" transform="rotate(90.0 73.50 47.00)" fill="#f0ece8" stroke="#a09880" stroke-width="0.6" opacity="0.9" /><ellipse cx="70.35" cy="58.75" rx="7.98" ry="10.50" transform="rotate(120.0 70.35 58.75)" fill="#f0ece8" stroke="#a09880" stroke-width="0.6" opacity="0.9" /><ellipse cx="61.75" cy="67.35" rx="7.98" ry="10.50" transform="rotate(150.0 61.75 67.35)" fill="#f0ece8" stroke="#a09880" stroke-width="0.6" opacity="0.9" /><ellipse cx="50.00" cy="70.50" rx="7.98" ry="10.50" transform="rotate(180.0 50.00 70.50)" fill="#f0ece8" stroke="#a09880" stroke-width="0.6" opacity="0.9" /><ellipse cx="38.25" cy="67.35" rx="7.98" ry="10.50" transform="rotate(210.0 38.25 67.35)" fill="#f0ece8" stroke="#a09880" stroke-width="0.6" opacity="0.9" /><ellipse cx="29.65" cy="58.75" rx="7.98" ry="10.50" transform="rotate(240.0 29.65 58.75)" fill="#f0ece8" stroke="#a09880" stroke-width="0.6" opacity="0.9" /><ellipse cx="26.50" cy="47.00" rx="7.98" ry="10.50" transform="rotate(270.0 26.50 47.00)" fill="#f0ece8" stroke="#a09880" stroke-width="0.6" opacity="0.9" /><ellipse cx="29.65" cy="35.25" rx="7.98" ry="10.50" transform="rotate(300.0 29.65 35.25)" fill="#f0ece8" stroke="#a09880" stroke-width="0.6" opacity="0.9" /><ellipse cx="38.25" cy="26.65" rx="7.98" ry="10.50" transform="rotate(330.0 38.25 26.65)" fill="#f0ece8" stroke="#a09880" stroke-width="0.6" opacity="0.9" /><ellipse cx="50.00" cy="29.50" rx="5.78" ry="8.50" transform="rotate(0.0 50.00 29.50)" fill="#e8e4e0" stroke="#a09880" stroke-width="0.6" opacity="0.88" /><ellipse cx="60.29" cy="32.84" rx="5.78" ry="8.50" transform="rotate(36.0 60.29 32.84)" fill="#e8e4e0" stroke="#a09880" stroke-width="0.6" opacity="0.88" /><ellipse cx="66.64" cy="41.59" rx="5.78" ry="8.50" transform="rotate(72.0 66.64 41.59)" fill="#e8e4e0" stroke="#a09880" stroke-width="0.6" opacity="0.88" /><ellipse cx="66.64" cy="52.41" rx="5.78" ry="8.50" transform="rotate(108.0 66.64 52.41)" fill="#e8e4e0" stroke="#a09880" stroke-width="0.6" opacity="0.88" /><ellipse cx="60.29" cy="61.16" rx="5.78" ry="8.50" transform="rotate(144.0 60.29 61.16)" fill="#e8e4e0" stroke="#a09880" stroke-width="0.6" opacity="0.88" /><ellipse cx="50.00" cy="64.50" rx="5.78" ry="8.50" transform="rotate(180.0 50.00 64.50)" fill="#e8e4e0" stroke="#a09880" stroke-width="0.6" opacity="0.88" /><ellipse cx="39.71" cy="61.16" rx="5.78" ry="8.50" transform="rotate(216.0 39.71 61.16)" fill="#e8e4e0" stroke="#a09880" stroke-width="0.6" opacity="0.88" /><ellipse cx="33.36" cy="52.41" rx="5.78" ry="8.50" transform="rotate(252.0 33.36 52.41)" fill="#e8e4e0" stroke="#a09880" stroke-width="0.6" opacity="0.88" /><ellipse cx="33.36" cy="41.59" rx="5.78" ry="8.50" transform="rotate(288.0 33.36 41.59)" fill="#e8e4e0" stroke="#a09880" stroke-width="0.6" opacity="0.88" /><ellipse cx="39.71" cy="32.84" rx="5.78" ry="8.50" transform="rotate(324.0 39.71 32.84)" fill="#e8e4e0" stroke="#a09880" stroke-width="0.6" opacity="0.88" /><ellipse cx="50.00" cy="35.50" rx="3.90" ry="6.50" transform="rotate(0.0 50.00 35.50)" fill="#e8e4e0" stroke="#a09880" stroke-width="0.6" opacity="0.85" /><ellipse cx="58.13" cy="38.87" rx="3.90" ry="6.50" transform="rotate(45.0 58.13 38.87)" fill="#e8e4e0" stroke="#a09880" stroke-width="0.6" opacity="0.85" /><ellipse cx="61.50" cy="47.00" rx="3.90" ry="6.50" transform="rotate(90.0 61.50 47.00)" fill="#e8e4e0" stroke="#a09880" stroke-width="0.6" opacity="0.85" /><ellipse cx="58.13" cy="55.13" rx="3.90" ry="6.50" transform="rotate(135.0 58.13 55.13)" fill="#e8e4e0" stroke="#a09880" stroke-width="0.6" opacity="0.85" /><ellipse cx="50.00" cy="58.50" rx="3.90" ry="6.50" transform="rotate(180.0 50.00 58.50)" fill="#e8e4e0" stroke="#a09880" stroke-width="0.6" opacity="0.85" /><ellipse cx="41.87" cy="55.13" rx="3.90" ry="6.50" transform="rotate(225.0 41.87 55.13)" fill="#e8e4e0" stroke="#a09880" stroke-width="0.6" opacity="0.85" /><ellipse cx="38.50" cy="47.00" rx="3.90" ry="6.50" transform="rotate(270.0 38.50 47.00)" fill="#e8e4e0" stroke="#a09880" stroke-width="0.6" opacity="0.85" /><ellipse cx="41.87" cy="38.87" rx="3.90" ry="6.50" transform="rotate(315.0 41.87 38.87)" fill="#e8e4e0" stroke="#a09880" stroke-width="0.6" opacity="0.85" /><ellipse cx="50.00" cy="40.50" rx="2.52" ry="4.50" transform="rotate(0.0 50.00 40.50)" fill="#d8d4d0" stroke="#a09880" stroke-width="0.6" opacity="0.82" /><ellipse cx="55.63" cy="43.75" rx="2.52" ry="4.50" transform="rotate(60.0 55.63 43.75)" fill="#d8d4d0" stroke="#a09880" stroke-width="0.6" opacity="0.82" /><ellipse cx="55.63" cy="50.25" rx="2.52" ry="4.50" transform="rotate(120.0 55.63 50.25)" fill="#d8d4d0" stroke="#a09880" stroke-width="0.6" opacity="0.82" /><ellipse cx="50.00" cy="53.50" rx="2.52" ry="4.50" transform="rotate(180.0 50.00 53.50)" fill="#d8d4d0" stroke="#a09880" stroke-width="0.6" opacity="0.82" /><ellipse cx="44.37" cy="50.25" rx="2.52" ry="4.50" transform="rotate(240.0 44.37 50.25)" fill="#d8d4d0" stroke="#a09880" stroke-width="0.6" opacity="0.82" /><ellipse cx="44.37" cy="43.75" rx="2.52" ry="4.50" transform="rotate(300.0 44.37 43.75)" fill="#d8d4d0" stroke="#a09880" stroke-width="0.6" opacity="0.82" /><circle cx="50" cy="47" r="4" fill="#d8d4d0" stroke="#a09880" stroke-width="0.5"/>
</svg>