<svg xmlns="http://www.w3.org/2000/svg" viewBox="0 0 100 100" width="100" height="100">
<ellipse cx="50" cy="82" rx="36" ry="10" fill="#2a6a20" stroke="#1a5010" stroke-width="0.8" opacity="0.7"/><path d="M50,82 L40,72" stroke="#1a5010" stroke-width="0.8" opacity="0.5"/><line x1="50" y1="92" x2="50" y2="112" stroke="#2a6a20" stroke-width="2.5"/><circle cx="50" cy="52" r="46" fill="none" stroke="#a080ff" stroke-width="1.5" opacity="0.25"/><circle cx="50" cy="52" r="36" fill="none" stroke="#c0a0ff" stroke-width="1" opacity="0.2"/><ellipse cx="50.00" cy="21.00" rx="9.88" ry="13.00" transform="rotate(0.0 50.00 21.00)" fill="#e0d8ff" stroke="#a090f8" stroke-width="0.6" opacity="0.85" /><ellipse cx="71.92" cy="30.08" rx="9.88" ry="13.00" transform="rotate(45.0 71.92 30.08)" fill="#e0d8ff" stroke="#a090f8" stroke-width="0.6" opacity="0.85" /><ellipse cx="81.00" cy="52.00" rx="9.88" ry="13.00" transform="rotate(90.0 81.00 52.00)" fill="#e0d8ff" stroke="#a090f8" stroke-width="0.6" opacity="0.85" /><ellipse cx="71.92" cy="73.92" rx="9.88" ry="13.00" transform="rotate(135.0 71.92 73.92)" fill="#e0d8ff" stroke="#a090f8" stroke-width="0.6" opacity="0.85" /><ellipse cx="50.00" cy="83.00" rx="9.88" ry="13.00" transform="rotate(180.0 50.00 83.00)" fill="#e0d8ff" stroke="#a090f8" stroke-width="0.6" opacity="0.85" /><ellipse cx="28.08" cy="73.92" rx="9.88" ry="13.00" transform="rotate(225.0 28.08 73.92)" fill="#e0d8ff" stroke="#a090f8" stroke-width="0.6" opacity="0.85" /><ellipse cx="19.00" cy="52.00" rx="9.88" ry="13.00" transform="rotate(270.0 19.00 52.00)" fill="#e0d8ff" stroke="#a090f8" stroke-width="0.6" opacity="0.85" /><ellipse cx="28.08" cy="30.08" rx="9.88" ry="13.00" transform="rotate(315.0 28.08 30.08)" fill="#e0d8ff" stroke="#a090f8" stroke-width="0.6" opacity="0.85" /><ellipse cx="50.00" cy="30.00" rx="7.20" ry="10.00" transform="rotate(0.0 50.00 30.00)" fill="#c8b8ff" stroke="#8070e8" stroke-width="0.6" opacity="0.9" /><ellipse cx="69.05" cy="41.00" rx="7.20" ry="10.00" transform="rotate(60.0 69.05 41.00)" fill="#c8b8ff" stroke="#8070e8" stroke-width="0.6" opacity="0.9" /><ellipse cx="69.05" cy="63.00" rx="7.20" ry="10.00" transform="rotate(120.0 69.05 63.00)" fill="#c8b8ff" stroke="#8070e8" stroke-width="0.6" opacity="0.9" /><ellipse cx="50.00" cy="74.00" rx="7.20" ry="10.00" transform="rotate(180.0 50.00 74.00)" fill="#c8b8ff" stroke="#8070e8" stroke-width="0.6" opacity="0.9" /><ellipse cx="30.95" cy="63.00" rx="7.20" ry="10.00" transform="rotate(240.0 30.95 63.00)" fill="#c8b8ff" stroke="#8070e8" stroke-width="0.6" opacity="0.9" /><ellipse cx="30.95" cy="41.00" rx="7.20" ry="10.00" transform="rotate(300.0 30.95 41.00)" fill="#c8b8ff" stroke="#8070e8" stroke-width="0.6" opacity="0.9" /><ellipse cx="50.00" cy="39.00" rx="4.76" ry="7.00" transform="rotate(0.0 50.00 39.00)" fill="#b0a0ff" stroke="#6050d8" stroke-width="0.6" opacity="0.92" /><ellipse cx="62.36" cy="47.98" rx="4.76" ry="7.00" transform="rotate(72.0 62.36 47.98)" fill="#b0a0ff" stroke="#6050d8" stroke-width="0.6" opacity="0.92" /><ellipse cx="57.64" cy="62.52" rx="4.76" ry="7.00" transform="rotate(144.0 57.64 62.52)" fill="#b0a0ff" stroke="#6050d8" stroke-width="0.6" opacity="0.92" /><ellipse cx="42.36" cy="62.52" rx="4.76" ry="7.00" transform="rotate(216.0 42.36 62.52)" fill="#b0a0ff" stroke="#6050d8" stroke-width="0.6" opacity="0.92" /><ellipse cx="37.64" cy="47.98" rx="4.76" ry="7.00" transform="rotate(288.0 37.64 47.98)" fill="#b0a0ff" stroke="#6050d8" stroke-width="0.6" opacity="0.92" /><circle cx="50" cy="52" r="7" fill="#f8f0ff" stroke="#c0a0f8" stroke-width="0.7"/><circle cx="85.7" cy="65.0" r="1.5" fill="#e0d8ff" opacity="0.6"/><circle cx="69.0" cy="84.9" r="2.0" fill="#e0d8ff" opacity="0.6"/><circle cx="43.4" cy="89.4" r="2.5" fill="#e0d8ff" opacity="0.6"/><circle cx="20.9" cy="76.4" r="1.5" fill="#e0d8ff" opacity="0.6"/><circle cx="12.0" cy="52.0" r="2.0" fill="#e0d8ff" opacity="0.6"/><circle cx="20.9" cy="27.6" r="2.5" fill="#e0d8ff" opacity="0.6"/><circle cx="43.4" cy="14.6" r="1.5" fill="#e0d8ff" opacity="0.6"/><circle cx="69.0" cy="19.1" r="2.0" fill="#e0d8ff" opacity="0.6"/><circle cx="85.7" cy="39.0" r="2.5" fill="#e0d8ff" opacity="0.6"/>
</svg>