<svg xmlns="http://www.w3.org/2000/svg" viewBox="0 0 100 100" width="100" height="100">
<line x1="50" y1="86" x2="53" y2="114" stroke="#4a7c3f" stroke-width="2" stroke-linecap="round"/><ellipse cx="58.49" cy="93.51" rx="2.64" ry="5.76" transform="rotate(45.0 58.49 93.51)" fill="#5a8a3a" opacity="0.9"/><ellipse cx="50.00" cy="14.00" rx="10.56" ry="12.00" transform="rotate(0.0 50.00 14.00)" fill="#f06050" stroke="#c01020" stroke-width="0.6" opacity="0.95" /><ellipse cx="73.45" cy="25.30" rx="10.56" ry="12.00" transform="rotate(51.4 73.45 25.30)" fill="#f06050" stroke="#c01020" stroke-width="0.6" opacity="0.95" /><ellipse cx="79.25" cy="50.68" rx="10.56" ry="12.00" transform="rotate(102.9 79.25 50.68)" fill="#f06050" stroke="#c01020" stroke-width="0.6" opacity="0.95" /><ellipse cx="63.02" cy="71.03" rx="10.56" ry="12.00" transform="rotate(154.3 63.02 71.03)" fill="#f06050" stroke="#c01020" stroke-width="0.6" opacity="0.95" /><ellipse cx="36.98" cy="71.03" rx="10.56" ry="12.00" transform="rotate(205.7 36.98 71.03)" fill="#f06050" stroke="#c01020" stroke-width="0.6" opacity="0.95" /><ellipse cx="20.75" cy="50.68" rx="10.56" ry="12.00" transform="rotate(257.1 20.75 50.68)" fill="#f06050" stroke="#c01020" stroke-width="0.6" opacity="0.95" /><ellipse cx="26.55" cy="25.30" rx="10.56" ry="12.00" transform="rotate(308.6 26.55 25.30)" fill="#f06050" stroke="#c01020" stroke-width="0.6" opacity="0.95" /><ellipse cx="50.00" cy="21.50" rx="7.60" ry="9.50" transform="rotate(0.0 50.00 21.50)" fill="#e84030" stroke="#c01020" stroke-width="0.6" opacity="0.92" transform-origin="center"/><ellipse cx="69.49" cy="32.75" rx="7.60" ry="9.50" transform="rotate(60.0 69.49 32.75)" fill="#e84030" stroke="#c01020" stroke-width="0.6" opacity="0.92" transform-origin="center"/><ellipse cx="69.49" cy="55.25" rx="7.60" ry="9.50" transform="rotate(120.0 69.49 55.25)" fill="#e84030" stroke="#c01020" stroke-width="0.6" opacity="0.92" transform-origin="center"/><ellipse cx="50.00" cy="66.50" rx="7.60" ry="9.50" transform="rotate(180.0 50.00 66.50)" fill="#e84030" stroke="#c01020" stroke-width="0.6" opacity="0.92" transform-origin="center"/><ellipse cx="30.51" cy="55.25" rx="7.60" ry="9.50" transform="rotate(240.0 30.51 55.25)" fill="#e84030" stroke="#c01020" stroke-width="0.6" opacity="0.92" transform-origin="center"/><ellipse cx="30.51" cy="32.75" rx="7.60" ry="9.50" transform="rotate(300.0 30.51 32.75)" fill="#e84030" stroke="#c01020" stroke-width="0.6" opacity="0.92" transform-origin="center"/><ellipse cx="50.00" cy="29.00" rx="5.04" ry="7.00" transform="rotate(0.0 50.00 29.00)" fill="#d82020" stroke="#c01020" stroke-width="0.6" opacity="0.88" /><ellipse cx="64.27" cy="39.36" rx="5.04" ry="7.00" transform="rotate(72.0 64.27 39.36)" fill="#d82020" stroke="#c01020" stroke-width="0.6" opacity="0.88" /><ellipse cx="58.82" cy="56.14" rx="5.04" ry="7.00" transform="rotate(144.0 58.82 56.14)" fill="#d82020" stroke="#c01020" stroke-width="0.6" opacity="0.88" /><ellipse cx="41.18" cy="56.14" rx="5.04" ry="7.00" transform="rotate(216.0 41.18 56.14)" fill="#d82020" stroke="#c01020" stroke-width="0.6" opacity="0.88" /><ellipse cx="35.73" cy="39.36" rx="5.04" ry="7.00" transform="rotate(288.0 35.73 39.36)" fill="#d82020" stroke="#c01020" stroke-width="0.6" opacity="0.88" /><circle cx="50" cy="44" r="6" fill="#a00010" stroke="#c01020" stroke-width="0.6"/>
</svg>