<svg xmlns="http://www.w3.org/2000/svg" viewBox="0 0 100 100" width="100" height="100">
<line x1="50" y1="85" x2="50" y2="20" stroke="#4a7c3f" stroke-width="2" stroke-linecap="round"/><ellipse cx="55" cy="28" rx="9" ry="10" transform="rotate(12 55 28)" fill="#f8d820" stroke="#b08010" stroke-width="0.6" opacity="0.95"/><ellipse cx="55" cy="32" rx="5" ry="5.5" transform="rotate(12 55 32)" fill="#f8d820aa" stroke="#b08010" stroke-width="0.4"/><ellipse cx="61.55" cy="31.41" rx="1.76" ry="3.84" transform="rotate(55.0 61.55 31.41)" fill="#4a7c3f" opacity="0.9"/><ellipse cx="45" cy="38" rx="9" ry="10" transform="rotate(-12 45 38)" fill="#f8d820" stroke="#b08010" stroke-width="0.6" opacity="0.9299999999999999"/><ellipse cx="45" cy="42" rx="5" ry="5.5" transform="rotate(-12 45 42)" fill="#f8d820aa" stroke="#b08010" stroke-width="0.4"/><ellipse cx="38.45" cy="41.41" rx="1.76" ry="3.84" transform="rotate(-55.0 38.45 41.41)" fill="#4a7c3f" opacity="0.9"/><ellipse cx="55" cy="48" rx="9" ry="10" transform="rotate(12 55 48)" fill="#f8d820" stroke="#b08010" stroke-width="0.6" opacity="0.9099999999999999"/><ellipse cx="55" cy="52" rx="5" ry="5.5" transform="rotate(12 55 52)" fill="#f8d820aa" stroke="#b08010" stroke-width="0.4"/><ellipse cx="61.55" cy="51.41" rx="1.76" ry="3.84" transform="rotate(55.0 61.55 51.41)" fill="#4a7c3f" opacity="0.9"/><ellipse cx="45" cy="58" rx="9" ry="10" transform="rotate(-12 45 58)" fill="#f8d820" stroke="#b08010" stroke-width="0.6" opacity="0.8899999999999999"/><ellipse cx="45" cy="62" rx="5" ry="5.5" transform="rotate(-12 45 62)" fill="#f8d820aa" stroke="#b08010" stroke-width="0.4"/><ellipse cx="38.45" cy="61.41" rx="1.76" ry="3.84" transform="rotate(-55.0 38.45 61.41)" fill="#4a7c3f" opacity="0.9"/><ellipse cx="55" cy="68" rx="9" ry="10" transform="rotate(12 55 68)" fill="#f8d820" stroke="#b08010" stroke-width="0.6" opacity="0.87"/><ellipse cx="55" cy="72" rx="5" ry="5.5" transform="rotate(12 55 72)" fill="#f8d820aa" stroke="#b08010" stroke-width="0.4"/><ellipse cx="61.55" cy="71.41" rx="1.76" ry="3.84" transform="rotate(55.0 61.55 71.41)" fill="#4a7c3f" opacity="0.9"/>
</svg>