<svg xmlns="http://www.w3.org/2000/svg" viewBox="0 0 100 100" width="100" height="100">
<line x1="50" y1="88" x2="54" y2="120" stroke="#3d6e2a" stroke-width="2.8" stroke-linecap="round"/><ellipse cx="41.97" cy="91.53" rx="3.08" ry="6.72" transform="rotate(-35.0 41.97 91.53)" fill="#4e7e30" opacity="0.9"/><ellipse cx="50.00" cy="26.50" rx="3.74" ry="8.50" transform="rotate(0.0 50.00 26.50)" fill="#f8d030" stroke="#b09010" stroke-width="0.6" /><ellipse cx="58.23" cy="28.14" rx="3.74" ry="8.50" transform="rotate(22.5 58.23 28.14)" fill="#f8d030" stroke="#b09010" stroke-width="0.6" /><ellipse cx="65.20" cy="32.80" rx="3.74" ry="8.50" transform="rotate(45.0 65.20 32.80)" fill="#f8d030" stroke="#b09010" stroke-width="0.6" /><ellipse cx="69.86" cy="39.77" rx="3.74" ry="8.50" transform="rotate(67.5 69.86 39.77)" fill="#f8d030" stroke="#b09010" stroke-width="0.6" /><ellipse cx="71.50" cy="48.00" rx="3.74" ry="8.50" transform="rotate(90.0 71.50 48.00)" fill="#f8d030" stroke="#b09010" stroke-width="0.6" /><ellipse cx="69.86" cy="56.23" rx="3.74" ry="8.50" transform="rotate(112.5 69.86 56.23)" fill="#f8d030" stroke="#b09010" stroke-width="0.6" /><ellipse cx="65.20" cy="63.20" rx="3.74" ry="8.50" transform="rotate(135.0 65.20 63.20)" fill="#f8d030" stroke="#b09010" stroke-width="0.6" /><ellipse cx="58.23" cy="67.86" rx="3.74" ry="8.50" transform="rotate(157.5 58.23 67.86)" fill="#f8d030" stroke="#b09010" stroke-width="0.6" /><ellipse cx="50.00" cy="69.50" rx="3.74" ry="8.50" transform="rotate(180.0 50.00 69.50)" fill="#f8d030" stroke="#b09010" stroke-width="0.6" /><ellipse cx="41.77" cy="67.86" rx="3.74" ry="8.50" transform="rotate(202.5 41.77 67.86)" fill="#f8d030" stroke="#b09010" stroke-width="0.6" /><ellipse cx="34.80" cy="63.20" rx="3.74" ry="8.50" transform="rotate(225.0 34.80 63.20)" fill="#f8d030" stroke="#b09010" stroke-width="0.6" /><ellipse cx="30.14" cy="56.23" rx="3.74" ry="8.50" transform="rotate(247.5 30.14 56.23)" fill="#f8d030" stroke="#b09010" stroke-width="0.6" /><ellipse cx="28.50" cy="48.00" rx="3.74" ry="8.50" transform="rotate(270.0 28.50 48.00)" fill="#f8d030" stroke="#b09010" stroke-width="0.6" /><ellipse cx="30.14" cy="39.77" rx="3.74" ry="8.50" transform="rotate(292.5 30.14 39.77)" fill="#f8d030" stroke="#b09010" stroke-width="0.6" /><ellipse cx="34.80" cy="32.80" rx="3.74" ry="8.50" transform="rotate(315.0 34.80 32.80)" fill="#f8d030" stroke="#b09010" stroke-width="0.6" /><ellipse cx="41.77" cy="28.14" rx="3.74" ry="8.50" transform="rotate(337.5 41.77 28.14)" fill="#f8d030" stroke="#b09010" stroke-width="0.6" /><ellipse cx="50.00" cy="27.50" rx="2.20" ry="5.50" transform="rotate(0.0 50.00 27.50)" fill="#f8d030cc" stroke="#b09010" stroke-width="0.6" /><ellipse cx="58.89" cy="29.53" rx="2.20" ry="5.50" transform="rotate(25.7 58.89 29.53)" fill="#f8d030cc" stroke="#b09010" stroke-width="0.6" /><ellipse cx="66.03" cy="35.22" rx="2.20" ry="5.50" transform="rotate(51.4 66.03 35.22)" fill="#f8d030cc" stroke="#b09010" stroke-width="0.6" /><ellipse cx="69.99" cy="43.44" rx="2.20" ry="5.50" transform="rotate(77.1 69.99 43.44)" fill="#f8d030cc" stroke="#b09010" stroke-width="0.6" /><ellipse cx="69.99" cy="52.56" rx="2.20" ry="5.50" transform="rotate(102.9 69.99 52.56)" fill="#f8d030cc" stroke="#b09010" stroke-width="0.6" /><ellipse cx="66.03" cy="60.78" rx="2.20" ry="5.50" transform="rotate(128.6 66.03 60.78)" fill="#f8d030cc" stroke="#b09010" stroke-width="0.6" /><ellipse cx="58.89" cy="66.47" rx="2.20" ry="5.50" transform="rotate(154.3 58.89 66.47)" fill="#f8d030cc" stroke="#b09010" stroke-width="0.6" /><ellipse cx="50.00" cy="68.50" rx="2.20" ry="5.50" transform="rotate(180.0 50.00 68.50)" fill="#f8d030cc" stroke="#b09010" stroke-width="0.6" /><ellipse cx="41.11" cy="66.47" rx="2.20" ry="5.50" transform="rotate(205.7 41.11 66.47)" fill="#f8d030cc" stroke="#b09010" stroke-width="0.6" /><ellipse cx="33.97" cy="60.78" rx="2.20" ry="5.50" transform="rotate(231.4 33.97 60.78)" fill="#f8d030cc" stroke="#b09010" stroke-width="0.6" /><ellipse cx="30.01" cy="52.56" rx="2.20" ry="5.50" transform="rotate(257.1 30.01 52.56)" fill="#f8d030cc" stroke="#b09010" stroke-width="0.6" /><ellipse cx="30.01" cy="43.44" rx="2.20" ry="5.50" transform="rotate(282.9 30.01 43.44)" fill="#f8d030cc" stroke="#b09010" stroke-width="0.6" /><ellipse cx="33.97" cy="35.22" rx="2.20" ry="5.50" transform="rotate(308.6 33.97 35.22)" fill="#f8d030cc" stroke="#b09010" stroke-width="0.6" /><ellipse cx="41.11" cy="29.53" rx="2.20" ry="5.50" transform="rotate(334.3 41.11 29.53)" fill="#f8d030cc" stroke="#b09010" stroke-width="0.6" /><circle cx="50" cy="48" r="12" fill="#3d2008" stroke="#6a3810" stroke-width="1"/><circle cx="59.0" cy="48.0" r="1.4" fill="#6a3810" opacity="0.7"/><circle cx="43.4" cy="54.1" r="1.4" fill="#6a3810" opacity="0.7"/><circle cx="50.8" cy="39.0" r="1.4" fill="#6a3810" opacity="0.7"/><circle cx="55.5" cy="55.1" r="1.4" fill="#6a3810" opacity="0.7"/><circle cx="41.1" cy="46.4" r="1.4" fill="#6a3810" opacity="0.7"/><circle cx="57.6" cy="43.2" r="1.4" fill="#6a3810" opacity="0.7"/><circle cx="47.7" cy="56.7" r="1.4" fill="#6a3810" opacity="0.7"/><circle cx="45.8" cy="40.0" r="1.4" fill="#6a3810" opacity="0.7"/><circle cx="58.5" cy="51.1" r="1.4" fill="#6a3810" opacity="0.7"/><circle cx="41.7" cy="51.4" r="1.4" fill="#6a3810" opacity="0.7"/><circle cx="53.8" cy="39.8" r="1.4" fill="#6a3810" opacity="0.7"/><circle cx="52.7" cy="56.6" r="1.4" fill="#6a3810" opacity="0.7"/><circle cx="42.2" cy="43.5" r="1.4" fill="#6a3810" opacity="0.7"/><circle cx="58.8" cy="46.1" r="1.4" fill="#6a3810" opacity="0.7"/><circle cx="44.8" cy="55.4" r="1.4" fill="#6a3810" opacity="0.7"/><circle cx="48.8" cy="39.1" r="1.4" fill="#6a3810" opacity="0.7"/><circle cx="56.9" cy="53.8" r="1.4" fill="#6a3810" opacity="0.7"/><circle cx="41.0" cy="48.4" r="1.4" fill="#6a3810" opacity="0.7"/><circle cx="56.4" cy="41.6" r="1.4" fill="#6a3810" opacity="0.7"/><circle cx="49.6" cy="57.0" r="1.4" fill="#6a3810" opacity="0.7"/><circle cx="44.2" cy="41.1" r="1.4" fill="#6a3810" opacity="0.7"/><circle cx="58.9" cy="49.2" r="1.4" fill="#6a3810" opacity="0.7"/><circle cx="42.6" cy="53.2" r="1.4" fill="#6a3810" opacity="0.7"/><circle cx="51.9" cy="39.2" r="1.4" fill="#6a3810" opacity="0.7"/><circle cx="54.5" cy="55.8" r="1.4" fill="#6a3810" opacity="0.7"/><circle cx="41.4" cy="45.3" r="1.4" fill="#6a3810" opacity="0.7"/><circle cx="58.2" cy="44.2" r="1.4" fill="#6a3810" opacity="0.7"/><circle cx="46.6" cy="56.3" r="1.4" fill="#6a3810" opacity="0.7"/>
</svg>