<svg xmlns="http://www.w3.org/2000/svg" viewBox="0 0 100 100" width="100" height="100">
<line x1="50" y1="88" x2="54" y2="120" stroke="#3d6e2a" stroke-width="2.8" stroke-linecap="round"/><ellipse cx="41.97" cy="91.53" rx="3.08" ry="6.72" transform="rotate(-35.0 41.97 91.53)" fill="#4e7e30" opacity="0.9"/><ellipse cx="50.00" cy="19.00" rx="4.84" ry="11.00" transform="rotate(0.0 50.00 19.00)" fill="#c83020" stroke="#801008" stroke-width="0.6" /><ellipse cx="61.10" cy="21.21" rx="4.84" ry="11.00" transform="rotate(22.5 61.10 21.21)" fill="#c83020" stroke="#801008" stroke-width="0.6" /><ellipse cx="70.51" cy="27.49" rx="4.84" ry="11.00" transform="rotate(45.0 70.51 27.49)" fill="#c83020" stroke="#801008" stroke-width="0.6" /><ellipse cx="76.79" cy="36.90" rx="4.84" ry="11.00" transform="rotate(67.5 76.79 36.90)" fill="#c83020" stroke="#801008" stroke-width="0.6" /><ellipse cx="79.00" cy="48.00" rx="4.84" ry="11.00" transform="rotate(90.0 79.00 48.00)" fill="#c83020" stroke="#801008" stroke-width="0.6" /><ellipse cx="76.79" cy="59.10" rx="4.84" ry="11.00" transform="rotate(112.5 76.79 59.10)" fill="#c83020" stroke="#801008" stroke-width="0.6" /><ellipse cx="70.51" cy="68.51" rx="4.84" ry="11.00" transform="rotate(135.0 70.51 68.51)" fill="#c83020" stroke="#801008" stroke-width="0.6" /><ellipse cx="61.10" cy="74.79" rx="4.84" ry="11.00" transform="rotate(157.5 61.10 74.79)" fill="#c83020" stroke="#801008" stroke-width="0.6" /><ellipse cx="50.00" cy="77.00" rx="4.84" ry="11.00" transform="rotate(180.0 50.00 77.00)" fill="#c83020" stroke="#801008" stroke-width="0.6" /><ellipse cx="38.90" cy="74.79" rx="4.84" ry="11.00" transform="rotate(202.5 38.90 74.79)" fill="#c83020" stroke="#801008" stroke-width="0.6" /><ellipse cx="29.49" cy="68.51" rx="4.84" ry="11.00" transform="rotate(225.0 29.49 68.51)" fill="#c83020" stroke="#801008" stroke-width="0.6" /><ellipse cx="23.21" cy="59.10" rx="4.84" ry="11.00" transform="rotate(247.5 23.21 59.10)" fill="#c83020" stroke="#801008" stroke-width="0.6" /><ellipse cx="21.00" cy="48.00" rx="4.84" ry="11.00" transform="rotate(270.0 21.00 48.00)" fill="#c83020" stroke="#801008" stroke-width="0.6" /><ellipse cx="23.21" cy="36.90" rx="4.84" ry="11.00" transform="rotate(292.5 23.21 36.90)" fill="#c83020" stroke="#801008" stroke-width="0.6" /><ellipse cx="29.49" cy="27.49" rx="4.84" ry="11.00" transform="rotate(315.0 29.49 27.49)" fill="#c83020" stroke="#801008" stroke-width="0.6" /><ellipse cx="38.90" cy="21.21" rx="4.84" ry="11.00" transform="rotate(337.5 38.90 21.21)" fill="#c83020" stroke="#801008" stroke-width="0.6" /><ellipse cx="50.00" cy="20.00" rx="3.20" ry="8.00" transform="rotate(0.0 50.00 20.00)" fill="#c83020cc" stroke="#801008" stroke-width="0.6" /><ellipse cx="62.15" cy="22.77" rx="3.20" ry="8.00" transform="rotate(25.7 62.15 22.77)" fill="#c83020cc" stroke="#801008" stroke-width="0.6" /><ellipse cx="71.89" cy="30.54" rx="3.20" ry="8.00" transform="rotate(51.4 71.89 30.54)" fill="#c83020cc" stroke="#801008" stroke-width="0.6" /><ellipse cx="77.30" cy="41.77" rx="3.20" ry="8.00" transform="rotate(77.1 77.30 41.77)" fill="#c83020cc" stroke="#801008" stroke-width="0.6" /><ellipse cx="77.30" cy="54.23" rx="3.20" ry="8.00" transform="rotate(102.9 77.30 54.23)" fill="#c83020cc" stroke="#801008" stroke-width="0.6" /><ellipse cx="71.89" cy="65.46" rx="3.20" ry="8.00" transform="rotate(128.6 71.89 65.46)" fill="#c83020cc" stroke="#801008" stroke-width="0.6" /><ellipse cx="62.15" cy="73.23" rx="3.20" ry="8.00" transform="rotate(154.3 62.15 73.23)" fill="#c83020cc" stroke="#801008" stroke-width="0.6" /><ellipse cx="50.00" cy="76.00" rx="3.20" ry="8.00" transform="rotate(180.0 50.00 76.00)" fill="#c83020cc" stroke="#801008" stroke-width="0.6" /><ellipse cx="37.85" cy="73.23" rx="3.20" ry="8.00" transform="rotate(205.7 37.85 73.23)" fill="#c83020cc" stroke="#801008" stroke-width="0.6" /><ellipse cx="28.11" cy="65.46" rx="3.20" ry="8.00" transform="rotate(231.4 28.11 65.46)" fill="#c83020cc" stroke="#801008" stroke-width="0.6" /><ellipse cx="22.70" cy="54.23" rx="3.20" ry="8.00" transform="rotate(257.1 22.70 54.23)" fill="#c83020cc" stroke="#801008" stroke-width="0.6" /><ellipse cx="22.70" cy="41.77" rx="3.20" ry="8.00" transform="rotate(282.9 22.70 41.77)" fill="#c83020cc" stroke="#801008" stroke-width="0.6" /><ellipse cx="28.11" cy="30.54" rx="3.20" ry="8.00" transform="rotate(308.6 28.11 30.54)" fill="#c83020cc" stroke="#801008" stroke-width="0.6" /><ellipse cx="37.85" cy="22.77" rx="3.20" ry="8.00" transform="rotate(334.3 37.85 22.77)" fill="#c83020cc" stroke="#801008" stroke-width="0.6" /><circle cx="50" cy="48" r="16" fill="#2a1008" stroke="#5a2810" stroke-width="1"/><circle cx="59.0" cy="48.0" r="1.4" fill="#5a2810" opacity="0.7"/><circle cx="43.4" cy="54.1" r="1.4" fill="#5a2810" opacity="0.7"/><circle cx="50.8" cy="39.0" r="1.4" fill="#5a2810" opacity="0.7"/><circle cx="55.5" cy="55.1" r="1.4" fill="#5a2810" opacity="0.7"/><circle cx="41.1" cy="46.4" r="1.4" fill="#5a2810" opacity="0.7"/><circle cx="57.6" cy="43.2" r="1.4" fill="#5a2810" opacity="0.7"/><circle cx="47.7" cy="56.7" r="1.4" fill="#5a2810" opacity="0.7"/><circle cx="45.8" cy="40.0" r="1.4" fill="#5a2810" opacity="0.7"/><circle cx="58.5" cy="51.1" r="1.4" fill="#5a2810" opacity="0.7"/><circle cx="41.7" cy="51.4" r="1.4" fill="#5a2810" opacity="0.7"/><circle cx="53.8" cy="39.8" r="1.4" fill="#5a2810" opacity="0.7"/><circle cx="52.7" cy="56.6" r="1.4" fill="#5a2810" opacity="0.7"/><circle cx="42.2" cy="43.5" r="1.4" fill="#5a2810" opacity="0.7"/><circle cx="58.8" cy="46.1" r="1.4" fill="#5a2810" opacity="0.7"/><circle cx="44.8" cy="55.4" r="1.4" fill="#5a2810" opacity="0.7"/><circle cx="48.8" cy="39.1" r="1.4" fill="#5a2810" opacity="0.7"/><circle cx="56.9" cy="53.8" r="1.4" fill="#5a2810" opacity="0.7"/><circle cx="41.0" cy="48.4" r="1.4" fill="#5a2810" opacity="0.7"/><circle cx="56.4" cy="41.6" r="1.4" fill="#5a2810" opacity="0.7"/><circle cx="49.6" cy="57.0" r="1.4" fill="#5a2810" opacity="0.7"/><circle cx="44.2" cy="41.1" r="1.4" fill="#5a2810" opacity="0.7"/><circle cx="58.9" cy="49.2" r="1.4" fill="#5a2810" opacity="0.7"/><circle cx="42.6" cy="53.2" r="1.4" fill="#5a2810" opacity="0.7"/><circle cx="51.9" cy="39.2" r="1.4" fill="#5a2810" opacity="0.7"/><circle cx="54.5" cy="55.8" r="1.4" fill="#5a2810" opacity="0.7"/><circle cx="41.4" cy="45.3" r="1.4" fill="#5a2810" opacity="0.7"/><circle cx="58.2" cy="44.2" r="1.4" fill="#5a2810" opacity="0.7"/><circle cx="46.6" cy="56.3" r="1.4" fill="#5a2810" opacity="0.7"/>
</svg>