<svg xmlns="http://www.w3.org/2000/svg" viewBox="0 0 100 100" width="100" height="100">
<line x1="50" y1="82" x2="50" y2="120" stroke="#4a6a28" stroke-width="2.2" stroke-linecap="round"/><ellipse cx="42.00" cy="91.76" rx="2.86" ry="6.24" transform="rotate(-38.0 42.00 91.76)" fill="#4a6a28" opacity="0.9"/><line x1="50" y1="44" x2="78.0" y2="44.0" stroke="#7a9040" stroke-width="1" opacity="0.7"/><line x1="50" y1="44" x2="76.6" y2="52.7" stroke="#7a9040" stroke-width="1" opacity="0.7"/><line x1="50" y1="44" x2="72.7" y2="60.5" stroke="#7a9040" stroke-width="1" opacity="0.7"/><line x1="50" y1="44" x2="66.5" y2="66.7" stroke="#7a9040" stroke-width="1" opacity="0.7"/><line x1="50" y1="44" x2="58.7" y2="70.6" stroke="#7a9040" stroke-width="1" opacity="0.7"/><line x1="50" y1="44" x2="50.0" y2="72.0" stroke="#7a9040" stroke-width="1" opacity="0.7"/><line x1="50" y1="44" x2="41.3" y2="70.6" stroke="#7a9040" stroke-width="1" opacity="0.7"/><line x1="50" y1="44" x2="33.5" y2="66.7" stroke="#7a9040" stroke-width="1" opacity="0.7"/><line x1="50" y1="44" x2="27.3" y2="60.5" stroke="#7a9040" stroke-width="1" opacity="0.7"/><line x1="50" y1="44" x2="23.4" y2="52.7" stroke="#7a9040" stroke-width="1" opacity="0.7"/><line x1="50" y1="44" x2="22.0" y2="44.0" stroke="#7a9040" stroke-width="1" opacity="0.7"/><line x1="50" y1="44" x2="23.4" y2="35.3" stroke="#7a9040" stroke-width="1" opacity="0.7"/><line x1="50" y1="44" x2="27.3" y2="27.5" stroke="#7a9040" stroke-width="1" opacity="0.7"/><line x1="50" y1="44" x2="33.5" y2="21.3" stroke="#7a9040" stroke-width="1" opacity="0.7"/><line x1="50" y1="44" x2="41.3" y2="17.4" stroke="#7a9040" stroke-width="1" opacity="0.7"/><line x1="50" y1="44" x2="50.0" y2="16.0" stroke="#7a9040" stroke-width="1" opacity="0.7"/><line x1="50" y1="44" x2="58.7" y2="17.4" stroke="#7a9040" stroke-width="1" opacity="0.7"/><line x1="50" y1="44" x2="66.5" y2="21.3" stroke="#7a9040" stroke-width="1" opacity="0.7"/><line x1="50" y1="44" x2="72.7" y2="27.5" stroke="#7a9040" stroke-width="1" opacity="0.7"/><line x1="50" y1="44" x2="76.6" y2="35.3" stroke="#7a9040" stroke-width="1" opacity="0.7"/><circle cx="50" cy="44" r="14" fill="#9060c8" stroke="#5820a0" stroke-width="0.7"/><ellipse cx="50.00" cy="31.00" rx="2.50" ry="5.00" transform="rotate(0.0 50.00 31.00)" fill="#9060c8" stroke="#5820a0" stroke-width="0.6" /><ellipse cx="54.97" cy="31.99" rx="2.50" ry="5.00" transform="rotate(22.5 54.97 31.99)" fill="#9060c8" stroke="#5820a0" stroke-width="0.6" /><ellipse cx="59.19" cy="34.81" rx="2.50" ry="5.00" transform="rotate(45.0 59.19 34.81)" fill="#9060c8" stroke="#5820a0" stroke-width="0.6" /><ellipse cx="62.01" cy="39.03" rx="2.50" ry="5.00" transform="rotate(67.5 62.01 39.03)" fill="#9060c8" stroke="#5820a0" stroke-width="0.6" /><ellipse cx="63.00" cy="44.00" rx="2.50" ry="5.00" transform="rotate(90.0 63.00 44.00)" fill="#9060c8" stroke="#5820a0" stroke-width="0.6" /><ellipse cx="62.01" cy="48.97" rx="2.50" ry="5.00" transform="rotate(112.5 62.01 48.97)" fill="#9060c8" stroke="#5820a0" stroke-width="0.6" /><ellipse cx="59.19" cy="53.19" rx="2.50" ry="5.00" transform="rotate(135.0 59.19 53.19)" fill="#9060c8" stroke="#5820a0" stroke-width="0.6" /><ellipse cx="54.97" cy="56.01" rx="2.50" ry="5.00" transform="rotate(157.5 54.97 56.01)" fill="#9060c8" stroke="#5820a0" stroke-width="0.6" /><ellipse cx="50.00" cy="57.00" rx="2.50" ry="5.00" transform="rotate(180.0 50.00 57.00)" fill="#9060c8" stroke="#5820a0" stroke-width="0.6" /><ellipse cx="45.03" cy="56.01" rx="2.50" ry="5.00" transform="rotate(202.5 45.03 56.01)" fill="#9060c8" stroke="#5820a0" stroke-width="0.6" /><ellipse cx="40.81" cy="53.19" rx="2.50" ry="5.00" transform="rotate(225.0 40.81 53.19)" fill="#9060c8" stroke="#5820a0" stroke-width="0.6" /><ellipse cx="37.99" cy="48.97" rx="2.50" ry="5.00" transform="rotate(247.5 37.99 48.97)" fill="#9060c8" stroke="#5820a0" stroke-width="0.6" /><ellipse cx="37.00" cy="44.00" rx="2.50" ry="5.00" transform="rotate(270.0 37.00 44.00)" fill="#9060c8" stroke="#5820a0" stroke-width="0.6" /><ellipse cx="37.99" cy="39.03" rx="2.50" ry="5.00" transform="rotate(292.5 37.99 39.03)" fill="#9060c8" stroke="#5820a0" stroke-width="0.6" /><ellipse cx="40.81" cy="34.81" rx="2.50" ry="5.00" transform="rotate(315.0 40.81 34.81)" fill="#9060c8" stroke="#5820a0" stroke-width="0.6" /><ellipse cx="45.03" cy="31.99" rx="2.50" ry="5.00" transform="rotate(337.5 45.03 31.99)" fill="#9060c8" stroke="#5820a0" stroke-width="0.6" /><circle cx="50" cy="44" r="5" fill="#e8e0f0" stroke="#5820a0" stroke-width="0.5"/>
</svg>