<svg height="511pt" viewBox="-107 0 511 511.99946" width="511pt" xmlns="http://www.w3.org/2000/svg"><path d="m71.910156 431.28125c10.800782 19.851562 35.644532 27.191406 55.496094 16.394531s27.191406-35.644531 16.394531-55.496093c-10.796875-19.851563-120.203125-182.65625-140.054687-171.855469-19.851563 10.796875 57.367187 191.105469 68.164062 210.957031zm0 0" fill="#9ad880"/><path d="m143.800781 392.179688c-4.707031-8.660157-28.179687-44.515626-54.796875-81.300782-7.71875 21.765625-19.753906 60.796875-24.726562 104.328125 3.492187 7.753907 6.171875 13.386719 7.632812 16.078125 10.800782 19.851563 35.644532 27.191406 55.496094 16.394532 19.855469-10.800782 27.191406-35.648438 16.394531-55.5zm0 0" fill="#8dc971"/><path d="m148.78125 512c-14.796875 0-26.902344-12.105469-26.902344-26.90625v-268.414062c0-14.796876 12.105469-26.90625 26.902344-26.90625 14.800781 0 26.90625 12.109374 26.90625 26.90625v268.417968c0 14.796875-12.105469 26.902344-26.90625 26.902344zm0 0" fill="#b2e59c"/><path d="m148.78125 189.773438c-14.796875 0-26.902344 12.109374-26.902344 26.90625v75.136718c23.082032 2.46875 40.84375-.449218 53.808594-4.789062v-70.347656c0-14.796876-12.105469-26.90625-26.90625-26.90625zm0 0" fill="#9ad880"/><path d="m172.839844 74.984375s-14.046875-39.929687-45.035156-68.625c-12.167969-11.269531-31.832032-6.992187-38.125 8.355469-11.710938 28.574218-28.457032 69.585937-28.695313 70.992187zm0 0" fill="#c94f00"/><path d="m124.726562 74.984375s14.046876-39.929687 45.035157-68.625c12.167969-11.269531 31.832031-6.992187 38.121093 8.355469 11.710938 28.574218 28.460938 69.585937 28.699219 70.992187zm0 0" fill="#e85d00"/><path d="m38.695312 50.113281c-2.265624-20.386719 17.984376-35.953125 37.109376-28.539062 32.527343 12.609375 74.363281 38.714843 94.042968 92.039062 34.695313 94.023438-10.5625 143.417969-64.648437 140.226563-54.082031-3.191406-68.832031-68.410156-64.898438-134.574219 1.640625-27.558594.398438-51.082031-1.605469-69.152344zm0 0" fill="#ff7b1a"/><path d="m169.84375 113.613281c-1.171875-3.171875-2.414062-6.238281-3.734375-9.21875l-24.753906-18.691406s-38.890625 41.589844-51.3125 95.417969c-5.648438 24.480468-14.375 43.058594-22.210938 56.054687 9.535157 9.707031 21.828125 15.746094 37.367188 16.664063 54.085937 3.191406 99.34375-46.203125 64.644531-140.226563zm0 0" fill="#e85d00"/><path d="m258.871094 50.113281c2.265625-20.386719-17.984375-35.953125-37.109375-28.539062-32.53125 12.609375-74.363281 38.714843-94.042969 92.039062-34.699219 94.023438 10.5625 143.417969 64.644531 140.226563 54.085938-3.191406 68.835938-68.410156 64.902344-134.574219-1.640625-27.558594-.398437-51.082031 1.605469-69.152344zm0 0" fill="#ff9a4d"/><path d="m225.652344 431.28125c-10.796875 19.851562-35.644532 27.191406-55.496094 16.394531s-27.191406-35.644531-16.390625-55.496093c10.796875-19.851563 120.199219-182.65625 140.054687-171.855469 19.851563 10.796875-57.367187 191.105469-68.167968 210.957031zm0 0" fill="#c8efb9"/></svg>
