<svg xmlns="http://www.w3.org/2000/svg" viewBox="0 0 100 100" width="100" height="100">
<line x1="50" y1="86" x2="52" y2="113" stroke="#4a7c3f" stroke-width="1.8" stroke-linecap="round"/><ellipse cx="42.93" cy="91.57" rx="2.42" ry="5.28" transform="rotate(-40.0 42.93 91.57)" fill="#5a8a3a" opacity="0.9"/><ellipse cx="50.00" cy="22.00" rx="5.60" ry="10.00" transform="rotate(0.0 50.00 22.00)" fill="#6090e0" stroke="#3060c0" stroke-width="0.6" /><ellipse cx="72.52" cy="35.00" rx="5.60" ry="10.00" transform="rotate(60.0 72.52 35.00)" fill="#6090e0" stroke="#3060c0" stroke-width="0.6" /><ellipse cx="72.52" cy="61.00" rx="5.60" ry="10.00" transform="rotate(120.0 72.52 61.00)" fill="#6090e0" stroke="#3060c0" stroke-width="0.6" /><ellipse cx="50.00" cy="74.00" rx="5.60" ry="10.00" transform="rotate(180.0 50.00 74.00)" fill="#6090e0" stroke="#3060c0" stroke-width="0.6" /><ellipse cx="27.48" cy="61.00" rx="5.60" ry="10.00" transform="rotate(240.0 27.48 61.00)" fill="#6090e0" stroke="#3060c0" stroke-width="0.6" /><ellipse cx="27.48" cy="35.00" rx="5.60" ry="10.00" transform="rotate(300.0 27.48 35.00)" fill="#6090e0" stroke="#3060c0" stroke-width="0.6" /><circle cx="50" cy="48" r="13" fill="#f8e040" stroke="#3060c0" stroke-width="0.8"/><circle cx="57.0" cy="48.0" r="1.5" fill="#3060c0" opacity="0.5"/><circle cx="54.9" cy="52.9" r="1.5" fill="#3060c0" opacity="0.5"/><circle cx="50.0" cy="55.0" r="1.5" fill="#3060c0" opacity="0.5"/><circle cx="45.1" cy="52.9" r="1.5" fill="#3060c0" opacity="0.5"/><circle cx="43.0" cy="48.0" r="1.5" fill="#3060c0" opacity="0.5"/><circle cx="45.1" cy="43.1" r="1.5" fill="#3060c0" opacity="0.5"/><circle cx="50.0" cy="41.0" r="1.5" fill="#3060c0" opacity="0.5"/><circle cx="54.9" cy="43.1" r="1.5" fill="#3060c0" opacity="0.5"/>
</svg>