<svg xmlns="http://www.w3.org/2000/svg" viewBox="0 0 100 100" width="100" height="100">
<path d="M50,5 Q52,25 50,45" stroke="#6a8030" stroke-width="2" fill="none"/><ellipse cx="29.0" cy="20.0" rx="4.5" ry="6" fill="#f0ecf8" stroke="#c0b0d8" stroke-width="0.5" opacity="0.95"/><ellipse cx="35.0" cy="25.0" rx="4.5" ry="6" fill="#f0ecf8" stroke="#c0b0d8" stroke-width="0.5" opacity="0.9299999999999999"/><ellipse cx="41.0" cy="30.0" rx="4.5" ry="6" fill="#f0ecf8" stroke="#c0b0d8" stroke-width="0.5" opacity="0.9099999999999999"/><ellipse cx="47.0" cy="35.0" rx="4.5" ry="6" fill="#f0ecf8" stroke="#c0b0d8" stroke-width="0.5" opacity="0.8899999999999999"/><ellipse cx="29.0" cy="40.0" rx="4.5" ry="6" fill="#f0ecf8" stroke="#c0b0d8" stroke-width="0.5" opacity="0.87"/><ellipse cx="35.0" cy="45.0" rx="4.5" ry="6" fill="#f0ecf8" stroke="#c0b0d8" stroke-width="0.5" opacity="0.85"/><ellipse cx="41.0" cy="50.0" rx="4.5" ry="6" fill="#f0ecf8" stroke="#c0b0d8" stroke-width="0.5" opacity="0.83"/><ellipse cx="47.0" cy="55.0" rx="4.5" ry="6" fill="#f0ecf8" stroke="#c0b0d8" stroke-width="0.5" opacity="0.8099999999999999"/><ellipse cx="29.0" cy="60.0" rx="4.5" ry="6" fill="#f0ecf8" stroke="#c0b0d8" stroke-width="0.5" opacity="0.7899999999999999"/><ellipse cx="35.0" cy="65.0" rx="4.5" ry="6" fill="#f0ecf8" stroke="#c0b0d8" stroke-width="0.5" opacity="0.77"/><ellipse cx="41.0" cy="70.0" rx="4.5" ry="6" fill="#f0ecf8" stroke="#c0b0d8" stroke-width="0.5" opacity="0.75"/><ellipse cx="47.0" cy="75.0" rx="4.5" ry="6" fill="#f0ecf8" stroke="#c0b0d8" stroke-width="0.5" opacity="0.73"/><ellipse cx="41.0" cy="15.0" rx="4.5" ry="6" fill="#f0ecf8" stroke="#c0b0d8" stroke-width="0.5" opacity="0.95"/><ellipse cx="47.0" cy="20.0" rx="4.5" ry="6" fill="#f0ecf8" stroke="#c0b0d8" stroke-width="0.5" opacity="0.9299999999999999"/><ellipse cx="53.0" cy="25.0" rx="4.5" ry="6" fill="#f0ecf8" stroke="#c0b0d8" stroke-width="0.5" opacity="0.9099999999999999"/><ellipse cx="59.0" cy="30.0" rx="4.5" ry="6" fill="#f0ecf8" stroke="#c0b0d8" stroke-width="0.5" opacity="0.8899999999999999"/><ellipse cx="41.0" cy="35.0" rx="4.5" ry="6" fill="#f0ecf8" stroke="#c0b0d8" stroke-width="0.5" opacity="0.87"/><ellipse cx="47.0" cy="40.0" rx="4.5" ry="6" fill="#f0ecf8" stroke="#c0b0d8" stroke-width="0.5" opacity="0.85"/><ellipse cx="53.0" cy="45.0" rx="4.5" ry="6" fill="#f0ecf8" stroke="#c0b0d8" stroke-width="0.5" opacity="0.83"/><ellipse cx="59.0" cy="50.0" rx="4.5" ry="6" fill="#f0ecf8" stroke="#c0b0d8" stroke-width="0.5" opacity="0.8099999999999999"/><ellipse cx="41.0" cy="55.0" rx="4.5" ry="6" fill="#f0ecf8" stroke="#c0b0d8" stroke-width="0.5" opacity="0.7899999999999999"/><ellipse cx="47.0" cy="60.0" rx="4.5" ry="6" fill="#f0ecf8" stroke="#c0b0d8" stroke-width="0.5" opacity="0.77"/><ellipse cx="53.0" cy="65.0" rx="4.5" ry="6" fill="#f0ecf8" stroke="#c0b0d8" stroke-width="0.5" opacity="0.75"/><ellipse cx="59.0" cy="70.0" rx="4.5" ry="6" fill="#f0ecf8" stroke="#c0b0d8" stroke-width="0.5" opacity="0.73"/><ellipse cx="53.0" cy="22.0" rx="4.5" ry="6" fill="#f0ecf8" stroke="#c0b0d8" stroke-width="0.5" opacity="0.95"/><ellipse cx="59.0" cy="27.0" rx="4.5" ry="6" fill="#f0ecf8" stroke="#c0b0d8" stroke-width="0.5" opacity="0.9299999999999999"/><ellipse cx="65.0" cy="32.0" rx="4.5" ry="6" fill="#f0ecf8" stroke="#c0b0d8" stroke-width="0.5" opacity="0.9099999999999999"/><ellipse cx="71.0" cy="37.0" rx="4.5" ry="6" fill="#f0ecf8" stroke="#c0b0d8" stroke-width="0.5" opacity="0.8899999999999999"/><ellipse cx="53.0" cy="42.0" rx="4.5" ry="6" fill="#f0ecf8" stroke="#c0b0d8" stroke-width="0.5" opacity="0.87"/><ellipse cx="59.0" cy="47.0" rx="4.5" ry="6" fill="#f0ecf8" stroke="#c0b0d8" stroke-width="0.5" opacity="0.85"/><ellipse cx="65.0" cy="52.0" rx="4.5" ry="6" fill="#f0ecf8" stroke="#c0b0d8" stroke-width="0.5" opacity="0.83"/><ellipse cx="71.0" cy="57.0" rx="4.5" ry="6" fill="#f0ecf8" stroke="#c0b0d8" stroke-width="0.5" opacity="0.8099999999999999"/><ellipse cx="53.0" cy="62.0" rx="4.5" ry="6" fill="#f0ecf8" stroke="#c0b0d8" stroke-width="0.5" opacity="0.7899999999999999"/><ellipse cx="59.0" cy="67.0" rx="4.5" ry="6" fill="#f0ecf8" stroke="#c0b0d8" stroke-width="0.5" opacity="0.77"/><ellipse cx="65.0" cy="72.0" rx="4.5" ry="6" fill="#f0ecf8" stroke="#c0b0d8" stroke-width="0.5" opacity="0.75"/><ellipse cx="71.0" cy="77.0" rx="4.5" ry="6" fill="#f0ecf8" stroke="#c0b0d8" stroke-width="0.5" opacity="0.73"/>
</svg>