<svg id="Flat" height="512" viewBox="0 0 128 128" width="512" xmlns="http://www.w3.org/2000/svg"><path d="m69.4 79.59-1.4-29.49-5.23 6c-2.81 2.56-1.51 4.44-1.68 9.47a22.78 22.78 0 0 0 .91 7.26 97.57 97.57 0 0 1 .72 52.89 1.76 1.76 0 0 0 1.46 2.2c1.38.2 2.68.09 3.42-1 1.09-1.7 1.14-5.57 1.39-7.57 1.65-13.2 1.01-26.52.41-39.76z" fill="#2f9438"/><g fill="#65b54e"><path d="m76.89 54.19c2.29 1 4.1 2.85 6.1 4.37s4.46 2.77 6.93 2.34c-3.48 4.23-9.75 5.27-15.07 4-4.95-.93-10.59-4.39-14.32-7.66 4.41-2.58 11.47-5.24 16.36-3.05z"/><path d="m42.42 54.19c-2.29 1-4.11 2.85-6.1 4.37s-4.46 2.77-6.93 2.34c3.48 4.23 9.75 5.27 15.07 4 4.94-.93 10.58-4.39 14.32-7.66-4.41-2.58-11.43-5.24-16.36-3.05z"/><path d="m53.1 61.79c.35 2.56 1.87 4.78 3.24 7s2.66 4.58 2.48 7.21a48.87 48.87 0 0 0 3.69-5.35 18.74 18.74 0 0 0 2.77-7.07 8.44 8.44 0 0 0 -2.15-7.06c-4.13-4.02-10.79-.14-10.03 5.27z"/></g><path d="m63.08 8.48a14.09 14.09 0 0 0 -7.57-7.27 16.39 16.39 0 0 0 -11-.47c-1.23.39-2.42.92-3.61 1.42a2.9 2.9 0 0 0 -1.39 4.13 8.57 8.57 0 0 1 1 4.59c-.21 3.08-1.54 6-1.62 9.12a11.82 11.82 0 0 0 3.27 8.31 12.78 12.78 0 0 0 12.13 3.62c4.32-1.14 7.53-5.38 6.57-9.35z" fill="#be203c"/><path d="m49.52 27.88a18.09 18.09 0 0 0 -4.89-5.53c-2.14-1.38-5.21-1.88-7.39-.55-1.56 1-2.35 2.63-3.51 4a5.76 5.76 0 0 1 -2.64 1.73 2.16 2.16 0 0 0 -1.09 3.56c1.05 1 2.41 1.7 3.54 2.62 2.57 2.1 3.8 5.21 4.6 8.25s1.3 6.19 2.81 9a16.75 16.75 0 0 0 12 8.18 18.1 18.1 0 0 0 14.38-3.86z" fill="#da2a47"/><path d="m97.65 24.78a14.59 14.59 0 0 0 -5.21-3.06 16 16 0 0 0 -12.79 1.28l-20 31.69c10 3 22-1.72 26.4-10.32 1.75-3.43 2.39-7.3 4.6-10.5a10.61 10.61 0 0 1 5.81-4.09 2.94 2.94 0 0 0 1.19-5z" fill="#c61d3d"/><path d="m82.77 11.41c-2.59-2.06-3.4-3.1-6.25-4.86-3.42-2.12-8.07-2.09-11.91-.69a27 27 0 0 0 -9.76 6.79l-5.61 41.15a22.73 22.73 0 0 0 19.54 3.29c6.57-2 11.83-7.13 13.45-13.19.85-3.17.75-6.47 1.23-9.69.92-6.13 3.89-11.8 7.16-17.27a1.6 1.6 0 0 0 -1.19-2.4 15.85 15.85 0 0 1 -6.66-3.13z" fill="#da2a47"/><path d="m65.57 12.91c3 .49 6.2 1.06 8.38 3a8.1 8.1 0 0 1 1.83 9c-1.17 3-3.71 5.47-6.53 7.43-2.44 1.69-5.46 3.15-8.49 2.61-2.55-.45-4.54-2.21-6.23-4-3.93-4.14-7.1-10-9.25-15.09-2.49-5.94 1.79-5.91 7.41-5z" fill="#c61d3d"/><path d="m64.05 21.61a7.41 7.41 0 0 1 -14.81 0c0-4 3.32-8 7.41-8s7.4 4.03 7.4 8z" fill="#b2193a"/><path d="m64.29 16.83c3.51.05 7.35.65 9.59 2.85 2.68 2.64 2 6.57.48 9.75s-3.89 6.22-4.2 9.63c-.27 3 1.1 6 1 9.07-.16 4.51-3.88 8.87-9.09 10.49s-11.59.62-15.56-2.57a14.26 14.26 0 0 1 -5.11-10.16c-.3-3.73.52-7.46 1.33-11.14 1.79-8.08 3.39-8.43 1.92-21.13 7.35 5.58 16.12 3.17 19.64 3.21z" fill="#e2384d"/><g opacity=".5"><path d="m70.32 51.6a13.42 13.42 0 0 1 -8.25 7c-5.2 1.67-11.59.62-15.55-2.58a14.17 14.17 0 0 1 -5.11-10.16c-.3-3.74.51-7.45 1.32-11.14 1.79-8.08 3.38-8.42 1.91-21.13a17.49 17.49 0 0 0 3.77 2.17c.26 6.77-1 8.3-2.46 14.74-.82 3.68-1.64 7.41-1.34 11.14a14.29 14.29 0 0 0 5.12 10.16c4 3.2 10.35 4.25 15.55 2.58a14.67 14.67 0 0 0 5.04-2.78z" fill="#c61d3d"/></g><path d="m86.7 80.36c.73 4.62-2.18 12-6.19 14.44-3 1.79-10.39 5.5-11.66.18s3-11 9.83-12.14c.83-.13 8.2-1.31 8.02-2.48z" fill="#65b54e"/><path d="m48.5 97.74c-.73 4.62 2.17 12 6.18 14.43 3 1.8 10.4 5.51 11.67.18s-3-11-9.84-12.13c-.83-.14-8.2-1.32-8.01-2.48z" fill="#65b54e"/></svg>